<?xml version="1.0" encoding="utf-8"?>
<!-- Generator: Adobe Illustrator 25.2.1, SVG Export Plug-In . SVG Version: 6.00 Build 0)  -->
<svg version="1.1" id="Layer_1" xmlns="http://www.w3.org/2000/svg" xmlns:xlink="http://www.w3.org/1999/xlink" x="0px" y="0px"
	 viewBox="0 0 660.7 195.6" style="enable-background:new 0 0 660.7 195.6;" xml:space="preserve">
<style type="text/css">
	.st0{fill:#4D4D4D;}
</style>
<g>
	<g>
		<path class="st0" d="M99.4,84.7H45.5l-13,62.2H3.8L33,7.7h28.6L50.4,61.5h53.8l11.3-53.7h28.6L115,146.9H86.3L99.4,84.7z"/>
	</g>
</g>
<g>
	<g>
		<path class="st0" d="M151,46.1h27.2l6.8,50.2c1.7,12.9,2.7,22,2.8,27.2c3.5-10.3,8.4-21.2,14.6-32.7l24.1-44.7h28.9l-62.3,110.7
			c-5.1,9.2-9.2,15.6-12.1,19.3c-2.9,3.7-6.5,6.6-10.6,8.6c-4.1,2.1-9.1,3.1-15,3.1c-5.8,0-12.2-1-19.5-3l2.4-20.3
			c3.3,1,6.5,1.4,9.6,1.4c8.4,0,15.2-6.3,20.6-19L151,46.1z"/>
	</g>
</g>
<g>
	<g>
		<path class="st0" d="M246.6,146.9L275.7,7.7H303l-9.8,46.5c5-3.8,9.7-6.5,14-8.1c4.3-1.6,9.1-2.4,14.2-2.4
			c10.6,0,19.1,3.6,25.5,10.7s9.6,17.5,9.6,31.1c0,9.2-1.5,18.1-4.5,26.7s-7,15.7-12.1,21.1c-5,5.4-10.3,9.4-15.9,12.1
			c-5.5,2.6-11.3,3.9-17.4,3.9c-14.4,0-25-6.3-31.8-19l-3.5,16.6L246.6,146.9L246.6,146.9z M283.4,105.8c0,6.8,1.9,12.3,5.7,16.5
			c3.8,4.2,8.3,6.4,13.5,6.4c4.6,0,8.9-1.6,13.1-4.9c4.1-3.3,7.6-8.5,10.4-15.8s4.1-14.5,4.1-21.8c0-7.2-1.9-12.8-5.6-16.9
			s-8.2-6.1-13.4-6.1c-6.8,0-12.7,3.2-17.7,9.5C286.8,81.3,283.4,92.4,283.4,105.8z"/>
	</g>
</g>
<g>
	<g>
		<path class="st0" d="M382.9,46.1h25.4l-4.1,19.6c9.5-14.6,19.8-21.9,30.9-21.9c3.9,0,8.1,1,12.6,2.9L437.3,69
			c-2.5-0.9-5.1-1.3-7.9-1.3c-4.7,0-9.4,1.8-14.3,5.3c-4.8,3.5-8.6,8.3-11.3,14.2c-2.7,5.9-5.4,15.3-8.1,28.2l-6.6,31.6h-27.3
			L382.9,46.1z"/>
	</g>
</g>
<g>
	<g>
		<path class="st0" d="M460,46.1h27.3l-21.1,100.8H439L460,46.1z M468,7.7h27.3l-5.1,24.7h-27.3L468,7.7z"/>
		<path class="st0" d="M580.5,146.9h-25.8L557,136c-4.9,4.7-9.8,8.2-14.6,10.2c-4.8,2.1-10.2,3.1-16.2,3.1
			c-10.4,0-18.9-3.6-25.4-10.7c-6.5-7.1-9.7-17.6-9.7-31.6c0-16.1,4.6-30.7,13.7-43.8c9.1-13,21.2-19.6,36.2-19.6
			c13.5,0,23.7,5.4,30.5,16.1l10.9-52.1h27.3L580.5,146.9z M517.5,105.9c0,7.2,1.8,12.9,5.5,16.9c3.6,4.1,8.1,6.1,13.4,6.1
			c4.9,0,9.5-1.7,13.8-5.1s7.7-8.6,10.3-15.5c2.6-7,3.8-13.6,3.8-20c0-7.3-2-13.2-5.9-17.7c-3.9-4.5-8.5-6.7-13.6-6.7
			c-8,0-14.5,4.4-19.7,13.3C520.1,86,517.5,95.6,517.5,105.9z"/>
	</g>
</g>
<g>
	<g>
		<path class="st0" d="M622.6,22.6H618l3.8-18.3h-6.5l0.8-3.7h17.3l-0.8,3.7h-6.4L622.6,22.6z"/>
		<path class="st0" d="M643.5,22.6h-4.3l-0.8-18.4l-3.5,18.4h-4.1l4.6-22h6.5l0.7,15.4L650,0.6h6.5l-4.6,22h-4.1l4.3-18.2
			L643.5,22.6z"/>
	</g>
</g>
</svg>
