<svg xmlns="http://www.w3.org/2000/svg" viewBox="0 0 310 310"><defs><style>.cls-1{fill:none;}</style></defs><title>_LogoClienti_Yamaha</title><g id="Layer_2" data-name="Layer 2"><g id="LOGO_CLIENTE" data-name="LOGO CLIENTE"><circle id="Bounding" class="cls-1" cx="155" cy="155" r="155"/><g id="layer1"><g id="switch29"><g id="g27"><g id="レイヤー_1" data-name="レイヤー 1"><g id="g24"><g id="g8"><path id="path4" d="M61.43,126.63a23.21,23.21,0,1,0,23.21,23.21A23.21,23.21,0,0,0,61.43,126.63Zm0,43.8A20.59,20.59,0,1,1,82,149.84,20.59,20.59,0,0,1,61.43,170.43Z"/><path id="path6" d="M78.3,159.18l-3.37-3.93a.44.44,0,0,0-.15-.12.57.57,0,0,0-.54,0h0a1.8,1.8,0,0,1-1.67-.07,1.78,1.78,0,0,1-.86-1.22h0a4.55,4.55,0,0,0-2.2-3.11L68,149.84l8.58-5-1.07-1.84-9.64,5.56-1.15-.67v-1.33L74.36,141l-1.07-1.84-8.57,5v-1.74a4.55,4.55,0,0,0-1.6-3.46h0a1.8,1.8,0,0,1,.15-2.84.56.56,0,0,0,.26-.48.63.63,0,0,0,0-.19l-1.73-4.88a.35.35,0,0,0-.34-.24.37.37,0,0,0-.34.24l-1.72,4.88a.63.63,0,0,0,0,.19.58.58,0,0,0,.25.48h0a1.81,1.81,0,0,1,.78,1.48,1.76,1.76,0,0,1-.63,1.36,4.57,4.57,0,0,0-1.59,3.46v1.74l-8.58-5L48.51,141l9.64,5.57V148l-1.16.66-9.64-5.56-1.06,1.84,8.58,5-1.51.87a4.55,4.55,0,0,0-2.2,3.11h0A1.78,1.78,0,0,1,50.3,155a1.8,1.8,0,0,1-1.67.07h0a.57.57,0,0,0-.54,0,.44.44,0,0,0-.15.12l-3.37,3.93a.36.36,0,0,0,0,.42.35.35,0,0,0,.38.17l5.09-1a.45.45,0,0,0,.18-.07.6.6,0,0,0,.29-.46,1.78,1.78,0,0,1,2.38-1.54,4.56,4.56,0,0,0,3.8-.36l1.5-.87v9.91h2.13V154.3l1.16-.67,1.15.67v11.13h2.13v-9.91l1.51.87a4.5,4.5,0,0,0,3.79.35,1.82,1.82,0,0,1,1.49.14,1.79,1.79,0,0,1,.89,1.41.6.6,0,0,0,.29.46.45.45,0,0,0,.18.07l5.09,1a.35.35,0,0,0,.38-.17.36.36,0,0,0,0-.42Zm-20.15-6.11-2.83,1.64a1.16,1.16,0,0,1-1.16-2L57,151.06l1.16.67v1.34Zm2.13-11a1.16,1.16,0,1,1,2.31,0v3.27l-1.16.67-1.15-.67Zm2.49,8.5-1.34.77-1.33-.77v-1.54l1.33-.77,1.34.77Zm6.36,3.67a1.16,1.16,0,0,1-1.58.43l-2.84-1.64v-1.34l1.16-.67,2.83,1.64A1.15,1.15,0,0,1,69.13,154.28Z"/></g><g id="g22"><polygon id="polygon10" points="215.94 145.13 208.19 145.13 208.19 129.64 201.12 129.64 201.12 170.04 208.19 170.04 208.19 152.3 215.94 152.3 215.94 170.04 223.17 170.04 223.17 129.64 215.94 129.64 215.94 145.13"/><polygon id="polygon12" points="89.8 129.64 97.66 154.41 97.66 170.04 105.52 170.04 105.52 153.61 113.65 129.64 107.04 129.64 101.7 145.38 96.86 129.64 89.8 129.64"/><polygon id="polygon14" points="158.04 129.64 154.65 148.86 150.72 129.64 139.67 129.64 139.67 170.04 146.01 170.04 146.01 139.59 151.41 166.06 157.33 166.06 162.12 139.16 162.12 170.04 169.55 170.04 169.55 129.64 158.04 129.64"/><path id="path16" d="M244.72,129.64H233.78L226.4,170H233l1.56-9.4h8.15l1.52,9.4h7.21Zm-9.08,24.26,3-18.06,2.92,18.06Z"/><path id="path18" d="M180.16,129.64,172.78,170h6.55l1.56-9.4H189l1.52,9.4h7.21l-6.67-40.4ZM182,153.9l3-18.06L188,153.9Z"/><path id="path20" d="M118.72,129.64,111.33,170h6.55l1.57-9.4h8.14l1.52,9.4h7.21l-6.67-40.4Zm1.85,24.26,3-18.06,2.92,18.06Z"/></g></g></g></g></g></g></g></g></svg>