<svg viewBox="0 0 310 310" xmlns="http://www.w3.org/2000/svg"><circle cx="155" cy="155" fill="none" r="155"/><path d="m219.25 157.05 12.14-5.05a4.29 4.29 0 0 0 -1.92-2.09 6.2 6.2 0 0 0 -3.12-.78 7.5 7.5 0 0 0 -7.1 7.92zm7.56 14a13 13 0 0 1 -9.62-3.91 14.29 14.29 0 0 1 -.15-19.42 12.31 12.31 0 0 1 9.1-3.8 11.43 11.43 0 0 1 4.57.89 11.31 11.31 0 0 1 3.52 2.3 14.21 14.21 0 0 1 2.2 2.78 17.08 17.08 0 0 1 1.35 2.66l.6 1.52-18.18 7.53a7 7 0 0 0 6.61 4.11 7.73 7.73 0 0 0 6.67-3.76l4.62 3.05a14.68 14.68 0 0 1 -4.37 4.15 12.22 12.22 0 0 1 -6.92 1.85zm-16.37-40.77v39.95h-6v-39.96zm-22.59 35.41a6.65 6.65 0 0 0 5.18-2.34 8.52 8.52 0 0 0 2.1-5.86 8.69 8.69 0 0 0 -2.1-5.94 6.69 6.69 0 0 0 -5.18-2.38 7.07 7.07 0 0 0 -5.36 2.38 9 9 0 0 0 0 11.8 7.08 7.08 0 0 0 5.36 2.33zm-.43 17.54a12.1 12.1 0 0 1 -7.63-2.41 13.91 13.91 0 0 1 -4.44-5.61l5.19-2.17a8.81 8.81 0 0 0 2.55 3.41 6.52 6.52 0 0 0 4.26 1.45 6.86 6.86 0 0 0 5.33-2.06 8.36 8.36 0 0 0 1.92-5.93v-2h-.21a8.66 8.66 0 0 1 -7.14 3.09 12.38 12.38 0 0 1 -9.13-4 13.15 13.15 0 0 1 -3.91-9.58 13.38 13.38 0 0 1 3.91-9.66 12.32 12.32 0 0 1 9.13-4 9.49 9.49 0 0 1 4.19.89 8.23 8.23 0 0 1 2.95 2.16h.21v-2.2h5.75v24.4c0 4.72-1.21 8.27-3.62 10.61a12.88 12.88 0 0 1 -9.31 3.6zm-34.62-19.89a7.39 7.39 0 0 0 10.79 0 8.08 8.08 0 0 0 2.28-5.9 8.2 8.2 0 0 0 -2.24-5.93 7.55 7.55 0 0 0 -10.87 0 8.9 8.9 0 0 0 0 11.83zm15.06 3.83a14 14 0 0 1 -19.32 0 13.8 13.8 0 0 1 0-19.39 13.64 13.64 0 0 1 23.3 9.7 13 13 0 0 1 -3.98 9.69zm-44.86-3.83a7.39 7.39 0 0 0 10.79 0 8.08 8.08 0 0 0 2.28-5.9 8.2 8.2 0 0 0 -2.24-5.93 7.55 7.55 0 0 0 -10.87 0 8.9 8.9 0 0 0 0 11.83zm15.06 3.83a14 14 0 0 1 -19.32 0 13.8 13.8 0 0 1 0-19.39 13.63 13.63 0 0 1 23.29 9.7 13 13 0 0 1 -3.93 9.69zm-45.06 3.83a20.79 20.79 0 0 1 -15.09-6.21 20.76 20.76 0 0 1 0-29.83 20.86 20.86 0 0 1 15.09-6.18 20.2 20.2 0 0 1 14.45 5.82l-4.08 4.09a14.69 14.69 0 0 0 -10.37-4.12 14.43 14.43 0 0 0 -10.73 4.43 15.63 15.63 0 0 0 0 21.74 15.31 15.31 0 0 0 21.38.24 12 12 0 0 0 3.12-7.24h-13.77v-5.74h19.39a17.4 17.4 0 0 1 .32 3.59c0 5.64-1.66 10.15-5 13.49-3.71 3.97-8.64 5.92-14.71 5.92z" fill="#1b0a0c"/></svg>