<svg xmlns="http://www.w3.org/2000/svg" viewBox="0 0 310 310"><defs><style>.cls-1{fill:none;}</style></defs><g id="Layer_2" data-name="Layer 2"><g id="LOGO_CLIENTE" data-name="LOGO CLIENTE"><circle id="Bounding" class="cls-1" cx="155" cy="155" r="155"/><path d="M97.18,92.09h0a10,10,0,0,1,10.08,10.07v13.57l0,20c5.52-2.85,8.18-4.47,15.14-4.47,21.93,0,34.55,16,35.05,36.2a11.5,11.5,0,0,1,.08,1.18v14.07a10.09,10.09,0,1,1-20.18,0V168.64c0-10.6-3.94-19.86-15.21-19.85s-14.35,8.34-14.85,18.41v15.52a10.09,10.09,0,0,1-20.17,0V168.68h0l-.06-66.49A10,10,0,0,1,97.18,92.09m80.66,70c0,8.85,6.4,16.58,15.81,16.58h0c9.75,0,15.58-7.53,15.57-16.39v-.22c0-8.86-6.41-16.59-15.83-16.58-9.75,0-15.57,7.53-15.57,16.38v.23m15.79-31.3h0c18.6,0,32.39,13.77,32.4,31v.23c0,17.26-13.88,31.29-32.6,31.31S161,179.59,161,162.33v-.23c0-17.27,13.88-31.29,32.61-31.31m41.64,41.81a9.37,9.37,0,0,0-9.69,9.48v.23a9.7,9.7,0,0,0,19.4,0v-.22a9.39,9.39,0,0,0-9.7-9.47h0"/></g></g></svg>