<svg xmlns="http://www.w3.org/2000/svg" viewBox="0 0 310 310"><defs><style>.cls-1{fill:none;}</style></defs><g id="Layer_2" data-name="Layer 2"><g id="LOGO_CLIENTE" data-name="LOGO CLIENTE"><circle id="Bounding" class="cls-1" cx="155" cy="155" r="155"/><path d="M41.18,134.91a3.23,3.23,0,0,0-2.36,1.62l-.55.94-.34,1.08c-.5,2,.63,2.4,1.12,2.17a6.8,6.8,0,0,1,3.05-.6H52.47c0,1,0,24.77,0,24.77,0,2.37,0,6.46-.78,8l-.66.66s-.71,1.36.76,1.6H62.51a.93.93,0,0,0,.56-1.55C62,172.09,62,167.38,62,164.9c0,0,0-23.49,0-24.45h7.31c11-.43,10.25-4.94,10.25-4.94-.34-.84-1.64-.59-2.38-.59Z"/><path d="M271.65,173.3c-.28-.45-5-6.77-5.68-7.74,0,0-7.65-11.25-9.07-13.2.47-.58,9.6-13,9.6-13a21.85,21.85,0,0,1,2.15-2.92c.66-.56.86-1.34,0-1.52l-4.43.07c-1.09.17-.46,1.17-.36,1.53s-5.56,7.56-9,12.69c0,0-1.76-2.51-1.8-2.47-.73-1.15-6.19-10.21-6.19-10.21a3.75,3.75,0,0,0-3.68-1.78l-7.71.12c-.92,0-.77,1.22.27,1.61a4.67,4.67,0,0,1,.78.88c2.16,3.3,10.89,17.32,11.58,18.46-.37.51-7.17,11-7.17,11-.91,1.13-2.57,4.11-4,5.84l-2.19-4.89c-.68-1.42-9.24-20.43-13.06-31.54a1.88,1.88,0,0,0-1.75-1.36h-7.09c-1.22,0-1.41,1.56-1.41,1.56-.61,1.79-15.58,33.71-16.55,35.24a6,6,0,0,0-1,1.74c-.11.34.06,1.53.84,1.53h4.62c1.3-.16.7-1.41.63-1.64a5.9,5.9,0,0,1,.27-2.36,62.91,62.91,0,0,1,2.41-6.6h20c1.44,3.34,2.46,5.86,2.76,6.74l1.1,2.4s-.57,1.48.9,1.48h9.11a2.29,2.29,0,0,0,.41,0l4.77,0c1.1,0,.29-1.6.29-1.6l0-.54c.63-1.41,2-3.9,3.07-5.79a70.2,70.2,0,0,1,5-7.41c.76,1.07,9.19,12.77,9.19,12.77,1.23,1.69-.91,2.89,1.67,2.85h9c1.3,0,2-.1,2.17-.46S271.93,173.72,271.65,173.3ZM160,173.76c-1.08-1.21-1.45-6.66-1.45-9.12V144a40.38,40.38,0,0,1,.18-4.61c.16-.8.81-3,.81-3s1.09-1.56-.46-1.56h-2.84l-4.12,0a5.93,5.93,0,0,0-5.14,3.47c-.06.09-7.82,17.93-9.53,21.19-.91-2-11.19-21.57-11.19-21.57a4.25,4.25,0,0,0-3.77-3l-3.05-.13-5.59.07c-.89,0-.7,1.18-.44,1.53a3.68,3.68,0,0,1,1.05,2.11c.08.84.09,2.71.09,2.71s.09,19.17.09,19.17c0,5.5-.32,8.5-.45,10a18.87,18.87,0,0,1-.68,3,3.89,3.89,0,0,0-.31.41c-.25-.4-.65-.79-.69-.87l-2.3-5.14c-.67-1.42-9.23-20.43-13.06-31.55a1.86,1.86,0,0,0-1.74-1.35H88.26c-1.23,0-1.41,1.56-1.41,1.56-.62,1.79-15.58,33.72-16.55,35.24a6,6,0,0,0-1,1.74c-.1.35.07,1.54.85,1.54H74.7c1.29-.19.63-1.67.63-1.67l.28-2.35a35.78,35.78,0,0,1,2.39-6.6H97.72c1.43,3.33,2.58,5.85,2.87,6.74l1.12,2.39s-.58,1.49.88,1.49H112a2.19,2.19,0,0,0,1.09-.2,1.27,1.27,0,0,0,.8.2h4.43c1.73,0,.56-.82.37-1.55-.58-1.8-.58-7.63-.58-10.46,0,0,.09-16.52.09-19.55,1.68,3.26,16.73,30.36,16.73,30.36s12.59-25.76,14.66-30.68c0,3.58.12,22,.12,22,0,2.47.14,6.76-.54,7.8s-.84,2.15.37,2.15h9.61C160,175,160.67,174.58,160,173.76ZM79.44,161.29c.49-1.16,8.48-19,9.27-20.82.57,1.54,7.25,19.7,7.66,20.83ZM204,161c.5-1.16,8.85-18.65,9.64-20.49.58,1.54,7,19.36,7.42,20.5Z"/><path d="M200.49,148c0,8-6,13.66-14.63,13.66-3.36,0-5.05-1-5.22-3.14a7.5,7.5,0,0,0,2.43.24c4.62,0,8.56-3.18,8.69-10.95.06-3.48-1.93-9.71-9.74-9.71,0,0-4.21.09-5.4.09,0,1.64,0,27.21,0,27.21,0,2.76-.06,6.63,1.41,8.47.37.48.55.89.44,1-.31.24-.67.13-1,.13H166.54c-.31,0-1.09.07-1-.28a2.32,2.32,0,0,1,.45-.74c1.41-1.89,1.41-5.79,1.41-8.55l0-21.16c0-1.3-.28-4.4-.39-5.26a6.57,6.57,0,0,0-1.09-2.91.78.78,0,0,1-.16-.59.66.66,0,0,1,.7-.51h9.87l9,0C196.51,134.9,200.49,142.1,200.49,148Z"/></g></g></svg>