<?xml version="1.0" encoding="utf-8"?>
<!-- Generator: Adobe Illustrator 23.0.6, SVG Export Plug-In . SVG Version: 6.00 Build 0)  -->
<svg version="1.1" id="Layer_1" xmlns="http://www.w3.org/2000/svg" xmlns:xlink="http://www.w3.org/1999/xlink" x="0px" y="0px"
	 viewBox="0 0 306.6 80.4" style="enable-background:new 0 0 306.6 80.4;" xml:space="preserve">
<style type="text/css">
	.st0{enable-background:new    ;}
</style>
<path d="M40,9.3c17,0,30.9,13.9,30.9,30.9c0,17-13.9,30.9-30.9,30.9c-17,0-30.9-13.9-30.9-30.9C9.1,23.2,23,9.3,40,9.3 M40,0.4
	L40,0.4C18,0.4,0.2,18.2,0.2,40.2v0C0.2,62.2,18,80,40,80h0c22,0,39.8-17.8,39.8-39.8v0C79.8,18.2,62,0.4,40,0.4L40,0.4z"/>
<g>
	<g class="st0">
		<path d="M107.7,28.8v6.4h-1.8v-6.4l-6.1-8.9h2.1l4.9,7.3l4.9-7.3h2L107.7,28.8z"/>
		<path d="M118.7,24.6c0.8,0,1.5,0.1,2.2,0.4s1.2,0.7,1.7,1.1c0.5,0.5,0.9,1,1.1,1.7c0.3,0.7,0.4,1.4,0.4,2.1s-0.1,1.5-0.4,2.1
			c-0.3,0.7-0.7,1.2-1.1,1.7c-0.5,0.5-1.1,0.9-1.7,1.1c-0.7,0.3-1.4,0.4-2.2,0.4c-0.8,0-1.5-0.1-2.2-0.4c-0.7-0.3-1.2-0.6-1.7-1.1
			s-0.9-1-1.1-1.7c-0.3-0.7-0.4-1.4-0.4-2.1s0.1-1.5,0.4-2.1c0.3-0.7,0.7-1.2,1.1-1.7c0.5-0.5,1.1-0.9,1.7-1.1
			C117.2,24.8,117.9,24.6,118.7,24.6z M118.7,26.2c-0.5,0-1,0.1-1.5,0.3s-0.9,0.5-1.2,0.8c-0.3,0.3-0.6,0.7-0.8,1.2s-0.3,1-0.3,1.5
			s0.1,1.1,0.3,1.5c0.2,0.5,0.5,0.9,0.8,1.2s0.7,0.6,1.2,0.8s1,0.3,1.5,0.3s1-0.1,1.5-0.3s0.9-0.5,1.2-0.8c0.3-0.3,0.6-0.7,0.8-1.2
			s0.3-1,0.3-1.5s-0.1-1.1-0.3-1.5c-0.2-0.5-0.5-0.9-0.8-1.2c-0.3-0.3-0.7-0.6-1.2-0.8C119.7,26.3,119.2,26.2,118.7,26.2z"/>
		<path d="M136.5,30.9c0,0.8-0.1,1.4-0.4,2c-0.3,0.6-0.6,1-1,1.4s-0.9,0.7-1.5,0.8c-0.6,0.2-1.2,0.3-1.8,0.3s-1.2-0.1-1.8-0.3
			s-1.1-0.5-1.5-0.8c-0.4-0.4-0.8-0.8-1-1.4c-0.3-0.6-0.4-1.2-0.4-2v-6h1.6v5.9c0,0.5,0.1,1,0.2,1.4c0.2,0.4,0.4,0.7,0.6,1
			c0.3,0.3,0.6,0.5,1,0.6s0.8,0.2,1.2,0.2s0.9-0.1,1.2-0.2c0.4-0.1,0.7-0.3,1-0.6s0.5-0.6,0.6-1c0.2-0.4,0.2-0.9,0.2-1.4v-5.9h1.6
			L136.5,30.9L136.5,30.9z"/>
		<path d="M144.9,24.6c0.4,0,0.7,0,1,0.1s0.6,0.1,0.9,0.3l-0.4,1.6c-0.3-0.1-0.5-0.2-0.9-0.3c-0.3-0.1-0.6-0.1-0.9-0.1
			c-0.4,0-0.8,0.1-1.1,0.2c-0.3,0.2-0.6,0.4-0.9,0.6c-0.2,0.3-0.4,0.6-0.6,1c-0.1,0.4-0.2,0.8-0.2,1.3v5.8h-1.6V24.8h1.6v1.5
			c0.4-0.5,0.8-0.9,1.3-1.2C143.6,24.8,144.2,24.6,144.9,24.6z"/>
		<path d="M161.8,27c-0.2-0.1-0.4-0.2-0.6-0.3c-0.2-0.1-0.5-0.2-0.8-0.3c-0.3-0.1-0.6-0.2-0.9-0.2c-0.3-0.1-0.7-0.1-1-0.1
			c-0.4,0-0.7,0-1,0.1s-0.6,0.2-0.8,0.3s-0.4,0.3-0.5,0.5s-0.2,0.4-0.2,0.7c0,0.4,0.2,0.8,0.5,1c0.4,0.2,0.9,0.4,1.6,0.5l1.2,0.2
			c1.1,0.1,2,0.4,2.6,0.9s0.9,1.1,0.9,2c0,0.5-0.1,0.9-0.3,1.3c-0.2,0.4-0.5,0.7-0.9,1s-0.9,0.5-1.4,0.6c-0.6,0.1-1.2,0.2-1.9,0.2
			c-0.3,0-0.7,0-1.1-0.1c-0.4,0-0.7-0.1-1.1-0.2c-0.4-0.1-0.7-0.2-1.1-0.4c-0.4-0.2-0.7-0.4-1-0.6l0.8-1.2c0.2,0.2,0.4,0.3,0.6,0.4
			c0.2,0.1,0.5,0.3,0.8,0.4c0.3,0.1,0.6,0.2,1,0.2c0.4,0.1,0.7,0.1,1.2,0.1c0.9,0,1.6-0.1,2.1-0.4c0.5-0.3,0.8-0.7,0.8-1.2
			c0-0.4-0.2-0.7-0.5-1c-0.4-0.2-0.9-0.4-1.6-0.5l-1.2-0.1c-1.2-0.1-2-0.5-2.6-1s-0.8-1.1-0.8-1.9c0-0.5,0.1-0.9,0.3-1.3
			s0.5-0.7,0.8-1c0.4-0.3,0.8-0.5,1.3-0.6s1.1-0.2,1.7-0.2c0.8,0,1.6,0.1,2.3,0.3c0.7,0.2,1.3,0.5,1.8,0.8L161.8,27z"/>
		<path d="M172.7,26.3h-4.5v5.2c0,0.4,0,0.7,0.2,1s0.2,0.5,0.4,0.7s0.4,0.3,0.7,0.4c0.2,0.1,0.5,0.1,0.8,0.1c0.4,0,0.8-0.1,1.2-0.2
			c0.4-0.1,0.7-0.3,1-0.5l0.8,1.2c-0.4,0.3-0.8,0.5-1.4,0.7c-0.5,0.2-1.1,0.3-1.7,0.3c-1.1,0-2-0.3-2.6-0.9s-0.9-1.6-0.9-2.9v-5.3
			h-2.3v-1.5h2.3v-3.3h1.6v3.3h4.5L172.7,26.3L172.7,26.3z"/>
		<path d="M180.2,24.6c0.8,0,1.5,0.1,2.2,0.4s1.2,0.7,1.7,1.1c0.5,0.5,0.9,1,1.1,1.7c0.3,0.7,0.4,1.4,0.4,2.1s-0.1,1.5-0.4,2.1
			c-0.3,0.7-0.7,1.2-1.1,1.7c-0.5,0.5-1.1,0.9-1.7,1.1c-0.7,0.3-1.4,0.4-2.2,0.4s-1.5-0.1-2.2-0.4s-1.2-0.6-1.7-1.1s-0.9-1-1.1-1.7
			c-0.3-0.7-0.4-1.4-0.4-2.1s0.1-1.5,0.4-2.1c0.3-0.7,0.7-1.2,1.1-1.7c0.5-0.5,1.1-0.9,1.7-1.1S179.4,24.6,180.2,24.6z M180.2,26.2
			c-0.5,0-1,0.1-1.5,0.3c-0.5,0.2-0.9,0.5-1.2,0.8s-0.6,0.7-0.8,1.2s-0.3,1-0.3,1.5s0.1,1.1,0.3,1.5c0.2,0.5,0.5,0.9,0.8,1.2
			s0.7,0.6,1.2,0.8s1,0.3,1.5,0.3s1-0.1,1.5-0.3s0.9-0.5,1.2-0.8s0.6-0.7,0.8-1.2s0.3-1,0.3-1.5s-0.1-1.1-0.3-1.5
			c-0.2-0.5-0.5-0.9-0.8-1.2c-0.3-0.3-0.7-0.6-1.2-0.8C181.2,26.3,180.7,26.2,180.2,26.2z"/>
		<path d="M193.4,24.6c0.4,0,0.7,0,1,0.1s0.6,0.1,0.9,0.3l-0.4,1.6c-0.3-0.1-0.5-0.2-0.9-0.3c-0.3-0.1-0.6-0.1-0.9-0.1
			c-0.4,0-0.8,0.1-1.1,0.2c-0.3,0.2-0.6,0.4-0.9,0.6c-0.2,0.3-0.4,0.6-0.6,1c-0.1,0.4-0.2,0.8-0.2,1.3v5.8h-1.6V24.8h1.6v1.5
			c0.4-0.5,0.8-0.9,1.3-1.2C192.1,24.8,192.7,24.6,193.4,24.6z"/>
		<path d="M199.3,39.6h-1.8l3.9-6.7l-4.8-8.1h1.8l3.9,6.5l3.7-6.5h1.8L199.3,39.6z"/>
		<path d="M210.3,32.5l-1.2,5.5h-1.4l0.7-5.5H210.3z"/>
	</g>
	<g class="st0">
		<path d="M113.1,58.4l3.1-8.7h1.7l-3.8,10.4h-1.9l-3.1-8.6l-3.1,8.6h-2l-3.8-10.4h1.7l3.1,8.7l3.1-8.7h1.8L113.1,58.4z"/>
		<path d="M124.9,49.5c0.8,0,1.5,0.1,2.2,0.4c0.7,0.3,1.2,0.7,1.7,1.1c0.5,0.5,0.9,1,1.1,1.7c0.3,0.7,0.4,1.4,0.4,2.1
			c0,0.8-0.1,1.5-0.4,2.1c-0.3,0.7-0.7,1.2-1.1,1.7c-0.5,0.5-1.1,0.9-1.7,1.1c-0.7,0.3-1.4,0.4-2.2,0.4s-1.5-0.1-2.2-0.4
			s-1.2-0.6-1.7-1.1s-0.9-1-1.1-1.7c-0.3-0.7-0.4-1.4-0.4-2.1c0-0.8,0.1-1.5,0.4-2.1c0.3-0.7,0.7-1.2,1.1-1.7
			c0.5-0.5,1.1-0.9,1.7-1.1C123.4,49.6,124.1,49.5,124.9,49.5z M124.9,51c-0.5,0-1,0.1-1.5,0.3s-0.9,0.5-1.2,0.8
			c-0.3,0.3-0.6,0.7-0.8,1.2c-0.2,0.5-0.3,1-0.3,1.5s0.1,1.1,0.3,1.5c0.2,0.5,0.5,0.9,0.8,1.2s0.7,0.6,1.2,0.8s1,0.3,1.5,0.3
			s1-0.1,1.5-0.3s0.9-0.5,1.2-0.8c0.3-0.3,0.6-0.7,0.8-1.2s0.3-1,0.3-1.5s-0.1-1.1-0.3-1.5c-0.2-0.5-0.5-0.9-0.8-1.2
			s-0.7-0.6-1.2-0.8C126,51.1,125.5,51,124.9,51z"/>
		<path d="M138.5,49.5c0.6,0,1.2,0.1,1.8,0.3c0.5,0.2,1,0.5,1.4,0.8s0.7,0.8,0.9,1.3s0.3,1.1,0.3,1.7V60h-1.6v-5.9
			c0-1-0.3-1.8-0.8-2.3s-1.3-0.8-2.2-0.8c-0.4,0-0.8,0.1-1.2,0.2c-0.4,0.1-0.7,0.4-1,0.6c-0.3,0.3-0.5,0.6-0.7,1s-0.3,0.8-0.3,1.3
			v5.8h-1.6V49.7h1.6v1.5c0.2-0.3,0.5-0.6,0.7-0.8c0.3-0.2,0.6-0.4,0.9-0.5c0.3-0.1,0.6-0.2,0.9-0.3
			C137.9,49.5,138.2,49.5,138.5,49.5z"/>
		<path d="M150.9,49.5c0.9,0,1.6,0.2,2.2,0.5c0.6,0.3,1.1,0.7,1.6,1.3v-6.9h1.6v15.8h-1.6v-1.5c-0.4,0.5-0.9,1-1.6,1.3
			c-0.6,0.3-1.4,0.5-2.2,0.5c-0.7,0-1.4-0.1-2-0.4c-0.6-0.3-1.2-0.6-1.6-1.1c-0.5-0.5-0.8-1-1.1-1.7s-0.4-1.4-0.4-2.2
			s0.1-1.5,0.4-2.2c0.3-0.7,0.6-1.2,1.1-1.7s1-0.9,1.6-1.1C149.5,49.6,150.2,49.5,150.9,49.5z M151.1,51c-0.6,0-1.1,0.1-1.5,0.3
			c-0.5,0.2-0.8,0.5-1.2,0.8c-0.3,0.3-0.6,0.8-0.8,1.2c-0.2,0.5-0.3,1-0.3,1.5s0.1,1,0.3,1.5s0.4,0.9,0.8,1.2
			c0.3,0.3,0.7,0.6,1.2,0.8s1,0.3,1.5,0.3s1-0.1,1.5-0.3s0.8-0.5,1.2-0.8c0.3-0.3,0.6-0.8,0.8-1.2c0.2-0.5,0.3-1,0.3-1.5
			s-0.1-1.1-0.3-1.5c-0.2-0.5-0.4-0.9-0.8-1.2c-0.3-0.3-0.7-0.6-1.2-0.8C152.2,51.1,151.7,51,151.1,51z"/>
		<path d="M164.5,49.5c0.7,0,1.3,0.1,1.9,0.4c0.6,0.3,1.1,0.6,1.5,1.1s0.8,1,1,1.7s0.4,1.4,0.4,2.2c0,0.2,0,0.4,0,0.6H161
			c0.1,0.6,0.2,1,0.4,1.5c0.2,0.4,0.5,0.8,0.8,1.1s0.7,0.5,1.1,0.6c0.4,0.1,0.9,0.2,1.3,0.2c0.6,0,1.2-0.1,1.8-0.3s1-0.5,1.5-1
			l0.9,1.1c-0.6,0.6-1.3,1-2,1.3c-0.7,0.2-1.5,0.3-2.2,0.3c-0.8,0-1.5-0.1-2.1-0.4c-0.6-0.3-1.2-0.6-1.7-1.1s-0.8-1-1.1-1.7
			s-0.4-1.4-0.4-2.2s0.1-1.5,0.4-2.2c0.3-0.7,0.6-1.2,1.1-1.7s1-0.8,1.6-1.1C163.1,49.6,163.8,49.5,164.5,49.5z M164.5,51
			c-0.5,0-0.9,0.1-1.3,0.2c-0.4,0.2-0.7,0.4-1,0.7s-0.5,0.6-0.7,1s-0.3,0.8-0.4,1.3h6.6c0-0.5-0.2-0.9-0.3-1.3
			c-0.2-0.4-0.4-0.7-0.7-1s-0.6-0.5-1-0.6C165.3,51,164.9,51,164.5,51z"/>
		<path d="M177.1,49.5c0.4,0,0.7,0,1,0.1s0.6,0.1,0.9,0.3l-0.4,1.6c-0.3-0.1-0.5-0.2-0.9-0.3c-0.3-0.1-0.6-0.1-0.9-0.1
			c-0.4,0-0.8,0.1-1.1,0.2c-0.3,0.2-0.6,0.4-0.9,0.6c-0.2,0.3-0.4,0.6-0.6,1c-0.1,0.4-0.2,0.8-0.2,1.3V60h-1.6V49.7h1.6v1.5
			c0.4-0.5,0.8-0.9,1.3-1.2C175.9,49.6,176.5,49.5,177.1,49.5z"/>
		<path d="M188.5,51.2h-4.1v8.9h-1.6v-8.9h-2.4v-1.5h2.4v-1.8c0-0.6,0.1-1.1,0.2-1.5c0.1-0.5,0.3-0.9,0.6-1.2s0.6-0.6,1.1-0.8
			c0.4-0.2,1-0.3,1.6-0.3s1.1,0.1,1.6,0.2c0.5,0.1,0.9,0.3,1.3,0.6l-0.6,1.4c-0.3-0.2-0.6-0.3-1-0.4c-0.4-0.1-0.8-0.2-1.2-0.2
			c-0.7,0-1.2,0.2-1.5,0.6c-0.3,0.4-0.5,1-0.5,1.7v1.8h4.1L188.5,51.2L188.5,51.2z"/>
		<path d="M200.3,55.7c0,0.8-0.1,1.4-0.4,2s-0.6,1-1,1.4s-0.9,0.7-1.5,0.8c-0.6,0.2-1.2,0.3-1.8,0.3s-1.2-0.1-1.8-0.3
			s-1.1-0.5-1.5-0.8s-0.8-0.8-1-1.4s-0.4-1.2-0.4-2v-6h1.6v5.9c0,0.5,0.1,1,0.2,1.4c0.2,0.4,0.4,0.7,0.6,1c0.3,0.3,0.6,0.5,1,0.6
			s0.8,0.2,1.2,0.2s0.9-0.1,1.2-0.2c0.4-0.1,0.7-0.3,1-0.6s0.5-0.6,0.6-1c0.2-0.4,0.2-0.9,0.2-1.4v-5.9h1.6L200.3,55.7L200.3,55.7z"
			/>
		<path d="M205.6,60.1H204V44.3h1.6V60.1z"/>
		<path d="M211.1,60.1h-1.6V44.3h1.6V60.1z"/>
		<path d="M216,64.5h-1.8l3.9-6.7l-4.8-8.1h1.8l3.9,6.5l3.7-6.5h1.8L216,64.5z"/>
		<path d="M236.4,49.5c0.8,0,1.5,0.1,2.2,0.4c0.7,0.3,1.2,0.7,1.7,1.2l-1,1.1c-0.4-0.4-0.8-0.7-1.3-0.9s-1-0.3-1.5-0.3
			s-1,0.1-1.4,0.3s-0.8,0.5-1.2,0.8s-0.6,0.7-0.8,1.2s-0.3,1-0.3,1.5s0.1,1.1,0.3,1.5c0.2,0.5,0.4,0.9,0.8,1.2
			c0.3,0.3,0.7,0.6,1.2,0.8c0.4,0.2,0.9,0.3,1.4,0.3c0.6,0,1.1-0.1,1.6-0.3s0.9-0.5,1.3-0.9l1,1.1c-0.5,0.5-1,0.9-1.7,1.2
			s-1.4,0.4-2.1,0.4c-0.8,0-1.5-0.1-2.2-0.4c-0.7-0.3-1.2-0.6-1.7-1.1s-0.8-1-1.1-1.7s-0.4-1.4-0.4-2.1c0-0.8,0.1-1.5,0.4-2.1
			c0.3-0.7,0.6-1.2,1.1-1.7s1-0.9,1.7-1.1C234.8,49.6,235.6,49.5,236.4,49.5z"/>
		<path d="M247.7,49.5c0.4,0,0.7,0,1,0.1s0.6,0.1,0.9,0.3l-0.4,1.6c-0.3-0.1-0.5-0.2-0.9-0.3c-0.3-0.1-0.6-0.1-0.9-0.1
			c-0.4,0-0.8,0.1-1.1,0.2c-0.3,0.2-0.6,0.4-0.9,0.6c-0.2,0.3-0.4,0.6-0.6,1c-0.1,0.4-0.2,0.8-0.2,1.3V60H243V49.7h1.6v1.5
			c0.4-0.5,0.8-0.9,1.3-1.2C246.5,49.6,247,49.5,247.7,49.5z"/>
		<path d="M261.4,60.1h-1.6v-1.5c-0.4,0.5-0.9,1-1.6,1.3c-0.6,0.3-1.4,0.5-2.2,0.5c-0.7,0-1.4-0.1-2-0.4c-0.6-0.3-1.2-0.6-1.6-1.1
			c-0.5-0.5-0.8-1-1.1-1.7s-0.4-1.4-0.4-2.2s0.1-1.5,0.4-2.2c0.3-0.7,0.6-1.2,1.1-1.7s1-0.9,1.6-1.1c0.6-0.3,1.3-0.4,2-0.4
			c0.9,0,1.6,0.2,2.2,0.5s1.1,0.7,1.6,1.3v-1.5h1.6V60.1z M256.2,51c-0.6,0-1.1,0.1-1.5,0.3c-0.5,0.2-0.8,0.5-1.2,0.8
			c-0.3,0.3-0.6,0.8-0.8,1.2c-0.2,0.5-0.3,1-0.3,1.5s0.1,1,0.3,1.5s0.4,0.9,0.8,1.2s0.7,0.6,1.2,0.8s1,0.3,1.5,0.3s1-0.1,1.5-0.3
			s0.8-0.5,1.2-0.8c0.3-0.3,0.6-0.8,0.8-1.2c0.2-0.5,0.3-1,0.3-1.5s-0.1-1.1-0.3-1.5c-0.2-0.5-0.4-0.9-0.8-1.2
			c-0.3-0.3-0.7-0.6-1.2-0.8C257.3,51.1,256.8,51,256.2,51z"/>
		<path d="M272,51.2h-4.1v8.9h-1.6v-8.9h-2.4v-1.5h2.4v-1.8c0-0.6,0.1-1.1,0.2-1.5c0.1-0.5,0.3-0.9,0.6-1.2c0.3-0.3,0.6-0.6,1.1-0.8
			c0.4-0.2,1-0.3,1.6-0.3s1.1,0.1,1.6,0.2s0.9,0.3,1.3,0.6l-0.6,1.4c-0.3-0.2-0.6-0.3-1-0.4c-0.4-0.1-0.8-0.2-1.2-0.2
			c-0.7,0-1.2,0.2-1.5,0.6c-0.3,0.4-0.5,1-0.5,1.7v1.8h4.1V51.2L272,51.2z"/>
		<path d="M281.5,51.2H277v5.2c0,0.4,0,0.7,0.2,1s0.2,0.5,0.4,0.7c0.2,0.2,0.4,0.3,0.7,0.4c0.2,0.1,0.5,0.1,0.8,0.1
			c0.4,0,0.8-0.1,1.2-0.2c0.4-0.1,0.7-0.3,1-0.5l0.8,1.2c-0.4,0.3-0.8,0.5-1.4,0.7c-0.5,0.2-1.1,0.3-1.7,0.3c-1.1,0-2-0.3-2.6-0.9
			c-0.6-0.6-0.9-1.6-0.9-2.9V51h-2.3v-1.5h2.3v-3.3h1.6v3.3h4.5L281.5,51.2L281.5,51.2z"/>
		<path d="M288.6,49.5c0.7,0,1.3,0.1,1.9,0.4c0.6,0.3,1.1,0.6,1.5,1.1s0.8,1,1,1.7s0.4,1.4,0.4,2.2c0,0.2,0,0.4,0,0.6h-8.3
			c0.1,0.6,0.2,1,0.4,1.5c0.2,0.4,0.5,0.8,0.8,1.1s0.7,0.5,1.1,0.6s0.9,0.2,1.3,0.2c0.6,0,1.2-0.1,1.8-0.3s1-0.5,1.5-1l0.9,1.1
			c-0.6,0.6-1.3,1-2,1.3c-0.7,0.2-1.5,0.3-2.2,0.3c-0.8,0-1.5-0.1-2.1-0.4c-0.6-0.3-1.2-0.6-1.7-1.1s-0.8-1-1.1-1.7
			c-0.3-0.7-0.4-1.4-0.4-2.2s0.1-1.5,0.4-2.2s0.6-1.2,1.1-1.7s1-0.8,1.6-1.1C287.2,49.6,287.9,49.5,288.6,49.5z M288.6,51
			c-0.5,0-0.9,0.1-1.3,0.2c-0.4,0.2-0.7,0.4-1,0.7s-0.5,0.6-0.7,1s-0.3,0.8-0.4,1.3h6.6c0-0.5-0.2-0.9-0.3-1.3
			c-0.2-0.4-0.4-0.7-0.7-1c-0.3-0.3-0.6-0.5-1-0.6C289.5,51,289.1,51,288.6,51z"/>
		<path d="M300.9,49.5c0.9,0,1.6,0.2,2.2,0.5s1.1,0.7,1.6,1.3v-6.9h1.6v15.8h-1.6v-1.5c-0.4,0.5-0.9,1-1.6,1.3
			c-0.6,0.3-1.4,0.5-2.2,0.5c-0.7,0-1.4-0.1-2-0.4c-0.6-0.3-1.2-0.6-1.6-1.1c-0.5-0.5-0.8-1-1.1-1.7c-0.3-0.7-0.4-1.4-0.4-2.2
			s0.1-1.5,0.4-2.2s0.6-1.2,1.1-1.7s1-0.9,1.6-1.1C299.5,49.6,300.2,49.5,300.9,49.5z M301.1,51c-0.6,0-1.1,0.1-1.5,0.3
			c-0.5,0.2-0.8,0.5-1.2,0.8c-0.3,0.3-0.6,0.8-0.8,1.2c-0.2,0.5-0.3,1-0.3,1.5s0.1,1,0.3,1.5c0.2,0.5,0.4,0.9,0.8,1.2
			c0.3,0.3,0.7,0.6,1.2,0.8s1,0.3,1.5,0.3s1-0.1,1.5-0.3s0.8-0.5,1.2-0.8c0.3-0.3,0.6-0.8,0.8-1.2c0.2-0.5,0.3-1,0.3-1.5
			s-0.1-1.1-0.3-1.5c-0.2-0.5-0.4-0.9-0.8-1.2c-0.3-0.3-0.7-0.6-1.2-0.8C302.2,51.1,301.7,51,301.1,51z"/>
	</g>
</g>
<title>header-logo</title>
<polygon points="52.2,46.1 52.2,48.9 45.1,48.9 34.7,40.3 34.6,40.1 34.7,41.3 34.7,48.9 27.6,48.9 27.6,31.5 34.7,31.5 45.1,40.1 
	45.2,40.3 45.1,39.1 45.1,31.5 52.2,31.5 "/>
</svg>
