<svg xmlns="http://www.w3.org/2000/svg" viewBox="0 0 311 311"><defs><style>.cls-1{fill:none;stroke:#102ef1;stroke-miterlimit:10;opacity:0;}</style></defs><title>_LogoCliente_NIKE</title><g id="Layer_2" data-name="Layer 2"><g id="LOGO_CLIENTE" data-name="LOGO CLIENTE"><circle id="Bounding" class="cls-1" cx="155.5" cy="155.5" r="155"/><path d="M79.12,190.4q-8.76-.35-14.35-4.8a29,29,0,0,1-3-3,18.83,18.83,0,0,1-3.23-5.82c-2.11-6.33-1-14.64,3.11-23.76,3.55-7.81,9-15.55,18.55-26.27,1.41-1.58,5.59-6.2,5.62-6.2s-.22.4-.51.88a56,56,0,0,0-5.75,13.28c-1.86,6.8-1.64,12.63.65,17.16a16.79,16.79,0,0,0,7.33,7.3c5.33,2.61,13.13,2.83,22.66.63.66-.15,33.16-8.78,72.24-19.17s71.05-18.9,71.05-18.89-90.78,38.86-137.91,59c-7.46,3.2-9.46,4-13,5.23C93.65,189.15,85.62,190.66,79.12,190.4Z"/></g></g></svg>