<svg xmlns="http://www.w3.org/2000/svg" viewBox="0 0 310 310"><defs><style>.cls-1{fill:none;}</style></defs><title>_LogoCliente_Fila</title><g id="Layer_2" data-name="Layer 2"><g id="LOGO_CLIENTE" data-name="LOGO CLIENTE"><circle id="Bounding" class="cls-1" cx="155" cy="155" r="155"/><path d="M129.91,172V138.2a6.06,6.06,0,0,1,6-6.16h.66a6.16,6.16,0,0,1,6.16,6.16V172a6.15,6.15,0,0,1-6.16,6.15h-.7A6,6,0,0,1,129.91,172Z"/><path d="M207.72,136l13.67,22.25c3,4.81,3.64,6.06,3.64,9.6a10.16,10.16,0,0,1-9.55,9.87H197a5.77,5.77,0,0,1-6.09-5.7v-.39a6.09,6.09,0,0,1,6.09-6.08h11.32c.71,0,1.15-.1,1.34-.54a1.22,1.22,0,0,0-.18-1.32l-8.07-12.94c-.12-.21-.28-.51-.53-.51s-.43.3-.55.53L188,172c-1.92,3.36-4.17,5.81-7.54,5.81H156.8c-4.48,0-9-4.43-9-9V138.17a6.09,6.09,0,0,1,6.08-6.09h.78a6.09,6.09,0,0,1,6.09,6.09v25a1.6,1.6,0,0,0,1.65,1.65h11.77a4.57,4.57,0,0,0,4.39-2.54L194.39,136a7.66,7.66,0,0,1,6.77-3.84A7.34,7.34,0,0,1,207.72,136Z"/><path d="M99.57,161.92a1.66,1.66,0,0,0-1.65,1.66v8.51a6.09,6.09,0,0,1-6.09,6.09h-.78A6.09,6.09,0,0,1,85,172.09V156.61a7.15,7.15,0,0,1,7.25-7.24h24.72a6.09,6.09,0,0,1,6.09,6.08v.39a6.09,6.09,0,0,1-6.09,6.08Z"/><path d="M91.13,132.92h28.8a6.06,6.06,0,0,1,6.15,6v.38a6.15,6.15,0,0,1-6.15,6.16H91.13A6.16,6.16,0,0,1,85,139.34v-.42A6,6,0,0,1,91.13,132.92Z"/></g></g></svg>