<svg xmlns="http://www.w3.org/2000/svg" viewBox="0 0 310 310"><defs><style>.cls-1{fill:none;}</style></defs><title>_LogoCliente_Suburra</title><g id="Layer_2" data-name="Layer 2"><g id="LOGO_CLIENTE" data-name="LOGO CLIENTE"><circle id="Bounding" class="cls-1" cx="155" cy="155" r="155"/><path id="S" d="M45.73,184.76V164.33q5.31,0,8.53-5.09v17h10.6V158.72L45.73,137.46V110.27H73.39V130.7q-5.31,0-8.53,5.15v-17H54.26v15.38l19.13,21.26v29.32Z"/><path id="U" d="M105.2,110.27v74.49H77.55V110.27h8.52v66H96.68v-66Z"/><path id="B" d="M109.36,110.27H137v21.32a14.27,14.27,0,0,1-4.47,10.6A14.45,14.45,0,0,1,137,152.85v31.91H109.36ZM117.89,138h4.26a6.1,6.1,0,0,0,4.47-1.87,6.16,6.16,0,0,0,1.87-4.52V118.8h-10.6Zm0,38.26h10.6V152.85a6.38,6.38,0,0,0-6.34-6.4h-4.26Z"/><path id="U-2" data-name="U" d="M168.83,110.27v74.49H141.17V110.27h8.53v66h10.6v-66Z"/><path id="R" d="M181.51,184.76H173V110.27h27.65V138a12.23,12.23,0,0,1-3.28,8.47,12.33,12.33,0,0,1,3.28,8.53v29.78h-8.53V155a4.11,4.11,0,0,0-1.24-3,4.06,4.06,0,0,0-3-1.25h-6.39Zm0-42.57h6.39a4.25,4.25,0,0,0,4.21-4.21V118.8h-10.6Z"/><path id="R-2" data-name="R" d="M213.32,184.76H204.8V110.27h27.65V138a12.27,12.27,0,0,1-3.27,8.47,12.36,12.36,0,0,1,3.27,8.53v29.78h-8.52V155a4.12,4.12,0,0,0-1.25-3,4.05,4.05,0,0,0-3-1.25h-6.4Zm0-42.57h6.4a4.27,4.27,0,0,0,4.21-4.21V118.8H213.32Z"/><path id="A" d="M264.27,110.27v74.49h-8.53V157.11h-10.6v27.65h-8.53V110.27Zm-19.13,38.31h10.6V118.8h-10.6Z"/><path id="T" d="M98.78,220.25h8.32v1h-3.26v5.66h-1.76v-5.66h-3.3Z"/><path id="H" d="M119.89,224.08h-4.83v2.84h-1.75v-6.67h1.75v2.83h4.83v-2.83h1.75v6.67h-1.75Z"/><path id="E" d="M129,220.25h7.33v1h-5.57v1.81h4.83v1h-4.83v1.84h5.64v1H129Z"/><path id="G" d="M158.35,222.58c-.15-.88-.92-1.38-2.52-1.38-2,0-2.83,1.06-2.82,2.4s.81,2.39,2.91,2.38c1.36,0,2.6-.34,2.6-1.45h-2.89v-1h4.59v1.07c0,1.37-1.36,2.37-4.3,2.38-4.24,0-4.66-2.31-4.66-3.37s.38-3.39,4.57-3.41c3,0,4.1,1.26,4.29,2.29Z"/><path id="A-2" data-name="A" d="M172.24,225.48H168.1l-.79,1.44h-1.95l3.92-6.67h1.79l3.91,6.67H173Zm-3.59-1h3l-1.1-2-.43-.85-.42.85Z"/><path id="M" d="M192,226.92h-1.76v-4.56l-.83,1.23L187,226.92h-.85l-2.44-3.32-.84-1.24v4.56h-1.75v-6.67h2l2.54,3.34,1,1.34.93-1.36,2.38-3.32H192Z"/><path id="E-2" data-name="E" d="M199.29,220.25h7.33v1h-5.57v1.81h4.84v1h-4.84v1.84h5.64v1h-7.4Z"/></g></g></svg>