<svg id="Layer_1" data-name="Layer 1" xmlns="http://www.w3.org/2000/svg" viewBox="0 0 600 600"><defs><style>.cls-1{fill:#1b0a0c;}</style></defs><path class="cls-1" d="M164.81,526.41l-.67,1.27a19.2,19.2,0,0,1-9.6,2.3,16,16,0,0,1-9.64-2.73,25.51,25.51,0,0,1-6.05-7.35H115.52l-3.5,9H92.4l26.14-59.61h17.19l18.3,39c2.17,4.65,3.68,5.58,5.2,5.58a3.57,3.57,0,0,0,2.06-.64l1.13.64ZM120.25,508h13.4l-6.5-17.7Z"/><path class="cls-1" d="M219.94,502.11v26.77H201.42V503.4c0-3.57-2-6.34-6.12-6.34s-6.13,2.77-6.13,6.34v25.48h-18.5V500.54c0-1.92-.77-2.93-2.08-2.93a2,2,0,0,0-1.33.46l-1.13-.65-2-11.92.67-1.29a18.66,18.66,0,0,1,9.05-2.28c4.35,0,8.22,1.56,10.59,4.86a25.17,25.17,0,0,1,15.09-4.86C211.54,481.93,219.94,489.71,219.94,502.11Z"/><path class="cls-1" d="M266.67,524.76l-.47,1.29A23.14,23.14,0,0,1,253,530c-9.73,0-19.55-5.69-19.55-19V495.85h-8.32V483h8.32V470.16l16.9-2,1.41.85v14h13.42v12.86H251.75v12.94c0,4.2,2.17,6.06,4.73,6.06a7.63,7.63,0,0,0,4.15-1.46l1.13.64Z"/><path class="cls-1" d="M287.24,510.18c.78,5,5.58,7.16,11,7.16a16.41,16.41,0,0,0,11.34-4.12h1.34l7.71,7.42v1.29C313.05,528,304.44,530,297.08,530c-14.63,0-27.58-8.07-27.58-23.94,0-14.14,10.3-24.13,26.06-24.13,15.4,0,25.69,9.61,25.69,24.13a19.8,19.8,0,0,1-.37,4.12H287.24Zm-.07-8.26h16.44c-.09-4.76-3.4-8-8.23-8S287.24,497.14,287.17,501.92Z"/><path class="cls-1" d="M380.16,502.11v26.77H361.67V503.4c0-3.57-2-6.34-6.15-6.34s-6.15,2.77-6.15,6.34v25.48H330.9V500.54c0-1.92-.79-2.93-2.1-2.93a2,2,0,0,0-1.33.46l-1.12-.65-2-11.92.65-1.29a18.7,18.7,0,0,1,9.09-2.28c4.33,0,8.2,1.56,10.57,4.86a25.12,25.12,0,0,1,15.09-4.86C371.74,481.93,380.16,489.71,380.16,502.11Z"/><path class="cls-1" d="M440.94,526.41l-.64,1.27a17.52,17.52,0,0,1-8.76,2.3c-4.37,0-8.24-1.56-10.69-4.8a25.4,25.4,0,0,1-15.2,4.8c-10.74,0-19.64-5.77-19.64-15,0-9.74,9.85-14.41,21.45-14.41a32.47,32.47,0,0,1,9.06,1.19v-1.46c0-3.49-3-6.15-8.11-6.15a15,15,0,0,0-9.85,3.68h-1.27l-7.68-7.36v-1.26c4.92-4.31,12-7.25,21-7.25,11.6,0,23.9,5.07,23.9,17.9v11.58c0,1.9.72,2.91,2,2.91a2.16,2.16,0,0,0,1.35-.44l1.14.63ZM416.52,514v-2.86a17.93,17.93,0,0,0-5.88-1.1c-4.41,0-6.5,2-6.5,4.7,0,2.93,2.72,4.66,5.86,4.66C414.05,519.43,416.52,516.41,416.52,514Z"/><path class="cls-1" d="M507.6,511.83C507.6,523.2,497,530,482,530c-9.36,0-20-3.78-24.93-10.35v-1.29l8.7-8.71h1.31c2.37,2.66,7.73,6.61,13.7,6.61,4.71,0,7.83-2.13,7.83-5.51,0-4.4-4-6.23-10-6.23H472V492.56h8c4.45,0,7.45-2.31,7.45-5.52,0-4.12-3.76-5.13-7.45-5.13a19.21,19.21,0,0,0-11.21,3.84h-1.35l-7.06-9.17v-1.29c6.12-4.86,13.6-7.14,22.37-7.14,12.44,0,22.94,5.33,22.94,17.43,0,4.84-2.93,9.18-7.18,12.2C504.1,500.54,507.6,505.21,507.6,511.83Z"/><path class="cls-1" d="M182.31,263.77c29.86-49.58,57.89-100.26,91-147.84,6.6-9.5,13.52-18.84,18.75-29.2,3.08-6.09,2.31-10.81-1.93-13.94s-9.71-3-13.35-2.62c-91.23,7.34-182,68.36-182.88,156.17.23,32.06,18.16,70.89,32.78,81.12,11,7.69,20.72,6.66,31.65-6.65C167.7,289.39,174.71,276.36,182.31,263.77Z"/><path class="cls-1" d="M441.7,300.81c10.91,13.31,20.67,14.34,31.64,6.65,14.62-10.24,32.55-49.06,32.76-81.12-.84-87.81-91.67-148.83-182.88-156.17-3.64-.34-9.16-.45-13.34,2.62s-5,7.85-1.94,13.94c5.24,10.36,12.16,19.7,18.75,29.2,33.13,47.58,61.13,98.26,91,147.84C425.27,276.36,432.28,289.39,441.7,300.81Z"/><path class="cls-1" d="M317.14,226A126.31,126.31,0,0,0,300,224.51h0A127.55,127.55,0,0,0,282.87,226c-50.13,7.51-85,35.73-106.53,80.63-11,22.94-6.11,38.72,13.76,54.38l3.52,2.73c3.65,2.43,7.27,4.79,10.77,7.1,52,33.91,71,45.95,78.65,49.48a40.05,40.05,0,0,0,16.53,4.38v0l.41,0,.42,0v0a40,40,0,0,0,16.53-4.38c7.66-3.53,26.69-15.57,78.67-49.5,3.5-2.29,7.12-4.67,10.78-7.15,1.19-.86,2.33-1.75,3.48-2.66,19.87-15.66,24.77-31.44,13.76-54.38C402.11,261.68,367.26,233.46,317.14,226Z"/></svg>