<?xml version="1.0" encoding="utf-8"?>
<!-- Generator: Adobe Illustrator 25.2.1, SVG Export Plug-In . SVG Version: 6.00 Build 0)  -->
<svg version="1.1" id="Layer_1" xmlns="http://www.w3.org/2000/svg" xmlns:xlink="http://www.w3.org/1999/xlink" x="0px" y="0px"
	 viewBox="0 0 600 600" style="enable-background:new 0 0 600 600;" xml:space="preserve">
<style type="text/css">
	.st0{fill:#1B0A0C;}
</style>
<g>
	<path class="st0" d="M225.2,425.3l-0.4,0.7c-1.6,0.9-3.5,1.3-5.3,1.3c-1.9,0.1-3.8-0.4-5.3-1.5c-1.4-1.1-2.5-2.5-3.3-4.1h-12.9
		l-1.9,5h-10.9l14.5-33h9.5l10.1,21.6c1.2,2.6,2,3.1,2.9,3.1c0.4,0,0.8-0.1,1.1-0.4l0.6,0.4L225.2,425.3z M200.5,415.2h7.4l-3.6-9.8
		L200.5,415.2z"/>
	<path class="st0" d="M255.7,411.9v14.8h-10.3v-14.1c0-2-1.1-3.5-3.4-3.5s-3.4,1.5-3.4,3.5v14.1h-10.2V411c0-1.1-0.4-1.6-1.2-1.6
		c-0.3,0-0.5,0.1-0.7,0.3l-0.6-0.4l-1.1-6.6l0.4-0.7c1.5-0.8,3.3-1.3,5-1.3c2.4,0,4.6,0.9,5.9,2.7c2.4-1.8,5.4-2.7,8.4-2.7
		C251,400.7,255.7,405,255.7,411.9z"/>
	<path class="st0" d="M281.5,424.4l-0.3,0.7c-2.2,1.5-4.7,2.2-7.3,2.2c-5.4,0-10.8-3.2-10.8-10.5v-8.4h-4.6v-7.1h4.6v-7.1l9.4-1.1
		l0.8,0.5v7.8h7.4v7.1h-7.4v7.2c0,2.3,1.2,3.4,2.6,3.4c0.8,0,1.6-0.3,2.3-0.8l0.6,0.4L281.5,424.4z"/>
	<path class="st0" d="M292.9,416.4c0.4,2.8,3.1,4,6.1,4c2.3,0.1,4.6-0.8,6.3-2.3h0.7l4.3,4.1v0.7c-3.1,3.4-7.9,4.5-11.9,4.5
		c-8.1,0-15.3-4.5-15.3-13.3c0-7.8,5.7-13.4,14.4-13.4c8.5,0,14.2,5.3,14.2,13.4c0,0.8-0.1,1.5-0.2,2.3H292.9z M292.9,411.8h9.1
		c0-2.6-1.9-4.4-4.6-4.4S292.9,409.1,292.9,411.8L292.9,411.8z"/>
	<path class="st0" d="M344.4,411.9v14.8h-10.2v-14.1c0-2-1.1-3.5-3.4-3.5s-3.4,1.5-3.4,3.5v14.1h-10.2V411c0-1.1-0.4-1.6-1.2-1.6
		c-0.3,0-0.5,0.1-0.7,0.3l-0.6-0.4l-1.1-6.6l0.4-0.7c1.5-0.8,3.3-1.3,5-1.3c2.4,0,4.5,0.9,5.9,2.7c2.4-1.8,5.4-2.7,8.4-2.7
		C339.7,400.7,344.4,405,344.4,411.9z"/>
	<path class="st0" d="M378,425.3l-0.4,0.7c-1.5,0.8-3.1,1.3-4.8,1.3c-2.4,0-4.6-0.9-5.9-2.7c-2.4,1.8-5.4,2.7-8.4,2.7
		c-5.9,0-10.9-3.2-10.9-8.3c0-5.4,5.5-8,11.9-8c1.7,0,3.4,0.2,5,0.7v-0.8c0-1.9-1.7-3.4-4.5-3.4c-2,0-3.9,0.7-5.5,2h-0.7l-4.3-4.1
		v-0.7c2.7-2.4,6.6-4,11.6-4c6.4,0,13.2,2.8,13.2,9.9v6.4c0,1.1,0.4,1.6,1.1,1.6c0.3,0,0.5-0.1,0.7-0.2l0.6,0.3L378,425.3z
		 M364.5,418.5v-1.6c-1-0.4-2.1-0.6-3.3-0.6c-2.4,0-3.6,1.1-3.6,2.6c0,1.6,1.5,2.6,3.2,2.6C363.1,421.5,364.5,419.8,364.5,418.5z"/>
	<path class="st0" d="M414.9,417.3c0,6.3-5.9,10.1-14.2,10.1c-5.2,0-11.1-2.1-13.8-5.7v-0.7l4.8-4.8h0.7c1.3,1.5,4.3,3.7,7.6,3.7
		c2.6,0,4.3-1.2,4.3-3.1c0-2.4-2.2-3.4-5.5-3.4h-3.7v-6.6h4.4c2.5,0,4.1-1.3,4.1-3.1c0-2.3-2.1-2.8-4.1-2.8c-2.2,0-4.4,0.8-6.2,2.1
		h-0.7l-3.9-5.1V397c3.4-2.7,7.5-4,12.4-4c6.9,0,12.7,3,12.7,9.6c0,2.7-1.6,5.1-4,6.8C413,411,414.9,413.6,414.9,417.3z"/>
	<path class="st0" d="M234.8,279.9c16.5-27.4,32-55.5,50.4-81.8c3.7-5.3,7.5-10.4,10.4-16.2c1.7-3.4,1.3-6-1.1-7.7
		c-2.3-1.7-5.4-1.7-7.4-1.5c-50.5,4.1-100.8,37.8-101.2,86.5c0.1,17.7,10.1,39.2,18.1,44.9c6.1,4.3,11.5,3.7,17.5-3.7
		C226.8,294.1,230.6,286.9,234.8,279.9z"/>
	<path class="st0" d="M378.5,300.4c6,7.4,11.4,7.9,17.5,3.7c8.1-5.7,18-27.2,18.1-44.9c-0.5-48.6-50.8-82.4-101.2-86.5
		c-2-0.2-5.1-0.2-7.4,1.5c-2.3,1.7-2.8,4.3-1.1,7.7c2.9,5.7,6.7,10.9,10.4,16.2c18.3,26.3,33.8,54.4,50.4,81.8
		C369.4,286.9,373.2,294.1,378.5,300.4z"/>
	<path class="st0" d="M309.5,259c-3.1-0.5-6.3-0.8-9.5-0.8l0,0c-3.2,0.1-6.3,0.3-9.5,0.8c-27.8,4.2-47.1,19.8-59,44.6
		c-6.1,12.7-3.4,21.4,7.6,30.1l1.9,1.5c2,1.3,4,2.7,6,3.9c28.8,18.8,39.3,25.4,43.5,27.4c2.8,1.5,6,2.3,9.2,2.4l0,0h0.2h0.2l0,0
		c3.2-0.1,6.3-1,9.2-2.4c4.2-2,14.8-8.6,43.6-27.4c1.9-1.3,3.9-2.6,6-4c0.7-0.5,1.3-1,1.9-1.5c11-8.7,13.7-17.4,7.6-30.1
		C356.5,278.8,337.2,263.2,309.5,259z"/>
</g>
</svg>
