<?xml version="1.0" encoding="utf-8"?>
<!-- Generator: Adobe Illustrator 25.2.1, SVG Export Plug-In . SVG Version: 6.00 Build 0)  -->
<svg version="1.1" id="Layer_1" xmlns="http://www.w3.org/2000/svg" xmlns:xlink="http://www.w3.org/1999/xlink" x="0px" y="0px"
	 viewBox="0 0 600 600" style="enable-background:new 0 0 600 600;" xml:space="preserve">
<style type="text/css">
	.st0{fill:#1B0A0C;}
</style>
<path class="st0" d="M300,185c-63.4,0-115,51.6-115,115s51.6,115,115,115s115-51.6,115-115S363.4,185,300,185z M353.8,304.9h48.6
	c-0.7,14.4-4.4,28.6-11,41.4h-44.8C351,332.9,353.4,319,353.8,304.9L353.8,304.9z M346.4,253.1h44.7c6.3,12.2,10.1,25.6,11.1,39.4
	h-48.5C353.1,279,350.6,265.8,346.4,253.1L346.4,253.1z M383.5,240.6h-41.7c-6.7-15.5-15.8-29.7-27.2-42.1
	C342.4,202.5,367.3,217.8,383.5,240.6L383.5,240.6z M305.2,240.6v-34.1c9.3,10.2,17,21.7,23,34.1H305.2z M333.3,253.1
	c4.6,12.7,7.3,25.9,8,39.4h-36.1v-39.4H333.3z M292.7,253.1v39.4h-35.1c0.7-13.4,3.4-26.7,8-39.4H292.7z M270.8,240.6
	c5.7-12,13.1-23.1,22-33v33H270.8z M292.7,304.9v41.4h-27.4c-4.7-13.3-7.4-27.3-7.9-41.4L292.7,304.9z M292.7,358.8v33.6
	c-9-10.1-16.5-21.4-22.2-33.6H292.7z M305.2,358.8h23.2c-5.9,12.7-13.8,24.4-23.2,34.7V358.8z M305.2,346.3v-41.4h36.2
	c-0.5,14.1-3.1,28.1-7.8,41.4H305.2z M284.2,198.7c-11.3,12.4-20.4,26.6-27,42h-40.7C232.4,218.1,256.9,203,284.2,198.7z
	 M245.2,292.4h-47.4c1-13.7,4.8-27.1,11.1-39.4h43.6C248.3,265.8,245.8,279,245.2,292.4z M252.3,346.3h-43.7
	c-6.6-12.9-10.3-27-11-41.4h47.5C245.5,319,247.9,332.9,252.3,346.3z M216,358.8h40.9c6.7,15.6,15.9,30,27.3,42.6
	C256.6,397,232,381.6,216,358.8z M314.6,401.5c11.5-12.6,20.8-27.1,27.5-42.8H384C367.8,382,342.6,397.4,314.6,401.5L314.6,401.5z"
	/>
</svg>
