<svg id="Layer_1" data-name="Layer 1" xmlns="http://www.w3.org/2000/svg" viewBox="0 0 600 600"><defs><style>.cls-1{fill:#1b0a0c;}</style></defs><path class="cls-1" d="M300,91C184.77,91,91,184.77,91,300s93.75,209,209,209,209-93.75,209-209S415.23,91,300,91Zm97.82,217.85h88.33a185.6,185.6,0,0,1-19.94,75.33H384.81A272.4,272.4,0,0,0,397.83,308.85Zm-13.42-94.14h81.23a184.89,184.89,0,0,1,20.17,71.55H397.7A271.71,271.71,0,0,0,384.41,214.71Zm67.44-22.58H376a275,275,0,0,0-49.39-76.59A186.46,186.46,0,0,1,451.85,192.13Zm-142.43,0v-62a253.45,253.45,0,0,1,41.72,62Zm51.16,22.58a250.77,250.77,0,0,1,14.5,71.55H309.42V214.71Zm-73.77,0v71.55H223a251.46,251.46,0,0,1,14.51-71.55ZM246.9,192.13a253,253,0,0,1,39.91-59.95v59.95Zm39.91,116.72v75.33H237.1a250.05,250.05,0,0,1-14.28-75.33Zm0,97.93v61.06a253.58,253.58,0,0,1-40.42-61.06Zm22.61,0h42.24a252,252,0,0,1-42.24,63.1Zm0-22.6V308.85h65.84A251,251,0,0,1,361,384.18ZM271.26,115.81a275.75,275.75,0,0,0-49.15,76.32h-74A186.66,186.66,0,0,1,271.26,115.81ZM200.33,286.26H114.18a184.71,184.71,0,0,1,20.16-71.55h79.3A273.36,273.36,0,0,0,200.33,286.26Zm12.91,97.92H133.76a184.79,184.79,0,0,1-19.92-75.33H200.2A274.27,274.27,0,0,0,213.24,384.18Zm-65.91,22.6h74.25a274.91,274.91,0,0,0,49.68,77.43A186.71,186.71,0,0,1,147.33,406.78Zm179.23,77.7a274.64,274.64,0,0,0,49.89-77.7h76.18A186.48,186.48,0,0,1,326.56,484.48Z"/></svg>