<svg id="Layer_1" data-name="Layer 1" xmlns="http://www.w3.org/2000/svg" viewBox="0 0 943.43 600"><defs><style>.cls-1{fill:#1b0a0c;}</style></defs><path class="cls-1" d="M792.26,296.12c61.15-92.45-7.19,10.59,58.28-88.07H677c66,99.23-4.66-6.85,58.28,88.07-67.33,101.4,12.79-19.42-63.46,95.84H855.72C788.38,290.62,863.82,404.15,792.26,296.12ZM480,391.91l185.35,0L597.62,208.19l-48.77-.11L480,391.91Zm-211,0H475V208.05l-71.15,0-32.3,100L340.26,208.05H269V392Zm-104.9,0c67.57,0,91.95-35.15,91.95-95,1.19-48.45-32.5-89.71-85.48-88.94H87.72V392Z"/></svg>