<?xml version="1.0" encoding="utf-8"?>
<!-- Generator: Adobe Illustrator 25.2.1, SVG Export Plug-In . SVG Version: 6.00 Build 0)  -->
<svg version="1.1" id="Layer_1" xmlns="http://www.w3.org/2000/svg" xmlns:xlink="http://www.w3.org/1999/xlink" x="0px" y="0px"
	 viewBox="0 0 943.4 600" style="enable-background:new 0 0 943.4 600;" xml:space="preserve">
<style type="text/css">
	.st0{fill:#1B0A0C;}
</style>
<path class="st0" d="M761.6,296.5c55.3-83.6-6.5,9.6,52.7-79.6H657.4c59.7,89.7-4.2-6.2,52.7,79.6c-60.9,91.7,11.6-17.6-57.4,86.7
	H819C758.1,291.5,826.3,394.2,761.6,296.5z M479.2,383.1h167.6L585.6,217l-44.1-0.1L479.2,383.1z M288.4,383.1h186.3V216.8h-64.3
	l-29.2,90.4l-28.3-90.4h-64.4V383.1L288.4,383.1z M193.5,383.1c61.1,0,83.2-31.8,83.2-85.9c1.1-43.8-29.4-81.1-77.3-80.4h-74.9
	v166.4L193.5,383.1z"/>
</svg>
