<svg id="Layer_1" data-name="Layer 1" xmlns="http://www.w3.org/2000/svg" viewBox="0 0 600 600"><defs><style>.cls-1{fill:#1b0a0c;}</style></defs><path class="cls-1" d="M300,60c-110.13,0-199.42,89.28-199.42,199.42a198.76,198.76,0,0,0,58.26,140.85L297.55,539a3.45,3.45,0,0,0,4.9,0l140-140a198.74,198.74,0,0,0,57-139.55C499.42,149.28,410.13,60,300,60Zm93.18,263.29c-8.36,26.11-20.81,26.11-20.81,26.11-19.79,64.06-47.53,55.29-52.84,44.47s-3.87-45.29-3.87-49.16-.61-11.83-4.9-8S306.27,350,306.27,350v39.58a44.25,44.25,0,0,1-7.75,25.7c-6.73,9.8-22.44,20-28.76,18.77-14.9-3.87-12.86-26.72-12-32.64a134.65,134.65,0,0,0,.61-16.12s-8.57,6.53-13.87,10.61-8.77,10.41-9.59,13.47-3.06.81-3.06.81V388.36c0-9.79,7.55-16.11,28.15-28.15a121,121,0,0,0,35.09-31.42c2.45-3.26,3.88-.61,3.88-.61s.82,21.42,0,26.52-8.16,11.22-13.67,15.51a49.06,49.06,0,0,0-9.18,9.59v27.74c0,9.39,7.34,17.14,17.14,7.35s9-25.3,9-25.3V353.68c0-24.89,21.22-35.09,29-34.27s6.53,14.28,6.53,14.28V370s-.82,20,11,11,19.17-31.82,19.17-31.82c-9.79-.82-14.41-18.79-13.87-25.71.82-10.4,8.88-17.93,13.17-14.29,5.74,4.87,5.69,30.61,5.69,30.61,19.31-2.24,28.06-58.34,22.35-61.61s-11.42,1.63-26.93,15.51S330.8,317.41,321,310c-9.23-6.94-2.24-50.6-2.24-54.47s.2-19.38-12.45-12.45S294,266.37,294,266.37v20.4s3.27,34.68-15.5,53c-15.15,14.82-34.14,24.07-41.26,26.78-1.7.64-2.22.51-3.11.15s-1-2.24-1-2.24l.52-224a10.72,10.72,0,0,1,.05-1.7,2.06,2.06,0,0,1,1.39-1.68c5.4-2.62,24.61-11.87,32.64-15,9.38-3.68,16.32.81,15.91,11.22s-5.92,94-3.06,95.47,5.91-5.91,7.75-9c13.87-25.71,39.17-46.72,63.65-45.29s21.62,25.09,21.62,25.09-2,51.2-2,58.34-1.53,15.76,4.18,18.42,13.67-7.11,20.05-3.44C403.4,277.36,401.54,297.17,393.18,323.29Z"/></svg>