<?xml version="1.0" encoding="utf-8"?>
<!-- Generator: Adobe Illustrator 25.2.1, SVG Export Plug-In . SVG Version: 6.00 Build 0)  -->
<svg version="1.1" id="Layer_1" xmlns="http://www.w3.org/2000/svg" xmlns:xlink="http://www.w3.org/1999/xlink" x="0px" y="0px"
	 viewBox="0 0 600 600" style="enable-background:new 0 0 600 600;" xml:space="preserve">
<style type="text/css">
	.st0{fill:#1B0A0C;}
</style>
<path class="st0" d="M300,154.4c-66.8,0-121,54.2-121,121c0,32,12.7,62.8,35.3,85.4l84.1,84.2c0.8,0.8,2.1,0.8,3,0c0,0,0,0,0,0
	l84.9-84.9c22.2-22.6,34.6-53,34.6-84.7C421,208.6,366.8,154.4,300,154.4z M356.5,314.1c-5.1,15.8-12.6,15.8-12.6,15.8
	c-12,38.9-28.8,33.5-32.1,27c-3.2-6.6-2.3-27.5-2.3-29.8s-0.4-7.2-3-4.9s-2.7,8.1-2.7,8.1v24c0.1,5.6-1.6,11-4.7,15.6
	c-4.1,5.9-13.6,12.1-17.4,11.4c-9-2.3-7.8-16.2-7.3-19.8c0.3-3.2,0.4-6.5,0.4-9.8c0,0-5.2,4-8.4,6.4c-3.2,2.5-5.3,6.3-5.8,8.2
	c-0.5,1.9-1.9,0.5-1.9,0.5v-13.2c0-5.9,4.6-9.8,17.1-17.1c8.3-4.9,15.5-11.4,21.3-19.1c1.5-2,2.4-0.4,2.4-0.4s0.5,13,0,16.1
	c-0.5,3.1-5,6.8-8.3,9.4c-2.1,1.7-4,3.6-5.6,5.8v16.8c0,5.7,4.5,10.4,10.4,4.5s5.5-15.3,5.5-15.3v-21.8c0-15.1,12.9-21.3,17.6-20.8
	c4.7,0.5,4,8.7,4,8.7v22c0,0-0.5,12.1,6.7,6.7s11.6-19.3,11.6-19.3c-5.9-0.5-8.7-11.4-8.4-15.6c0.5-6.3,5.4-10.9,8-8.7
	c3.5,3,3.5,18.6,3.5,18.6c11.7-1.4,17-35.4,13.6-37.4c-3.5-2-6.9,1-16.3,9.4c-9.4,8.4-22.8,14.4-28.7,9.9c-5.6-4.2-1.4-30.7-1.4-33
	s0.1-11.8-7.6-7.6c-7.7,4.2-7.5,14.1-7.5,14.1V292c0,0,2,21-9.4,32.2c-9.2,9-20.7,14.6-25,16.2c-1,0.4-1.3,0.3-1.9,0.1
	c-0.5-0.2-0.6-1.4-0.6-1.4l0.3-135.9c0-0.3,0-0.7,0-1c0.1-0.5,0.4-0.9,0.8-1c3.3-1.6,14.9-7.2,19.8-9.1c5.7-2.2,9.9,0.5,9.7,6.8
	s-3.6,57-1.9,57.9c1.7,0.9,3.6-3.6,4.7-5.5c8.4-15.6,23.8-28.3,38.6-27.5c14.9,0.9,13.1,15.2,13.1,15.2s-1.2,31.1-1.2,35.4
	c0,4.3-0.9,9.6,2.5,11.2c3.5,1.6,8.3-4.3,12.2-2.1C362.7,286.3,361.6,298.3,356.5,314.1z"/>
</svg>
