<svg id="Layer_1" data-name="Layer 1" xmlns="http://www.w3.org/2000/svg" viewBox="0 0 600 600"><defs><style>.cls-1{fill:#1b0a0c;}</style></defs><path class="cls-1" d="M508.13,242.7A111.51,111.51,0,0,0,484,188.19c-2.95-3.55-6.1-7-9.36-10.25-23.1-23.1-51.32-34.82-83.87-34.82-27.69,0-52.28,8.52-73.19,25.32-20.92-16.8-45.51-25.32-73.19-25.32-32.55,0-60.78,11.72-83.88,34.82a119.83,119.83,0,0,0-9.2,10.32,112.23,112.23,0,0,0-23.91,53c21.17-12.46,49.5-23.66,83-23.66,78,0,121.22,69.21,121.22,117.05a10.25,10.25,0,0,1-10.24,10.24H216.18a10.25,10.25,0,0,1,0-20.49h94.28C305,286,269.91,238,210.48,238c-54.5,0-91.39,21.27-106.12,46.47C96,300.74,91.79,318.68,91.79,338.18c0,32.56,11.71,60.78,34.81,83.88,20.09,20.09,44.14,31.65,71.51,34.36,3.18.3,6.41.46,9.61.46H500.05a7.31,7.31,0,0,0,7.31-7.29l.85-205.78A5.93,5.93,0,0,0,508.13,242.7Z"/></svg>