<svg id="Layer_1" data-name="Layer 1" xmlns="http://www.w3.org/2000/svg" viewBox="0 0 1184 600"><defs><style>.cls-1{fill:#1b0a0c;fill-rule:evenodd;}</style></defs><path class="cls-1" d="M206.28,364H171.81V320.65c0-8.74-3.84-15.37-10.77-15.62s-11.3,7.23-11.3,14.81V364H115V324.42c0-12.08,3.41-22.26,9.42-30.16a46.71,46.71,0,0,1,33.66-17.77c14.53-.86,24.85,4.74,33.12,11.84,7.61,6.54,15.08,18.78,15.08,29.62ZM559.55,259c0-5.24.59-10.68-.54-14.54a18.62,18.62,0,0,0-10-11c-10.52-4.3-20.17,2.55-22.89,9.43-1.71,4.32-1.08,10.78-1.08,17.23V364h34.47Zm111.21,34.2c-5.06,6.24-9.81,15-10.5,25.31-1.14,17,5.53,28,13.19,35.81,6.6,6.72,16.32,12.62,28,13.47,14.26,1,24.53-3.61,32.85-10a45.51,45.51,0,0,0,16.43-26.65c1.2-6.25.81-20.74.81-20.74V247.62c0-6.31-5.57-12-11.31-14.22-11-4.21-24.16,4.13-23.6,16.89.31,7,.17,27.81.17,27.81C696,273,679.71,282.13,670.76,293.18Zm33.92,8.62c7.56-1.31,11.55,9.06,12.12,17,.77,10.61-2.87,22.78-9.42,24-9,1.63-13.25-11.88-12.66-22.61C695.14,312.56,698.06,302.94,704.68,301.8Zm-274.61-.46c6.06-10.59-2.51-21.72-9.19-24.32a19.19,19.19,0,0,0-8.35-1.07c-8.89.94-12.89,7.91-16.42,14.27C392.7,296.35,383.72,312,383.72,312V292.1c0-6.57-5.63-15.71-18-15.76-9.82,0-16.76,8.71-16.76,17.38V364h34.74V336.53L402,364h27.09c7.39,0,8.15-6.38,5.23-10.85C429,345,416,325.76,416,325.76S424,311.92,430.07,301.34ZM315.06,280c-18.23-7.65-38.31-1-49,9.69a44.61,44.61,0,0,0-13.46,28.81c-1,16.21,4.51,27,13.19,35.81,6.94,7.07,16.17,12.58,27.74,13.47a46,46,0,0,0,26.92-5.66,44.58,44.58,0,0,0,19.39-21.54,41.16,41.16,0,0,0,3.77-14H308.86c-.8,7.36-4,16.43-10.77,16.42s-10.56-10.26-11-18.84c-.37-6.64,1.33-14,3.77-17.78,1.41-2.16,4.24-4.84,7.27-4.84,3.75,0,6.24,3.15,7.81,5.92a25.59,25.59,0,0,1,3,10.5H343.6C341.34,299.35,330.39,286.42,315.06,280Zm193.87,10a44.13,44.13,0,0,0-35-13.46c-19.83,1.27-33.39,14-39.31,28.54a47.2,47.2,0,0,0-2.15,28.54c2.54,10.15,9.2,18.95,16.15,24.5a46.11,46.11,0,0,0,24.78,9.7,43,43,0,0,0,24.23-5.12c12.46-6.44,18.89-14.8,21.81-31h-30.7c-2.94,4.63-5.81,11.18-12.38,10.78s-9.25-9.52-10.24-15.62H520C521.48,310.47,517.06,298.33,508.93,290Zm-22.08,24h-20.2c.73-7.44,8.1-17,15.08-10.77C484.25,305.4,486,309.75,486.85,313.91Zm103.67-32.85a45.36,45.36,0,0,0-12.39,8.62c-7,7-12.59,16.26-13.46,28.27-1.29,17.73,5.9,29.81,14.81,38a45.64,45.64,0,0,0,32.58,11.85c12.73-.36,23-5.86,30.69-13.74a45.19,45.19,0,0,0-.8-64.62c-7.7-7.22-19.42-13.77-34.47-12.66A44.55,44.55,0,0,0,590.52,281.06Zm18.31,20.74c9.32-1.89,13.1,12.77,12.38,23.42-.55,8.25-4.31,16.57-9.42,17.5a11.19,11.19,0,0,1-3,0c-6.82-1.09-10.36-13.24-9.7-23.15.46-6.9,2.89-13.33,6.2-16.16A8.5,8.5,0,0,1,608.83,301.8Zm211.91-21a44,44,0,0,0-22.08-4.3c-12.73.87-21.7,6.08-29.08,13.46-8.8,8.79-14.75,20-13.46,36.62,1.38,18.05,14,32,28.27,38a45.89,45.89,0,0,0,28.54,1.88c17.19-4.43,28.55-16.2,31.24-34.74h-30.7c-2.81,4.69-5.58,11.12-12.12,10.78-7-.37-9.36-9.16-10.23-15.62H845C846.88,302.84,836.42,288.26,820.74,280.79Zm-9,33.39h-20c1.21-6.41,4.58-14.13,12.15-12.51C808.29,302.62,810.85,309.18,811.7,314.18Zm50-22.35a44.82,44.82,0,0,0-11.58,33.93c1,13.18,7.16,23.12,15.08,30.43a46,46,0,0,0,33.93,11.58c13.37-.81,23-7.19,30.42-15.08A43.91,43.91,0,0,0,941.37,319a44.82,44.82,0,0,0-5.12-17.5c-7.2-14-22-26.46-43.62-24.78A45.62,45.62,0,0,0,861.67,291.83Zm32.85,10c7.41-1.26,11.36,8.67,12.11,15.88,1.1,10.56-2.5,23.79-9.42,25-4.42.8-7.66-2.49-9.42-5.65-5.4-9.68-3.4-28.11,3-33.66A8.18,8.18,0,0,1,894.52,301.8ZM1037,318c0-10.84-7.47-23.08-15.08-29.62-8.27-7.1-18.59-12.7-33.12-11.84a46.7,46.7,0,0,0-33.66,17.77c-6,7.9-9.42,18.08-9.42,30.16V364h34.73V319.84c0-7.58,4.5-15.06,11.31-14.81s10.77,6.88,10.77,15.62V364H1037Zm-789.49-3a126.86,126.86,0,0,0-.64-16.43c-.71-5.18-3.6-8.76-6.9-12.11-2.31-2.35-6.17-5.12-6.19-8.62,0-3.1,3.38-6,5.65-8.35,2.44-2.52,5.48-4.89,7-7.27,5.17-8.09,3.14-18.36-2.69-24.5-4.18-2.88-8-5.94-15.08-5.38a19.28,19.28,0,0,0-17.77,20.19c.36,8.42,5.14,11.9,9.69,16.43,2.49,2.47,6,6,5.93,9.15s-3.58,5.93-5.93,8.35a28.63,28.63,0,0,0-5.82,7.81c-2.2,4.92-2,13.15-2,20.46V364h34.73Zm797.23,37.56h10.68V354h-4.45v10h-1.85V354h-4.38Zm22.59,0H1069V364h-1.84v-8.93l-3.93,4.44h-.34l-4-4.44V364h-1.83V352.56h1.73l4.25,4.72Z"/></svg>