<svg id="Layer_1" data-name="Layer 1" xmlns="http://www.w3.org/2000/svg" viewBox="0 0 1184 600"><defs><style>.cls-1{fill:#1b0a0c;fill-rule:evenodd;}</style></defs><path class="cls-1" d="M302.51,321.18l-46-75.51H223.28l0,108.3h33V278.45L302.52,354h33V245.67h-33ZM564.28,282.1V271.39H546.9V256.81H514.78l0,14.59H497.36v10.7H514.8l0,71.87H547l-.05-71.87ZM353.83,354H385.9V282l-32.07,0Zm-.09-86.19H385.9V245.63H353.74Zm562.35,9.27c-25.89,0-46.91,18.08-46.91,40.41s21,40.42,46.91,40.42S963,339.79,963,317.46,942,277.05,916.09,277.05Zm12.85,55.56c0,11.48-6.68,16.21-13.11,16.21s-13.12-4.73-13.12-16.21V302.09c0-11.42,6.7-16.15,13.11-16.15s13.11,4.73,13.11,16.15c0,4.34,0,12.42,0,15.3C929,317.59,928.94,328.28,928.94,332.61Zm-101.86-47.1c-5.12-2.92-10.54-5.75-18.14-6.42-23.14-2-40.79,18.68-40.79,37.69a38,38,0,0,0,58.86,33V354h31.7V245.67H827.08Zm.25,32.08v12.79c0,11.11-7.6,14-12.59,14s-12.57-2.9-12.57-14V304.72c0-11.15,7.46-14,12.57-14s12.57,2.82,12.57,14Zm-366.3-39a38.44,38.44,0,0,0-25.6,10.86c0-1.79,0-7.58,0-7.58l-31.89,0,.06,72h31.83l0-47.29c0-6.27,6.51-13.25,15.23-13.25s14.66,7,14.66,13.25v47.29h31.91s0-34.1,0-39.17C497.36,286.25,473,278.28,461,278.63Zm260.76,0a38.42,38.42,0,0,0-25.61,10.86c0-1.79,0-7.58,0-7.58l-31.84,0v72h31.85l0-47.29c0-6.27,6.52-13.25,15.26-13.25s14.64,7,14.64,13.25v47.29h31.89s0-34.1,0-39.17C758.08,286.25,733.76,278.28,721.79,278.63Zm-67.16,39.63c0-22.33-21.26-40.82-47.36-40.82S560,295.52,560,317.86s21.16,40.42,47.24,40.42c21.66,0,40-12.55,45.54-29.54l-32,0s0,.31,0,4.37c0,13.16-8.53,16.07-13.29,16.07s-13.42-2.91-13.42-16.07c0-3.95,0-14.88,0-14.88S654.63,318.29,654.63,318.26Zm-58.35-25.35a13,13,0,0,1,22.58,0c2,3.62,2.12,7.84,2.07,14.13H594.17C594.11,300.75,594.25,296.54,596.28,292.91ZM975.74,259c0-3.53-2.58-5.32-7.75-5.32h-7.15V272.2h4.44v-7.56h2.16l3.48,7.56h4.91L971.77,264A4.91,4.91,0,0,0,975.74,259Zm-8.3,2.9h-2.16v-5.37h1.92c2.66,0,4,.82,4,2.75s-1.2,2.61-3.73,2.61Zm.13-15.41A16.67,16.67,0,1,0,984,263.2a16.58,16.58,0,0,0-16.4-16.67Zm0,30.12a13.35,13.35,0,0,1-13.28-13.45h0a13.28,13.28,0,1,1,13.28,13.45ZM931.77,185H252.21C180.3,184.83,132,237.3,132,300.19S180.19,415,252.34,415H931.66c72.17,0,120.34-51.89,120.34-114.81S1003.7,184.83,931.77,185Zm-.31,201.79H252.55c-57.33.23-92.16-38.83-92.16-86.74s35-86.64,92.16-86.76H931.46c57.11.12,92.14,38.85,92.14,86.76S988.78,387,931.46,386.79Z"/></svg>