<svg id="Layer_1" data-name="Layer 1" xmlns="http://www.w3.org/2000/svg" viewBox="0 0 1184 600"><defs><style>.cls-1{fill:#1b0a0c;}</style></defs><path class="cls-1" d="M198.11,188.76a92.11,92.11,0,1,0,92.11,92.11A92.11,92.11,0,0,0,198.11,188.76Zm0,133.3a41.19,41.19,0,1,1,41.18-41.19A41.19,41.19,0,0,1,198.11,322.06Z"/><path class="cls-1" d="M377.83,238.94A67.88,67.88,0,0,0,357.61,242V208.23a24,24,0,0,0-24-24h0a24,24,0,0,0-24,24v98.85a68.15,68.15,0,1,0,68.14-68.14Zm0,86.86a18.72,18.72,0,1,1,18.72-18.72A18.72,18.72,0,0,1,377.83,325.8Z"/><path class="cls-1" d="M482.29,239.69h0a25.08,25.08,0,0,0-25.08,25.08V370.06c-.62,0-1.24-.08-1.87-.08a24.34,24.34,0,1,0,0,48.68s42.31,3.74,52-45.68V264.77A25.08,25.08,0,0,0,482.29,239.69Z"/><circle class="cls-1" cx="482.29" cy="206.36" r="25.09"/><path class="cls-1" d="M647,255.67a72.8,72.8,0,0,0-48.26-17.86,79,79,0,0,0-20.22,2.66v-30a24.71,24.71,0,0,0-24.71-24.71h0a24.71,24.71,0,0,0-24.71,24.71v140a24.71,24.71,0,0,0,24.71,24.72h0a24.71,24.71,0,0,0,24.71-24.72V295.1s.43-.27.24-.12c.09-.07,8.9-7,20-7a25.43,25.43,0,0,1,6.4.78A14.54,14.54,0,0,1,616,302.87v46.66c0,14.06,11.51,25.84,25.58,25.57A25.08,25.08,0,0,0,666.16,350v-51.6A56.83,56.83,0,0,0,647,255.67Z"/><path class="cls-1" d="M753.06,377.47c-18.13,0-34.42-5.38-47.1-15.56a66.49,66.49,0,0,1-23.79-40.28c-2.54-13.56-2.14-42.17,15.5-63.42,8.43-10.16,24.11-22.27,50.9-22.27,27.66,0,49.18,12.57,60.58,35.4a81.22,81.22,0,0,1,8.25,33.5,18,18,0,0,1-18,18H719.92c5.34,11.86,17.21,18.72,33.14,18.72,13.91,0,20-2.89,20.92-3.37a18,18,0,0,1,21.85,28.51C792.74,369.2,780.5,377.47,753.06,377.47Zm20-38.63h0Zm0,0h0Zm1-.73Zm-52.45-51.23h55.07l-.15-.27c-5.34-10-14.24-14.7-28-14.7-10.46,0-18.06,3-23.24,9.28A29.81,29.81,0,0,0,721.65,286.86Z"/><path class="cls-1" d="M954.82,230.7h0A24.34,24.34,0,0,0,930.48,255v54.42a32.69,32.69,0,0,1-4.29,6.91c-4.5,5.49-9.87,7.94-17.43,7.94-9.83,0-16.83-2.46-20.79-7.3a19.71,19.71,0,0,1-3.71-7.53V253.91a24,24,0,0,0-47.92,0v57.61a21.81,21.81,0,0,0,.11,2.29,65.84,65.84,0,0,0,11.67,29.92c9.2,13,27.18,28.5,60.64,28.5a73.1,73.1,0,0,0,21.72-3.18v25.27a24.34,24.34,0,0,0,24.34,24.34h0a24.33,24.33,0,0,0,24.33-24.34V255A24.33,24.33,0,0,0,954.82,230.7Z"/><circle class="cls-1" cx="1046.92" cy="393.57" r="25.09"/><path class="cls-1" d="M1046.92,355.76A37.78,37.78,0,0,1,1078,372V216.85a31.07,31.07,0,0,0-31.08-31.08h0a31.07,31.07,0,0,0-31.07,31.08V372A37.74,37.74,0,0,1,1046.92,355.76Z"/></svg>