<svg id="Layer_1" data-name="Layer 1" xmlns="http://www.w3.org/2000/svg" viewBox="0 0 1017 600"><defs><style>.cls-1{fill:#1b0a0c;}</style></defs><path class="cls-1" d="M617.4,326.59l-30.95-.1V263.27c0-11.79-21.61-7.79-21.61-7.79V333.6c0,8.36,7.11,13.67,28.72,11.37,26.13-2.79,24.9-11.37,23.84-18.38"/><path class="cls-1" d="M137.06,339s1.58-16.41,16.38-13.93c16.39,2.78,35.81,5.2,35.19-5.58C188,308.15,141.13,309,140.84,279c-.36-39.27,67.54-19.95,67.54-19.95s.48,16.48-13.92,15.54c-11-.75-31.48-4.13-32,4C161.79,289,211.55,290.4,210.23,319c-2.08,45.28-73.17,20-73.17,20"/><path class="cls-1" d="M358.3,255.48v54.33l-28.81-46.52c-2.93-4.67-7.67-6.87-12.34-7.81a29.44,29.44,0,0,0-6.59-.67,40.44,40.44,0,0,0-7.56.67v81.37c0,11.82,21.62,7.83,21.62,7.83V290.34l28.83,46.51c2.91,4.69,7.64,6.88,12.34,7.83a27,27,0,0,0,6.57.64,38.7,38.7,0,0,0,7.55-.64V263.29c0-11.81-21.61-7.81-21.61-7.81"/><path class="cls-1" d="M765.29,255.48v54.33l-28.81-46.52c-2.91-4.67-7.65-6.87-12.32-7.81a29.55,29.55,0,0,0-6.59-.67,40.3,40.3,0,0,0-7.56.67v81.37c0,11.82,21.61,7.83,21.61,7.83V290.34l28.82,46.51c2.92,4.69,7.67,6.88,12.35,7.83a27.11,27.11,0,0,0,6.58.64,39,39,0,0,0,7.56-.64V263.29c0-11.81-21.64-7.81-21.64-7.81"/><path class="cls-1" d="M245.09,307.52l9-24.16,8.54,24.16Zm21.16-47c-4.24-10.6-22.3-5-22.3-5L211.16,337c-4.25,11.51,20,7.65,20,7.65l6.66-17.78h31.63l3.55,10c4.75,12.47,26,7.79,26,7.79Z"/><path class="cls-1" d="M826,307.52l9-24.16,8.52,24.16Zm21.17-47c-4.27-10.6-22.31-5-22.31-5L792.07,337c-4.21,11.51,20,7.65,20,7.65l6.65-17.78h31.66l3.53,10c4.75,12.47,26,7.79,26,7.79Z"/><path class="cls-1" d="M653.16,307.52l9.05-24.16,8.52,24.16Zm21.16-47c-4.23-10.6-22.31-5-22.31-5L619.21,337c-4.22,11.51,20,7.65,20,7.65l6.63-17.78h31.66l3.54,10c4.76,12.47,26,7.79,26,7.79Z"/><path class="cls-1" d="M455.74,255.19H397.57c-13.48,0-10,19.44-10,19.44h23.24v62.22c0,11.82,21.69,7.83,21.69,7.83V274.63h13.23c14.31,0,10-19.44,10-19.44"/><path class="cls-1" d="M464.76,255.48v81.37c0,11.82,21.61,7.83,21.61,7.83V263.29c0-11.81-21.61-7.81-21.61-7.81"/><path class="cls-1" d="M559.17,326.55H522.65V263.29c0-11.81-21.62-7.81-21.62-7.81v78.13c0,10.13,10.27,13.9,34.32,11.33,26.09-2.76,24.87-11.35,23.82-18.39"/></svg>