<svg id="Layer_1" data-name="Layer 1" xmlns="http://www.w3.org/2000/svg" viewBox="0 0 1130 600"><defs><style>.cls-1{fill:#1b0a0c;}</style></defs><path class="cls-1" d="M387.78,343.22a27,27,0,0,1-4.72,16,30,30,0,0,1-13.18,10.34,49.08,49.08,0,0,1-19.38,3.58c-2,0-4.55-.12-7.5-.38a88.29,88.29,0,0,1-11.79-2.16,94.48,94.48,0,0,1-15.31-5.27V341.15a109.25,109.25,0,0,0,14.67,7.69,39.21,39.21,0,0,0,15.45,3q7.59,0,9.84-2.52a7.36,7.36,0,0,0,2.23-4.73c0-2.64-1.28-4.88-3.83-6.7a54.21,54.21,0,0,0-11.16-5.65,87.79,87.79,0,0,1-14.2-7.43,33.52,33.52,0,0,1-10-10,25.89,25.89,0,0,1-3.87-14.28,26.13,26.13,0,0,1,15.83-24.65q8-3.84,19.62-3.83a68.18,68.18,0,0,1,15.23,1.6,67.27,67.27,0,0,1,11.54,3.58,49.23,49.23,0,0,1,6.25,3.12v23.09a82.66,82.66,0,0,0-13.46-7.74,37.47,37.47,0,0,0-15.87-3.41q-5.54,0-8,2.13a6.63,6.63,0,0,0-2.49,5.25,6.44,6.44,0,0,0,2.49,5.06,44.06,44.06,0,0,0,8.88,5.18,178.29,178.29,0,0,1,18.18,9.59,35.93,35.93,0,0,1,10.69,9.84q3.87,5.58,3.87,13.88"/><path class="cls-1" d="M478.9,323.45a29.44,29.44,0,0,0-1.61-9.94,21.23,21.23,0,0,0-4.85-7.81,22.25,22.25,0,0,0-7.92-5.16,29.25,29.25,0,0,0-10.81-1.85q-11.71,0-18.41,6.83t-6.71,17.93q0,11.1,6.74,18t18.38,6.89a27.73,27.73,0,0,0,13.68-3.18,21.12,21.12,0,0,0,8.57-8.8,27.35,27.35,0,0,0,2.94-12.87m29.71,0a50.81,50.81,0,0,1-6.25,24.91,45.12,45.12,0,0,1-18.58,18.07q-12.34,6.68-30.07,6.69-17.93,0-30.34-7a45.49,45.49,0,0,1-18.46-18.35,52.36,52.36,0,0,1,0-48.73q6-11.32,18.45-18.28t30.38-6.94a66.86,66.86,0,0,1,23.89,4,47.54,47.54,0,0,1,17.27,10.78,45.52,45.52,0,0,1,10.26,15.84,52.36,52.36,0,0,1,3.48,19"/><path class="cls-1" d="M591.26,324q0-11.79-4.5-18.39a22.08,22.08,0,0,0-10.82-8.82,38.24,38.24,0,0,0-12.88-2.23h-12.4v57.27h12.4a35.62,35.62,0,0,0,19.82-5.44q8.37-5.44,8.38-22.39m29.64,1.25q0,14.87-5.4,23.86a51.45,51.45,0,0,1-12.74,14.59q-10.38,8.16-29.09,8.16H521.49V275.18h40.19a109.09,109.09,0,0,1,15.52.94,69.78,69.78,0,0,1,11.62,2.64,46.57,46.57,0,0,1,8.78,3.85,47.15,47.15,0,0,1,15.17,14.13,46.4,46.4,0,0,1,5.94,12.77,54.17,54.17,0,0,1,2.19,15.75"/><rect class="cls-1" x="632.82" y="275.18" width="29.17" height="96.69"/><polygon class="cls-1" points="788.32 371.87 759.17 371.87 759.17 315.85 732.87 348.3 730.56 348.3 704.19 315.85 704.19 371.87 675.88 371.87 675.88 275.18 702.31 275.18 732.03 311.45 761.89 275.18 788.32 275.18 788.32 371.87"/><path class="cls-1" d="M867.78,335.45l-14.16-35.29-14.29,35.29Zm44.44,36.42H882.38l-7.9-19.6h-42l-8,19.6H794.61l42.75-96.69H869.6Z"/><path class="cls-1" d="M1001.29,364.6a68.78,68.78,0,0,1-12.29,5,78.34,78.34,0,0,1-12.67,2.7,110.72,110.72,0,0,1-13.21.79,68.42,68.42,0,0,1-22.64-3.49,48.77,48.77,0,0,1-17.36-10.28,43.51,43.51,0,0,1-11-15.91,53,53,0,0,1-3.67-20,51.71,51.71,0,0,1,4.34-21.88A42.23,42.23,0,0,1,924.85,286a51.91,51.91,0,0,1,17.74-9.17,73,73,0,0,1,21-3q16.46,0,37.32,7.33v25.67a102.65,102.65,0,0,0-14.21-7.42,41.86,41.86,0,0,0-16.49-3,37.45,37.45,0,0,0-15.76,3.34,29.12,29.12,0,0,0-11.8,9.56,25.43,25.43,0,0,0-.56,27.95A27.7,27.7,0,0,0,952.9,347a33.5,33.5,0,0,0,15.67,3.59,50.41,50.41,0,0,0,13.31-1.71,60.44,60.44,0,0,0,10.58-3.8c2.85-1.4,5.8-3.06,8.83-4.94Z"/><path class="cls-1" d="M1021.17,354.51v4.09h2a4.6,4.6,0,0,0,2.39-.48,1.65,1.65,0,0,0,.73-1.49,1.84,1.84,0,0,0-.74-1.64,4.92,4.92,0,0,0-2.46-.48Zm-1.93-1.51h3.81a6.7,6.7,0,0,1,3.83.87,2.74,2.74,0,0,1,1.34,2.52,3.49,3.49,0,0,1-.77,2.21,3.11,3.11,0,0,1-2.06,1l2.74,5.66H1026l-2.45-5.42h-2.38v5.42h-1.93Z"/><path class="cls-1" d="M1023.19,349.4a9.76,9.76,0,0,0-7.79,3.82,10.32,10.32,0,0,0-1.59,2.89,10.54,10.54,0,0,0-.52,3.22,11.14,11.14,0,0,0,.71,3.82,10.2,10.2,0,0,0,2.17,3.15,10.9,10.9,0,0,0,3.25,2.23,9.82,9.82,0,0,0,7.53,0,10,10,0,0,0,3.27-2.16,8.51,8.51,0,0,0,2.2-3.18,10.29,10.29,0,0,0,.75-3.86,9.78,9.78,0,0,0-.75-3.76,9.5,9.5,0,0,0-2.13-3.19,10,10,0,0,0-3.22-2.23,10.35,10.35,0,0,0-3.88-.75m0,21.72a11.63,11.63,0,0,1-4.49-.89,12.79,12.79,0,0,1-3.81-2.61,11.79,11.79,0,0,1-2.54-3.8,11.55,11.55,0,0,1-.88-4.49,11.8,11.8,0,0,1,.62-3.82,11.47,11.47,0,0,1,1.88-3.43,11.27,11.27,0,0,1,4.07-3.31,12,12,0,0,1,9.73-.28,10.82,10.82,0,0,1,3.8,2.61,11.15,11.15,0,0,1,2.56,3.78,12,12,0,0,1,.87,4.45,12.65,12.65,0,0,1-.88,4.58,11.34,11.34,0,0,1-2.61,3.75,11.86,11.86,0,0,1-3.86,2.57,11.35,11.35,0,0,1-4.46.89"/><path class="cls-1" d="M241.71,240.69H205.48V226.88H177.86v13.81H141.79L95,294.21v77.66H288.3V294.21Zm-5.3,13.68,34.67,39.77H198.74l-34.82-39.78Zm-89.06-.11,34,39.92H112.43Zm37.4,103.8H108.81v-50h75.94Zm89.75,0H198.55v-50H274.5Z"/></svg>