<?xml version="1.0" encoding="utf-8"?>
<!-- Generator: Adobe Illustrator 25.2.1, SVG Export Plug-In . SVG Version: 6.00 Build 0)  -->
<svg version="1.1" id="Layer_1" xmlns="http://www.w3.org/2000/svg" xmlns:xlink="http://www.w3.org/1999/xlink" x="0px" y="0px"
	 viewBox="0 0 631 600" style="enable-background:new 0 0 631 600;" xml:space="preserve">
<style type="text/css">
	.st0{fill-rule:evenodd;clip-rule:evenodd;fill:#1B0A0C;}
</style>
<g>
	<path class="st0" d="M174,299.7c0,73.8,59.9,134.3,133.7,134.3C382,434,442,373.6,442,299.7S382,166,307.7,166
		C233.9,166,174,225.9,174,299.7z M195.3,299.7c0-61.9,50.5-112,112.5-112c62.4,0,112.9,50,112.9,112c0,62.4-50.5,112.5-112.9,112.5
		c-62.1,0.1-112.4-50.2-112.5-112.3C195.3,299.9,195.3,299.8,195.3,299.7L195.3,299.7z"/>
	<polygon class="st0" points="271.6,287.9 251.2,287.9 251.2,339.9 233.9,339.9 233.9,287.9 213.6,287.9 213.6,273 271.6,273 
		271.6,287.9 	"/>
	<polygon class="st0" points="279,273 296.8,273 320.6,314.1 320.6,314.1 320.6,273 336.9,273 336.9,339.9 319.1,339.9 295.8,298.3 
		295.3,298.3 295.3,339.9 279,339.9 279,273 	"/>
	<polygon class="st0" points="402.3,287.9 382.5,287.9 382.5,339.9 364.7,339.9 364.7,287.9 344.9,287.9 344.9,273 402.3,273 
		402.3,287.9 	"/>
</g>
</svg>
