<svg id="Layer_1" data-name="Layer 1" xmlns="http://www.w3.org/2000/svg" viewBox="0 0 631 600"><defs><style>.cls-1{fill:#1b0a0c;fill-rule:evenodd;}</style></defs><path class="cls-1" d="M83,299.58C83,423.52,183.6,525,307.54,525,432.31,525,533,423.52,533,299.58S432.31,75,307.54,75C183.6,75,83,175.65,83,299.58Zm35.77,0c0-104,84.84-188,188.82-188,104.8,0,189.65,84,189.65,188,0,104.81-84.85,188.82-189.65,188.82A188.68,188.68,0,0,1,118.72,299.58Z"/><polygon class="cls-1" points="246.82 279.62 212.71 279.62 212.71 366.96 183.6 366.96 183.6 279.62 149.5 279.62 149.5 254.67 246.82 254.67 246.82 279.62 246.82 279.62"/><polygon class="cls-1" points="259.29 254.67 289.24 254.67 329.16 323.71 329.16 323.71 329.16 254.67 356.61 254.67 356.61 366.96 326.67 366.96 287.57 297.09 286.74 297.09 286.74 366.96 259.29 366.96 259.29 254.67 259.29 254.67"/><polygon class="cls-1" points="466.41 279.62 433.14 279.62 433.14 366.96 403.19 366.96 403.19 279.62 369.92 279.62 369.92 254.67 466.41 254.67 466.41 279.62 466.41 279.62"/></svg>