<?xml version="1.0" encoding="utf-8"?>
<!-- Generator: Adobe Illustrator 25.2.1, SVG Export Plug-In . SVG Version: 6.00 Build 0)  -->
<svg version="1.1" id="Layer_1" xmlns="http://www.w3.org/2000/svg" xmlns:xlink="http://www.w3.org/1999/xlink" x="0px" y="0px"
	 viewBox="0 0 600 600" style="enable-background:new 0 0 600 600;" xml:space="preserve">
<style type="text/css">
	.st0{fill:#1B0A0C;}
</style>
<path class="st0" d="M192.7,214.7c-2.1,0-13.3,0.1-13.3,7.9l-0.1,18.4c0,1.7-0.9,2.6-2.6,2.6H169c-2.6,0-8,2.6-8,13.4
	s5.3,12.8,7.9,12.8h7.9c1.4,0.2,2.5,1.3,2.6,2.7v11l-0.1,34.6c0,8,8.2,35.6,34.8,35.6h6.5c12.2,0,21.7-11.5,21.7-15.7
	c0.1,0.1,0.2,0.1,0.2-1.2c0-3.8-2.3-7.2-5.8-8.6c-0.4-0.1-1.5-0.9-4.3,0c-2.8,0.9-6.1,2-10.4,2l-6.1-0.1
	c-4.4-0.1-10.2-6.6-10.5-14.6l0.3-43c-0.1-1.3,0.9-2.5,2.2-2.5c0.1,0,0.3,0,0.4,0h13.2c2.5,0,7.9-2.6,7.9-13.1s-5.4-13.2-8-13.2
	c-2,0-13.2,0.1-13.2,0.1c-1.5,0-2.6-0.5-2.6-2.6v-18.7C205.5,214.1,194.9,214.7,192.7,214.7z M381.4,243.7
	c-27.1,0.2-49.8,34-49.8,66.9v4.2c0,35.8,19.2,70.4,60.8,70.5h2.5c21.6-0.5,41.7-11.8,41.7-23.6c0-6.6-4-9.9-7.5-9.9
	c-10.1,0-13.1,9.9-30.7,9.9c-20.9,0-37.9-17-37.9-28.8V325c0-1.4,1.2-2.6,2.6-2.6c0,0,0,0,0,0l57.7-0.1c10.5,0,18.3-5.1,18.3-15.6
	v-8c0-22.2-17.7-54.9-48-54.9L381.4,243.7z M250.3,243.7c-9.6,0-13.2,4.2-13.2,9.5c0,6.3,5.7,19.8,13.1,38.7
	c9.9,25.4,17,48.4,20.9,53.6c2.6,4.4,6.6,8.1,14.4,8.1c8.2,0,11.8-3.9,14.4-8c4.2-5.3,34.2-85.8,34.2-92.3c0-4.2-4.1-9.5-13.2-9.5
	h-2.5c-5.3,0-9.4,5.3-10.6,8c-0.1,0.3-22.3,59-22.3,59l-2-5.3l-20.5-53.6c-1.5-4.2-5.1-8.1-10.4-8.1L250.3,243.7z M389.3,264.6
	c13.5,0,21.2,14.8,20.8,23.8c-0.1,2,0,8,0,8c-0.1,1.4-1.2,2.4-2.6,2.4c0,0,0,0,0,0h-44.4c-1.5,0-2.7-1.2-2.8-2.6v-2.8
	c0-15.7,12.4-28.6,23.9-28.6C386.1,264.7,386.5,264.6,389.3,264.6z"/>
</svg>
