<svg id="Layer_1" data-name="Layer 1" xmlns="http://www.w3.org/2000/svg" viewBox="0 0 600 600"><defs><style>.cls-1{fill:#1b0a0c;}</style></defs><path class="cls-1" d="M125.14,161c-3.47,0-21.64.19-21.64,12.95L103.37,204c0,2.77-1.51,4.27-4.27,4.27H86.41c-4.2,0-13,4.18-13,21.78s8.6,20.84,12.82,20.84H99.1a4.92,4.92,0,0,1,4.27,4.4v18l-.13,56.37c0,13.09,13.38,58,56.77,58h10.55c19.91,0,35.37-18.79,35.4-25.65.09.1.27.09.27-2a14.8,14.8,0,0,0-9.49-14c-.59-.24-2.5-1.47-7.08,0s-9.93,3.21-17,3.21l-9.89-.13c-7.22-.2-16.7-10.78-17.09-23.78l.53-70.13a3.9,3.9,0,0,1,4.27-4.14H172c4,0,12.82-4.3,12.82-21.37s-8.84-21.51-13.09-21.51c-3.31,0-21.5.13-21.5.13-2.48,0-4.28-.84-4.28-4.27V173.57C146,160,128.71,161,125.14,161Zm307.5,47.15c-44.11.3-81.21,55.44-81.21,109V324c0,58.32,31.32,114.83,99.11,115h4c35.29-.81,68-19.16,68-38.48,0-10.75-6.49-16.16-12.15-16.16-16.5,0-21.28,16.16-50.09,16.16-34.12,0-61.85-27.76-61.85-47V340.68a4.26,4.26,0,0,1,4.27-4.27l94-.14c17.18,0,29.79-8.37,29.79-25.51V297.67c0-36.17-28.81-89.5-78.28-89.5Zm-213.59.13c-15.57,0-21.51,6.79-21.51,15.5,0,10.32,9.37,32.32,21.38,63.05,16.19,41.43,27.75,78.85,34.06,87.36,4.31,7.1,10.73,13.22,23.51,13.22,13.31,0,19.21-6.4,23.51-13.09,6.77-8.66,55.7-139.94,55.7-150.54,0-6.88-6.66-15.5-21.5-15.5h-4c-8.69,0-15.4,8.59-17.23,13.09-.22.44-36.34,96.18-36.34,96.18l-3.34-8.68-33.39-87.36c-2.47-6.91-8.27-13.23-17-13.23ZM445.6,242.37c22.07,0,34.6,24.07,33.93,38.73-.13,3.3,0,13,0,13a4.06,4.06,0,0,1-4.27,3.88h-72.4a4.72,4.72,0,0,1-4.55-4.28v-4.54c0-25.65,20.29-46.62,38.88-46.62C440.45,242.5,441.11,242.37,445.6,242.37Z"/></svg>