<svg id="Layer_1" data-name="Layer 1" xmlns="http://www.w3.org/2000/svg" viewBox="0 0 600 600"><defs><style>.cls-1{fill:#1b0a0c;fill-rule:evenodd;}</style></defs><path class="cls-1" d="M67,448.75c34.68,2.57,68.29-2.56,100.1-17.07a172,172,0,0,0,40.23-23.8c-15.16-.79-28.76-4.14-41.29-10.67-21.63-11.16-36.82-28.33-46.12-50.88-2.14-5.58-2.14-5.58,3.9-5,15.07,1.39,26.17,1.06,35.26-2.48-8.42-2.74-16.11-4.76-23.12-8.6-32-17.84-48.95-45.1-51.82-81.89-.37-4.48.73-4.82,4.67-2.8,11.44,6,23.57,8.93,37.91,9.75a178.94,178.94,0,0,1-16.47-14.7c-26.48-28.18-32.91-74.17-15-108.88,2.38-4.64,3.39-4.64,6.86-.52,44.53,51.33,100.11,82.6,167.32,93.36,7.18,1.1,14.31,1.47,21.63,2.5,4.52.91,5.16-1.4,4.52-5.18-7.2-40.05,11.74-80.1,47.76-100.29,36.17-21.13,83.69-14.88,113.46,14.09,3.11,3,6.1,3.75,10.31,2.5a196.66,196.66,0,0,0,50.81-19.85,18.6,18.6,0,0,0,3.91-2.32c-7.08,22.51-20.62,39.35-40.63,52.92,18.91-1.8,35.32-7.29,51.79-13.57.36,2.47-1.28,4-2.14,5.33a200.56,200.56,0,0,1-39.89,40.84c-3,2.11-3.91,4.27-3.91,7.84,1.16,70.64-21.28,133.34-66.61,187.82-41.91,49.9-95.77,79.85-160.12,90C192.17,497.68,128,486,69.14,450.1A6.77,6.77,0,0,0,67,448.75Z"/></svg>