<?xml version="1.0" encoding="utf-8"?>
<!-- Generator: Adobe Illustrator 25.2.1, SVG Export Plug-In . SVG Version: 6.00 Build 0)  -->
<svg version="1.1" id="Layer_1" xmlns="http://www.w3.org/2000/svg" xmlns:xlink="http://www.w3.org/1999/xlink" x="0px" y="0px"
	 viewBox="0 0 600 600" style="enable-background:new 0 0 600 600;" xml:space="preserve">
<style type="text/css">
	.st0{fill-rule:evenodd;clip-rule:evenodd;fill:#1B0A0C;}
</style>
<path class="st0" d="M182.9,374.8c17.4,1.3,34.3-1.3,50.3-8.6c7.3-3,14.1-7.1,20.2-12c-7.6-0.4-14.5-2.1-20.8-5.4
	c-10.9-5.6-18.5-14.2-23.2-25.6c-1.1-2.8-1.1-2.8,2-2.5c7.6,0.7,13.2,0.5,17.7-1.2c-4.2-1.4-8.1-2.4-11.6-4.3
	c-16.1-9-24.6-22.7-26.1-41.2c-0.2-2.3,0.4-2.4,2.3-1.4c5.8,3,11.9,4.5,19.1,4.9c-2.9-2.3-5.7-4.8-8.3-7.4
	c-13.3-14.2-16.5-37.3-7.5-54.7c1.2-2.3,1.7-2.3,3.4-0.3c22.4,25.8,50.3,41.5,84.1,46.9c3.6,0.6,7.2,0.7,10.9,1.3
	c2.3,0.5,2.6-0.7,2.3-2.6c-3.6-20.1,5.9-40.3,24-50.4c18.2-10.6,42.1-7.5,57.1,7.1c1.6,1.5,3.1,1.9,5.2,1.3
	c8.9-2.1,17.5-5.5,25.5-10c0.7-0.3,1.4-0.7,2-1.2c-3.6,11.3-10.4,19.8-20.4,26.6c9.5-0.9,17.8-3.7,26-6.8c0.2,1.2-0.6,2-1.1,2.7
	c-5.7,7.8-12.4,14.7-20.1,20.5c-1.5,1.1-2,2.1-2,3.9c0.6,35.5-10.7,67-33.5,94.4c-21.1,25.1-48.2,40.2-80.5,45.3
	c-34.3,5.3-66.5-0.6-96.1-18.7C183.6,375.2,183.3,374.9,182.9,374.8z"/>
</svg>
