<?xml version="1.0" encoding="utf-8"?>
<!-- Generator: Adobe Illustrator 25.2.1, SVG Export Plug-In . SVG Version: 6.00 Build 0)  -->
<svg version="1.1" id="Layer_1" xmlns="http://www.w3.org/2000/svg" xmlns:xlink="http://www.w3.org/1999/xlink" x="0px" y="0px"
	 viewBox="0 0 1017 600" style="enable-background:new 0 0 1017 600;" xml:space="preserve">
<style type="text/css">
	.st0{fill:#1B0A0C;}
</style>
<g>
	<path class="st0" d="M201.4,216.7c0,0,15.5-9.3,24.8,0s71.2,99,80.5,111.5s12.4,0,15.5-6.2s40.2-102.2,46.4-114.5
		s18.6-12.4,27.9-9.3s18.6,18.6,12.4,34.1c-6.2,15.5-31,52.6-37.2,68.1c-6.2,15.5-24.8,65-31,83.6c-6.2,18.6-18.6,21.7-31,15.5
		c-12.4-6.2-65-68.1-102.2-133.1C192.1,238.4,189,229.1,201.4,216.7z"/>
	<path class="st0" d="M566.7,387c-3.1-12.3-31-74.3-46.4-117.7c-15.5-43.4-18.6-52.6-21.7-58.8c-3.1-6.2-9.3-15.5-21.7-15.5
		c0,0-15.5,0-21.7,18.6c-6.6,19.7-55.7,133.1-58.8,145.5c-3.1,12.4-9.3,34.1,6.2,43.3c15.5,9.3,24.8-9.3,27.9-24.8
		c3.1-15.5,15.4-27.4,27.8-27.4s34.1-0.4,40.3-0.4c6.2,0,10.3,2.4,16,12c5.7,9.6,16,34,26.3,40.4C551.2,408.7,569.8,399.4,566.7,387
		z M487.4,312.7l-28.5-0.1c-1.2,0-2.2-1-2.2-2.3c0-0.3,0.1-0.6,0.2-0.9l14-30.1c1.4-2.9,4.8-4.1,7.7-2.8c1.5,0.7,2.6,2,3,3.5
		c3.1,10.2,6.7,22.9,8.4,29c0.4,1.5-0.4,3.1-1.9,3.5C487.9,312.6,487.6,312.7,487.4,312.7z"/>
	<path class="st0" d="M692.5,202.1c0,0-60,23.2-76.5,32.9c-16.5,9.7-2,31.4,5.3,40.9s24.1,29.2,26.8,36.7
		c2.8,7.6,0.8,29.9-25.3,47.3c-26.1,17.4-26.1,17.4-33.9,22.3c-7.7,4.9-7.4,29.5,20.5,20.1c27.9-9.4,67.6-38.5,80.2-63.6
		c12.6-25.2-2.9-45.5-11.6-54.2c-8.7-8.7-27.1-20.3-12.6-33.9c14.5-13.6,34.2-21.4,43.5-26.1C720.6,218.6,712.9,195.4,692.5,202.1z"
		/>
	<path class="st0" d="M800,205c0,0-35.8,18.4-48.4,28.1c-12.6,9.7-17.6,28.5-5.4,42.8s17.6,23.4,26,36.7c8.4,13.4,9.4,30.8-10,41.5
		s-40.6,19.4-51.3,24.2c-10.7,4.8-12.6,15.5-6.8,22.3c5.8,6.8,38.7,0,63.9-12.6s45.5-31.9,49.4-59c3.9-27.1-13.9-41.2-24.9-53.1
		c-10.9-11.9-7.1-21.5,3.6-29.2s27.1-20.3,27.1-25.1S819.4,198.3,800,205z"/>
</g>
</svg>
