<svg xmlns="http://www.w3.org/2000/svg" viewBox="0 0 310 310"><defs><style>.cls-1{fill:#1b0a0c;}.cls-2{fill:none;}</style></defs><title>_LogoClienti_Netflix</title><g id="Layer_2" data-name="Layer 2"><g id="LOGO_CLIENTE" data-name="LOGO CLIENTE"><g id="Netflix_Logo_RGB"><path class="cls-1" d="M214.65,179q4.62.35,9.22.76V125.58h-9.22Zm-148.4-20.1-12-33.3H45.47v58.85q4.61-.66,9.22-1.26v-32l10.69,30.69c3.36-.39,6.72-.76,10.1-1.11V125.58H66.25Zm18.1,21Q97.1,178.74,110,178V168.9q-8.22.48-16.4,1.12V156.26c3.58,0,8.29-.14,12.46-.09v-9.09c-3.33,0-8.69,0-12.46.09V134.75H110v-9.17H84.35Zm31.53-45.14h9.66v42.5q4.61-.17,9.22-.29V134.75h9.66v-9.17H115.88Zm34.45,42h9.23v-21h12.5v-9.09h-12.5V134.75h16.52v-9.17H150.33Zm114.2-51.13H254.4l-6.68,15.48-6-15.48h-10l10.72,27.66-11.71,27.14c3.24.32,6.47.65,9.7,1l6.81-15.78L254,183c3.52.46,7,.93,10.52,1.43h0l-12-31Zm-73.31,0H182v51.59q12.57.43,25,1.27v-9.09q-7.89-.53-15.82-.9Z"/></g><circle id="Bounding" class="cls-2" cx="155" cy="155" r="155"/></g></g></svg>