<svg xmlns="http://www.w3.org/2000/svg" viewBox="0 0 310 310"><defs><style>.cls-1{fill:none;}</style></defs><title>Bundesliga_Logo</title><g id="Layer_2" data-name="Layer 2"><g id="LOGO_CLIENTE" data-name="LOGO CLIENTE"><circle id="Bounding" class="cls-1" cx="155" cy="155" r="155"/><path d="M228.23,160.81c.13.46-.28.77-1.09,1.37l-.5.27.17.33c.11.21-.08.53-.43.71l-.75.37c-.34.18-.71.14-.82-.07l-.15-.3-.94.46.15.32c.1.22-.1.53-.45.69l-.76.36c-.35.16-.72.11-.82-.11l-.14-.29c-2.92,1.38-6.17,2.83-9.54,4.39l.19.43c.11.21-.1.52-.44.69l-.77.35c-.35.16-.72.11-.81-.1l-.2-.43-1.08.53.2.43c.1.22-.09.53-.45.69l-.76.35c-.35.17-.72.12-.82-.1l-.19-.42c-1.53.61-3.19.87-4.41-1.4-.78-1.59-.3-5-1.54-5.38-.36-.19-.38-.16-.38-.16-14.82-2.84-19.84.32-29.33-2-3-.74-4.61-3.48-8.29-3.52-8-.24-10.39-.13-19.09-.45-.37,1.25-.42,1.53-.42,1.53L113,160.18l4.67,2.3,1.5,13.48s-1.23.36-1.6.4c.72,6.52.89,12.94,1,17.39,0,.32,0,.64-.07.95a7.14,7.14,0,0,1-.17,1.23,7,7,0,0,1-2.92,4.12,16.72,16.72,0,0,1-2.14,1.37l0,0a39.49,39.49,0,0,1-4.49,2.53,10.75,10.75,0,0,0,.44,1c-18.59,9-41.64,12-49.1,26.32-.86,1.66-3.9.79-4-1,0-.83,0-2.16,0-2.89h-.27c-.24,0-.42-.33-.4-.72l0-.84c0-.38.23-.68.47-.67l.32,0a16.57,16.57,0,0,1,.47-2.45l-.28-.1c-.23-.08-.3-.44-.18-.81l.28-.78c.14-.37.42-.59.66-.52l.27.1c1.33-3.09,3.89-4.48,5.08-7.39l-.19-.07c-.24-.09-.32-.44-.18-.81l.27-.79c.14-.36.42-.59.65-.51l.21.07c.18-.42.38-.9.62-1.36l-.25-.16c-.21-.14-.21-.51,0-.83l.45-.7c.2-.33.53-.49.74-.35l.11.06.11,0s.09,0,.15-.07a4.13,4.13,0,0,1,.37-.36,3.36,3.36,0,0,1,3.94-.06c1.17.71,5.73,3.31,10.13-.64,7.24-6.51,15.72-15.34,22.1-15.65-1.73-3.72-4.73-11.53-5.08-14.41l-2.14-.46c-1.11-2.4-3.83-13.48-4.59-21.81,0,0-.91-9,0-12.13-.49-.05-1.39.69-1.64.7-1.17-2.86,2.62-27,6.37-34.09l5.75-2.29c-.59-.07-4.75-.26-15.68-1.15-6.1,5.4-13.15,11.22-16.72,14.39-.6.44-1.62,3.9-1.62,3.9s-1.82,1.58-3.49,2.76c-2.21,1.55-7.62,2.74-8.79.91-.27-.46-.22-.66,0-.92.84-.88,4-2.39,5.08-4.39-1.73.86-3.66,1.79-5.17,1.63-.66,0-1-1.65-.14-2,2.3-1,4.12-1.39,5.47-3.29s2.89-3.06,5-3.1c0,0,10.16-13.28,16.15-19.58,1.66-1.73,4.73-1.16,4.73-1.16l.52-2s20.54-2.45,30.1.72c-.23-5.81,2.38-13.52,11.46-13.52,4.67,0,11.54,4.14,12.46,9.15.28,1.54-.61,2.56-1.08,4.51-.81,3,.32,6.23,0,7.27-.27.84-1.22.77-2,1.92a18.54,18.54,0,0,0-1.89,3.54h0L133.52,109l-6.42-.47,0,0h0c-2.34,5-7.15,15.33-8.82,25.54h0c5,.43,27.81,3.72,27.81,3.72l.55,1.86.27,0a60.67,60.67,0,0,1,17.19,4.85c1.75.43,6.17-.23,9.06,1.1.2-.12.68-.6.86-.74,10.24,3.15,18.71,8.52,28.58,10.91l6.18,1.43c9.7,1.54,11.44,1.07,15.16,1.35,1.63.14,3.64-.17,4.28,2.21m3-18.56A12.7,12.7,0,1,1,243.88,155,12.69,12.69,0,0,1,231.19,142.25Z"/></g></g></svg>