<svg xmlns="http://www.w3.org/2000/svg" viewBox="0 0 38.63 24.14"><defs><style>.cls-1{fill:#fff;}</style></defs><title>behance</title><g id="Capa_2" data-name="Capa 2"><g id="Home.navegacion"><path class="cls-1" d="M4.82,13.27h6c1.34,0,3.63.58,3.63,3.14,0,1.34-1.06,2.91-2.39,2.91H4.82ZM24.15,1.2H35V4.82H24.15Zm9.41,12.07h-8a3.93,3.93,0,0,1,4-3.59,4,4,0,0,1,4,3.59ZM25.35,15.7H38.63v-.62a8.76,8.76,0,0,0-9-9,8.76,8.76,0,0,0-9.07,9,8.76,8.76,0,0,0,9.07,9.06c5.43,0,8-3.11,8.85-7.25H33.56c-.44,2.12-1.71,3.63-4,3.63s-4.08-2.12-4.25-4.82Zm-6,1.19a6.09,6.09,0,0,0-4.11-5.71A6,6,0,0,0,12.08,0H0V24.14H12.08a7.27,7.27,0,0,0,7.25-7.25ZM10.84,9.68h-6V4.82h6a2.43,2.43,0,1,1,0,4.86Z"/></g></g></svg>