<?xml version="1.0" encoding="utf-8"?>
<!-- Generator: Adobe Illustrator 25.2.1, SVG Export Plug-In . SVG Version: 6.00 Build 0)  -->
<svg version="1.1" id="Layer_1" xmlns="http://www.w3.org/2000/svg" xmlns:xlink="http://www.w3.org/1999/xlink" x="0px" y="0px"
	 viewBox="0 0 660.7 195.6" style="enable-background:new 0 0 660.7 195.6;" xml:space="preserve">
<style type="text/css">
	.st0{fill:#4D4D4D;}
</style>
<path class="st0" d="M22.2,10.8H51l-8.6,54.6h62.6l8.6-54.7h28.8L121,146.9H92.2l8.6-54.3H38.2l-8.6,54.3H0.8L22.2,10.8z"/>
<path class="st0" d="M134.4,168.7c12.2,0,23.7-4.1,30-16l4.6-7.7l-25.8-94.3H171l15,62.2l34-62.2h31.1l-62.4,111.4
	c-14.8,26.2-33.4,33.4-58.5,33.4L134.4,168.7z"/>
<path class="st0" d="M273.3,133.5l-1.9,13.4h-27.6L266.9,1.1h27.6l-10.1,63c8.5-9.3,20.5-14.5,33.1-14.4c24.3,0,42.8,19.7,38.1,49
	s-26.6,49.2-53.7,49.2C288.8,147.9,278.5,142.3,273.3,133.5z M328.5,98.7c2.3-14.2-6.6-25.5-20.6-25.5s-26.5,11.1-29,25.5
	c-2.1,14.6,7,25.7,21,25.7S326.4,112.9,328.5,98.7z"/>
<path class="st0" d="M375,50.7h27.6l-2.5,15.9c9.3-10.7,23.9-17.3,40.6-17.1l-4.5,28.2c-12.1-6.2-36.6-1.4-41.4,21.8l-7.6,47.4
	h-27.6L375,50.7z"/>
<path class="st0" d="M449.2,50.7h27.6l-15.4,96.3h-27.6L449.2,50.7z M452.5,20.5c1.4-8,9.3-14.8,17.7-14.8s14.2,6.8,12.8,14.8
	c-1.4,8.6-9.3,15.4-17.5,15.4C457.2,35.9,451.2,29.1,452.5,20.5z"/>
<path class="st0" d="M479.6,98.7c4.7-29.4,28.6-49,53.7-49c13,0,23.3,5.6,28.6,14.4l10.2-63h27.4l-23.2,145.8h-27.4l1.9-13.4
	c-8.5,9.3-20.5,14.5-33.1,14.4C492.8,147.9,474.9,128.1,479.6,98.7z M556.4,98.7c2.3-14.4-7-25.5-21-25.5S509,84.5,506.6,98.7
	s6.6,25.7,20.6,25.7S554.1,113.3,556.4,98.7L556.4,98.7z"/>
<path class="st0" d="M620.6,5.3h-7l0.6-4.2h18.5l-0.6,4.2h-7l-2.7,17.3h-4.5L620.6,5.3z"/>
<path class="st0" d="M634.2,1.1h5.1l4.8,12.3l8.7-12.3h5.5L655,22.6h-4.5l2.2-13.8l-7.2,10.3h-3.9l-3.9-10.3l-2.2,13.7h-4.5
	L634.2,1.1z"/>
</svg>
