<svg id="Layer_1" data-name="Layer 1" xmlns="http://www.w3.org/2000/svg" viewBox="0 0 660.65 195.56"><path d="M22.21,10.8H51L42.44,65.45h62.62l8.55-54.65H142.4L121,146.93H92.22l8.56-54.26H38.16L29.6,146.93H.82Z"/><path d="M134.42,168.71c12.25,0,23.72-4.08,30-16L169,145,143.17,50.67H171l15,62.23,34-62.23H251.1L188.68,162.1c-14.78,26.25-33.45,33.45-58.54,33.45Z"/><path d="M273.26,133.51l-1.94,13.42H243.7L266.85,1.08h27.61l-10.11,63a44.37,44.37,0,0,1,33.06-14.39c24.31,0,42.78,19.65,38.12,49s-26.65,49.2-53.68,49.2C288.82,147.9,278.51,142.26,273.26,133.51ZM328.49,98.7c2.34-14.2-6.61-25.48-20.61-25.48s-26.45,11.09-29,25.48c-2.14,14.59,7,25.67,21,25.67S326.35,112.9,328.49,98.7Z"/><path d="M375,50.67h27.61l-2.53,15.94C409.39,55.92,424,49.3,440.7,49.5l-4.47,28.2c-12.06-6.23-36.56-1.36-41.43,21.78l-7.58,47.45H359.6Z"/><path d="M449.25,50.67h27.61L461.5,146.93H433.89Zm3.3-30.15c1.37-8,9.34-14.78,17.7-14.78s14.2,6.81,12.84,14.78c-1.36,8.56-9.34,15.37-17.51,15.37C457.22,35.89,451.19,29.08,452.55,20.52Z"/><path d="M479.58,98.7c4.67-29.36,28.59-49,53.68-49,13,0,23.33,5.64,28.58,14.39L572,1.08h27.42L576.24,146.93H548.82l1.94-13.42A44.06,44.06,0,0,1,517.7,147.9C492.81,147.9,474.92,128.07,479.58,98.7Zm76.82,0c2.33-14.39-7-25.48-21-25.48S509,84.5,506.61,98.7s6.62,25.67,20.62,25.67S554.07,113.29,556.4,98.7Z"/><path d="M620.64,5.27h-7l.64-4.18H632.8l-.64,4.18h-7L622.45,22.6h-4.51Z"/><path d="M634.25,1.09h5.13l4.82,12.32,8.69-12.32h5.53L655,22.6H650.5l2.15-13.8-7.22,10.33h-3.9L637.6,8.87,635.42,22.6h-4.55Z"/></svg>