<svg xmlns="http://www.w3.org/2000/svg" viewBox="0 0 33.92 33.92"><defs><style>.cls-1{fill:#fff;}</style></defs><title>inst</title><g id="Capa_2" data-name="Capa 2"><g id="Home.navegacion"><path class="cls-1" d="M27.36,0H6.55A6.56,6.56,0,0,0,0,6.55V27.37a6.56,6.56,0,0,0,6.55,6.55H27.36a6.56,6.56,0,0,0,6.56-6.55V6.55A6.56,6.56,0,0,0,27.36,0Zm1.89,3.91H30V9.66H24.27l0-5.74ZM12.12,13.48a5.95,5.95,0,0,1,9.68,0,5.5,5.5,0,0,1,.36.57A5.85,5.85,0,0,1,22.93,17,6,6,0,0,1,11,17a5.85,5.85,0,0,1,.77-2.91A5.5,5.5,0,0,1,12.12,13.48Zm18.5,13.89a3.26,3.26,0,0,1-3.26,3.25H6.55A3.26,3.26,0,0,1,3.3,27.37V13.48H8.37a7.76,7.76,0,0,0-.33,1A9.13,9.13,0,0,0,7.69,17a9.28,9.28,0,1,0,18.55,0,9.13,9.13,0,0,0-.36-2.52,7.76,7.76,0,0,0-.33-1h5.07V27.37Z"/></g></g></svg>