<svg xmlns="http://www.w3.org/2000/svg" viewBox="0 0 33.92 33.92"><defs><style>.cls-1{fill:#fff;}</style></defs><title>link</title><g id="Capa_2" data-name="Capa 2"><g id="Home.navegacion"><polygon id="_Trazado_" data-name="&lt;Trazado&gt;" class="cls-1" points="0 17.31 0 33.92 7.92 33.92 7.92 15.97 7.92 11.31 0 11.31 0 17.31"/><path id="_Trazado_2" data-name="&lt;Trazado&gt;" class="cls-1" d="M4,0a4,4,0,1,0,4,4A4,4,0,0,0,4,0Z"/><path id="_Trazado_3" data-name="&lt;Trazado&gt;" class="cls-1" d="M33.75,18.25c-.54-4.26-2.49-6.94-8.26-6.94-3.41,0-5.71,1.27-6.65,3h-.1v-3h-6.3V33.92H19V22.71c0-2.95.56-5.81,4.21-5.81s3.9,3.37,3.9,6v11h6.78V21.49h0A25.48,25.48,0,0,0,33.75,18.25Z"/></g></g></svg>