<?xml version="1.0" encoding="utf-8"?>
<!-- Generator: Adobe Illustrator 23.0.1, SVG Export Plug-In . SVG Version: 6.00 Build 0)  -->
<svg version="1.1" id="Capa_1" xmlns="http://www.w3.org/2000/svg" xmlns:xlink="http://www.w3.org/1999/xlink" x="0px" y="0px"
	 viewBox="0 0 195.4 67.5" style="enable-background:new 0 0 195.4 67.5;" xml:space="preserve">
<style type="text/css">
	.st0{fill:#FFFFFF;}
</style>
<title>logo_ds</title>
<g>
	<g id="Home">
		<path class="st0" d="M15.4,3.7h12.1l15.4,36.8H29.6l-1.9-4.9H14.9L13,40.5H0L15.4,3.7z M24.7,26.9L21.3,18L18,26.9H24.7z"/>
		<path class="st0" d="M44,12h11.9v4c0.5-0.6,1-1.2,1.6-1.7c0.6-0.6,1.3-1.1,2-1.5s1.5-0.8,2.4-1.1s1.8-0.4,2.8-0.4
			c2.7-0.1,5.2,0.9,7.1,2.8c1.8,2.1,2.8,4.8,2.6,7.6v18.7H62.5v-15c0.1-1-0.3-2-0.9-2.8c-0.6-0.6-1.4-1-2.3-1c-0.9,0-1.7,0.4-2.3,1
			c-0.7,0.8-1.1,1.8-1,2.8v15H44V12z"/>
		<path class="st0" d="M89.1,41.1c-1.7,0-3.3-0.4-4.8-1.1c-1.5-0.7-2.8-1.7-3.9-3c-1.1-1.4-2-2.9-2.6-4.6c-0.7-1.9-1-4-0.9-6v-0.1
			c0-2.1,0.3-4.2,1-6.2c0.6-1.7,1.5-3.3,2.6-4.7c1-1.3,2.4-2.3,3.8-3c1.5-0.7,3.1-1.1,4.7-1.1c1.8-0.1,3.6,0.3,5.2,1.2
			c1.2,0.7,2.4,1.6,3.3,2.7V2.4h11.9v38H97.5V37c-0.5,0.5-1,1-1.5,1.5s-1.1,1-1.8,1.3c-0.7,0.4-1.5,0.7-2.3,0.9
			C91,41,90,41.1,89.1,41.1z M93,31.4c1.3,0,2.5-0.5,3.4-1.5s1.4-2.3,1.3-3.6v-0.1c0-0.7-0.1-1.4-0.4-2c-0.2-0.6-0.6-1.2-1-1.6
			c-0.4-0.5-0.9-0.8-1.5-1.1c-0.6-0.3-1.2-0.4-1.9-0.4c-1.3,0-2.5,0.5-3.4,1.5s-1.4,2.3-1.3,3.6v0.1c0,1.3,0.4,2.7,1.3,3.6
			C90.5,30.9,91.7,31.4,93,31.4z"/>
		<path class="st0" d="M112.9,12h11.9v5.7c0.7-1.8,1.8-3.3,3.3-4.6c1.6-1.2,3.6-1.8,5.6-1.6v12.6h-1.3c-2.1-0.1-4.2,0.6-5.7,2.2
			c-1.3,1.4-2,3.7-2,6.9v7.2h-11.8C112.9,40.4,112.9,12,112.9,12z"/>
		<path class="st0" d="M150.4,41.1c-2.2,0-4.3-0.3-6.4-1.1c-1.8-0.7-3.5-1.7-4.9-3s-2.5-2.9-3.2-4.6c-0.8-1.9-1.2-3.9-1.1-6v-0.1
			c0-2,0.4-4,1.1-5.9c0.7-1.8,1.7-3.4,3-4.8s2.9-2.4,4.6-3.1c1.9-0.8,3.9-1.2,5.9-1.1c2.3-0.1,4.5,0.4,6.6,1.2
			c1.8,0.8,3.4,1.9,4.6,3.4c1.2,1.5,2.2,3.2,2.7,5c0.6,2,0.9,4,0.9,6.1v1c0,0.4,0,0.7,0,1h-18.3c0.3,1.1,1,2.1,2,2.8
			c1,0.7,2.1,1,3.3,1c1,0,2.1-0.2,3-0.7c1-0.6,2-1.3,2.8-2.2l6.4,5.1c-1.4,1.8-3.2,3.4-5.2,4.5C155.8,40.7,153.1,41.3,150.4,41.1z
			 M153.4,23.8c-0.1-1.2-0.5-2.3-1.3-3.1c-0.7-0.7-1.6-1.1-2.6-1.1s-1.9,0.4-2.5,1.1c-0.7,0.9-1.1,2-1.3,3.1H153.4z"/>
		<path class="st0" d="M181.6,41.1c-2.2,0-4.3-0.3-6.4-1.1c-1.8-0.7-3.5-1.7-4.9-3s-2.5-2.9-3.2-4.6c-0.8-1.9-1.1-3.9-1.1-6v-0.1
			c0-2,0.4-4,1.1-5.9c0.7-1.8,1.7-3.4,3-4.8s2.9-2.4,4.6-3.1c1.9-0.8,3.9-1.2,5.9-1.1c2.3-0.1,4.5,0.4,6.6,1.2
			c1.8,0.7,3.4,1.9,4.6,3.4c1.2,1.5,2.2,3.2,2.7,5c0.6,2,0.9,4,0.9,6.1v1c0,0.4,0,0.7-0.1,1H177c0.3,1.1,1,2.1,2,2.8
			c1,0.7,2.1,1,3.3,1c1,0,2.1-0.2,3-0.7c1-0.6,2-1.3,2.8-2.2l6.4,5.1c-1.4,1.8-3.2,3.4-5.2,4.5C186.9,40.7,184.3,41.2,181.6,41.1z
			 M181,0l11.5,3l-8.5,7h-8L181,0z M184.6,23.8c-0.1-1.2-0.5-2.3-1.3-3.1c-0.7-0.7-1.7-1.1-2.7-1.1s-1.9,0.4-2.5,1.1
			c-0.7,0.9-1.2,2-1.3,3.1H184.6z"/>
		<path class="st0" d="M1,57.2h5.7v1.7H1V57.2z"/>
		<path class="st0" d="M16.3,49.8h1.6l5.3,7.9l5.3-7.9H30v14.4h-1.6V52.5l-5.3,7.7H23l-5.3-7.7v11.6h-1.6V49.8H16.3z"/>
		<path class="st0" d="M33.2,58.9L33.2,58.9c0.1-3.1,2.7-5.4,5.8-5.3c2.9,0.1,5.2,2.4,5.3,5.3l0,0c0,3.1-2.4,5.5-5.5,5.6h-0.1
			c-3,0-5.5-2.4-5.5-5.4C33.2,59,33.2,59,33.2,58.9z M42.7,58.9L42.7,58.9c0.1-2.2-1.6-4.1-3.8-4.2h-0.1c-2.2,0-3.9,1.8-3.9,4v0.1
			l0,0c-0.1,2.2,1.6,4.1,3.9,4.1c0,0,0,0,0.1,0c2.2,0,3.9-1.8,3.9-3.9C42.7,59,42.7,59,42.7,58.9z"/>
		<path class="st0" d="M47.7,61.3v-6.4h-1.5v-1.4h1.5v-3.2h1.6v3.2h3.4v1.4h-3.4v6.2c-0.1,0.9,0.5,1.7,1.4,1.8c0.1,0,0.3,0,0.4,0
			c0.5,0,1.1-0.1,1.5-0.4v1.3c-0.6,0.3-1.3,0.5-1.9,0.5c-1.5,0.2-2.8-0.9-3-2.4C47.7,61.8,47.7,61.6,47.7,61.3z"/>
		<path class="st0" d="M55.5,49.5h1.8v1.8h-1.8V49.5z M55.6,53.5h1.6v10.6h-1.6V53.5z"/>
		<path class="st0" d="M60.2,58.9L60.2,58.9c0-3.1,2.5-5.5,5.6-5.5c3.1,0,5.5,2.5,5.5,5.5l0,0c0,3.1-2.4,5.5-5.5,5.6h-0.1
			c-3,0-5.5-2.4-5.5-5.4C60.2,59,60.2,59,60.2,58.9z M69.7,58.9L69.7,58.9c0.1-2.2-1.6-4.1-3.8-4.2c-0.1,0-0.1,0-0.2,0
			c-2.2,0-3.9,1.8-3.9,4c0,0.1,0,0.1,0,0.2l0,0c-0.1,2.2,1.6,4.1,3.9,4.1h0.1c2.2,0,3.9-1.8,3.9-3.9C69.7,59,69.7,59,69.7,58.9z"/>
		<path class="st0" d="M74.2,53.5h1.6v1.8c0.7-1.3,2.1-2.1,3.7-2.1c2.6,0,4.1,1.7,4.1,4.3v6.6H82V58c0-2-1.1-3.2-3-3.2
			c-1.7,0-3.2,1.3-3.2,3.1c0,0.1,0,0.2,0,0.3v6.1h-1.5L74.2,53.5L74.2,53.5z"/>
		<path class="st0" d="M93.3,49.8h5c4.5,0,7.7,3.1,7.7,7.2l0,0c0,4-3.1,7.2-7.7,7.2h-5V49.8z M94.9,51.3v11.4h3.4c3.7,0,6-2.5,6-5.7
			l0,0c0.1-3.1-2.4-5.7-5.5-5.7c-0.2,0-0.3,0-0.5,0L94.9,51.3z"/>
		<path class="st0" d="M108.5,58.9L108.5,58.9c-0.2-2.9,2.1-5.4,5-5.5c0.1,0,0.1,0,0.2,0c3.2,0,5,2.5,5,5.6c0,0.2,0,0.3,0,0.5h-8.4
			c0.1,2,1.7,3.6,3.7,3.6c1.3,0,2.5-0.5,3.4-1.5l1,0.9c-1.1,1.3-2.7,2-4.4,2c-2.9,0.1-5.3-2.3-5.4-5.2
			C108.5,59.1,108.5,59,108.5,58.9z M116.9,58.3c-0.2-1.9-1.3-3.6-3.4-3.6c-1.8,0-3.3,1.5-3.4,3.6H116.9z"/>
		<path class="st0" d="M120.4,62.8l0.8-1.1c1.1,0.8,2.3,1.3,3.7,1.3c1.3,0,2.2-0.7,2.2-1.7l0,0c0-1.1-1.3-1.5-2.7-1.9
			c-1.7-0.5-3.5-1-3.5-3l0,0c0-1.8,1.5-3,3.6-3c1.4,0,2.7,0.4,3.8,1.2l-0.7,1.2c-0.9-0.6-2-1-3.2-1c-1.3,0-2.1,0.7-2.1,1.5l0,0
			c0,1,1.3,1.4,2.7,1.8c1.6,0.5,3.4,1.1,3.4,3l0,0c0,2-1.7,3.2-3.8,3.2C123.2,64.4,121.7,63.8,120.4,62.8z"/>
		<path class="st0" d="M131.6,49.5h1.8v1.8h-1.8V49.5z M131.7,53.5h1.6v10.6h-1.6V53.5z"/>
		<path class="st0" d="M136.9,66l0.7-1.2c1.2,0.9,2.6,1.4,4.1,1.4c2.4,0,3.9-1.3,3.9-3.8v-1.2c-0.9,1.4-2.5,2.3-4.2,2.3
			c-2.7,0-5-2.1-5-4.8c0-0.1,0-0.1,0-0.2l0,0c-0.1-2.8,2.1-5.1,4.9-5.1c1.7,0,3.3,0.8,4.3,2.2v-1.9h1.6v8.8c0.1,1.4-0.4,2.7-1.4,3.8
			c-1.1,1-2.6,1.5-4.1,1.4C140,67.5,138.3,67,136.9,66z M145.6,58.3L145.6,58.3c-0.1-2.1-1.8-3.7-3.8-3.6c0,0,0,0-0.1,0
			c-1.9-0.1-3.6,1.4-3.7,3.4c0,0.1,0,0.1,0,0.2l0,0c-0.1,2,1.5,3.7,3.5,3.7c0.1,0,0.1,0,0.2,0C143.7,62.1,145.5,60.5,145.6,58.3
			C145.6,58.4,145.6,58.4,145.6,58.3L145.6,58.3z"/>
		<path class="st0" d="M150.6,53.5h1.6v1.8c0.7-1.3,2.1-2.1,3.6-2.1c2.6,0,4.1,1.7,4.1,4.3v6.6h-1.6V58c0-2-1.1-3.2-3-3.2
			c-1.7,0-3.2,1.3-3.2,3.1c0,0.1,0,0.2,0,0.3v6.1h-1.6L150.6,53.5z"/>
		<path class="st0" d="M162.7,58.9L162.7,58.9c-0.2-2.9,2.1-5.4,4.9-5.5c0,0,0.1,0,0.2,0c3.1,0,5,2.5,5,5.6c0,0.2,0,0.3,0,0.5h-8.4
			c0.1,2,1.7,3.5,3.7,3.5c1.3,0,2.5-0.5,3.4-1.5l1,0.9c-1.1,1.3-2.7,2-4.4,2c-2.9,0-5.3-2.3-5.3-5.3C162.7,59,162.7,59,162.7,58.9z
			 M171.1,58.3c-0.2-1.9-1.3-3.6-3.4-3.6c-1.9,0-3.3,1.5-3.5,3.6H171.1z"/>
		<path class="st0" d="M175.5,53.5h1.6v2.8c0.7-1.8,2.4-3,4.3-3V55h-0.1c-2.3,0-4.2,1.7-4.2,4.9v4.2h-1.6V53.5z"/>
		<path class="st0" d="M189.6,57.2h5.7v1.7h-5.7V57.2z"/>
	</g>
</g>
</svg>
