<?xml version="1.0" encoding="utf-8"?>
<!-- Generator: Adobe Illustrator 22.1.0, SVG Export Plug-In . SVG Version: 6.00 Build 0)  -->
<svg version="1.1" id="Capa_1" xmlns="http://www.w3.org/2000/svg" xmlns:xlink="http://www.w3.org/1999/xlink" x="0px" y="0px"
	 viewBox="0 0 36 34.2" style="enable-background:new 0 0 36 34.2;" xml:space="preserve">
<style type="text/css">
	.st0{fill:#FFFFFF;}
</style>
<title>menu</title>
<g id="Capa_2_1_">
	<g id="Home.navegacion">
		<path class="st0" d="M4.1,0h27.8C34.2,0,36,1.8,36,4.1v0c0,2.3-1.8,4.1-4.1,4.1H4.1C1.8,8.2,0,6.3,0,4.1v0C0,1.8,1.8,0,4.1,0z"/>
		<path class="st0" d="M4.1,13h27.8c2.3,0,4.1,1.8,4.1,4.1v0c0,2.3-1.8,4.1-4.1,4.1H4.1c-2.3,0-4.1-1.8-4.1-4.1v0
			C0,14.8,1.8,13,4.1,13z"/>
		<path class="st0" d="M4.1,26h27.8c2.3,0,4.1,1.8,4.1,4.1v0c0,2.3-1.8,4.1-4.1,4.1H4.1c-2.3,0-4.1-1.8-4.1-4.1v0
			C0,27.8,1.8,26,4.1,26z"/>
	</g>
</g>
</svg>
