<svg xmlns="http://www.w3.org/2000/svg" viewBox="0 0 33.92 27.14"><defs><style>.cls-1{fill:#fff;}</style></defs><title>twet</title><g id="Capa_2" data-name="Capa 2"><g id="Home.navegacion"><path id="_Trazado_" data-name="&lt;Trazado&gt;" class="cls-1" d="M33.92,3.21a13.61,13.61,0,0,1-4,1.08A6.89,6.89,0,0,0,33,.5a13.87,13.87,0,0,1-4.42,1.66A7,7,0,0,0,23.49,0a6.91,6.91,0,0,0-7,6.85,6.66,6.66,0,0,0,.18,1.56A19.86,19.86,0,0,1,2.36,1.25,6.79,6.79,0,0,0,4.52,10.4a7,7,0,0,1-3.15-.86v.09a6.79,6.79,0,0,0,.47,2.48A7,7,0,0,0,7,16.35a7.42,7.42,0,0,1-1.84.24,6.4,6.4,0,0,1-1.31-.13,7,7,0,0,0,6.51,4.76,14.13,14.13,0,0,1-8.65,2.94A15.25,15.25,0,0,1,0,24.06a20,20,0,0,0,10.67,3.08A19.37,19.37,0,0,0,30,11.78a18.89,18.89,0,0,0,.47-4.13c0-.3,0-.6,0-.89A13.94,13.94,0,0,0,33.92,3.21Z"/></g></g></svg>