<svg xmlns="http://www.w3.org/2000/svg" viewBox="0 0 38.91 33.72"><defs><style>.cls-1{fill:#fff;}</style></defs><title>vimeo</title><g id="Capa_2" data-name="Capa 2"><g id="Home.navegacion"><path class="cls-1" d="M38.89,7.8Q38.64,13.5,31,23.39,23,33.73,17.53,33.72q-3.41,0-5.76-6.29-1.56-5.78-3.14-11.54Q6.89,9.6,4.88,9.6a11.94,11.94,0,0,0-3,1.83L0,9.07Q2.88,6.54,5.68,4,9.52.67,11.44.5,16,.05,17,6.72q1.13,7.19,1.57,8.93c.87,4,1.83,6,2.88,6q1.23,0,3.67-3.87c1.63-2.57,2.5-4.54,2.62-5.88q.34-3.34-2.62-3.34a7.2,7.2,0,0,0-2.88.64Q25.15-.26,33.24,0q6,.17,5.65,7.79Z"/></g></g></svg>