<svg id="Layer_1" data-name="Layer 1" xmlns="http://www.w3.org/2000/svg" viewBox="0 0 839 716"><defs><style>.cls-1,.cls-2,.cls-4,.cls-5,.cls-6{fill:none;}.cls-1,.cls-5{stroke:#ffc81a;stroke-width:64px;}.cls-1,.cls-2,.cls-4,.cls-5,.cls-6,.cls-7,.cls-8{stroke-linecap:round;stroke-linejoin:round;}.cls-2,.cls-4,.cls-6,.cls-7,.cls-8{stroke:#1b0a0c;}.cls-2{stroke-width:6px;}.cls-3,.cls-8{fill:#1b0a0c;}.cls-4,.cls-7{stroke-width:5px;}.cls-5{stroke-dasharray:75.05 75.05;}.cls-6,.cls-8{stroke-width:8px;}.cls-7{fill:#fff;}</style></defs><path class="cls-1" d="M213.78,179.41c26.24,0,26.24,28,52.48,28s26.24-28,52.48-28,26.25,28,52.49,28,26.24-28,52.48-28,26.24,28,52.49,28,26.24-28,52.48-28,26.25,28,52.49,28,26.25-28,52.49-28"/><path class="cls-2" d="M291.62,210.9a24.21,24.21,0,1,1-1.82-36.11"/><path class="cls-2" d="M549.4,210.9a24.21,24.21,0,1,0,1.82-36.11"/><circle class="cls-3" cx="353.87" cy="178.11" r="8.96"/><circle class="cls-3" cx="487.15" cy="178.11" r="8.96"/><path class="cls-4" d="M431.47,195.25a11,11,0,0,1-21.92,0"/><line class="cls-1" x1="633.66" y1="372.15" x2="597.92" y2="357.85"/><polyline class="cls-5" points="528.24 358.34 493.71 372.15 423.73 344.15 353.75 372.15 284.36 344.39"/><line class="cls-1" x1="249.52" y1="357.85" x2="213.78" y2="372.15"/><path class="cls-2" d="M291.62,375.39a24.2,24.2,0,1,1-1.82-36.1"/><path class="cls-2" d="M549.4,375.39a24.2,24.2,0,1,0,1.82-36.1"/><path class="cls-6" d="M344.08,346.71s9.9-6.85,18.66,0"/><path class="cls-6" d="M478.12,346.71s9.9-6.85,18.66,0"/><path class="cls-7" d="M377.59,355.85s44.07-14.89,93.3,0c0,0-10.95,24.37-45.32,24.37C388.63,380.22,377.59,355.85,377.59,355.85Z"/><line class="cls-1" x1="213.78" y1="522.49" x2="633.66" y2="522.49"/><path class="cls-2" d="M291.62,539.89a24.21,24.21,0,1,1-1.82-36.11"/><path class="cls-2" d="M549.4,539.89a24.21,24.21,0,1,0,1.82-36.11"/><circle class="cls-3" cx="353.87" cy="507.1" r="8.96"/><circle class="cls-3" cx="487.15" cy="507.1" r="8.96"/><circle class="cls-8" cx="421.27" cy="523.86" r="13.15"/></svg>