<svg viewBox="0 0 310 310" xmlns="http://www.w3.org/2000/svg"><circle cx="155" cy="155" fill="none" r="155"/><path d="m21.21 169c-2.92-.42-5.05-2-5.67-4.05a24.39 24.39 0 0 1 0-7.86c.8-2.75 1.42-4.06 8.39-4.34 1.93-.08 8.38 0 10.56.06 2.66 0 3.26 1 4.48 1.6a21.07 21.07 0 0 0 0-3.61 3 3 0 0 0 -2.47-1.67c-3.28-.16 2-.08-10 0-.34.31-1.09 1.15-1.49 1.61-.27.3 0 .26-4.29.26h-4.72l.16-1.48c.36-3.15 1.74-4.94 4.44-5.77a12.9 12.9 0 0 1 4.77-.69h15a6.61 6.61 0 0 1 3.19.79 7.8 7.8 0 0 1 4.93 6.68c.31 6.48.23 11.53.24 18.24h-9v-1.31a3.12 3.12 0 0 0 -.14-1.3 7.11 7.11 0 0 0 -1.19.93 7.12 7.12 0 0 1 -4.19 1.91 104.45 104.45 0 0 1 -13 0zm16.58-6.24a1.94 1.94 0 0 0 1.47-2.26c-.26-3.5-10.81-2.82-14.26-1.43a2.46 2.46 0 0 0 -.11 3.27c.87.81 2.14 1 7.16.9 3.89-.05 4.95-.14 5.74-.49zm23.35 6.24c-5.42-.74-8-3.08-9.13-8.11a39.8 39.8 0 0 1 -.15-5.82c.09-4.1.16-4.82.63-6a8.11 8.11 0 0 1 5.16-5.23c1.31-.49 1.84-.52 10.12-.6 9.57-.1 11 0 13.35 1.12 2.95 1.39 4.11 3.29 4.27 6.93l.1 2.31h-9l-.24-.9c-.52-1.92-1.64-2.41-5.93-2.58-5-.2-7.45.33-8.62 1.9-.45.6-.5 1-.5 3.79 0 2.51.08 3.27.41 3.87 1 1.83 2.81 2.3 8.24 2.17 3.33-.08 3.79-.15 4.85-.68s1.23-.72 1.54-1.71l.35-1.12h8.94l-.1 2.31c-.16 3.6-1.41 5.73-4.19 7.14-2.24 1.21-3.24 1.29-11.24 1.36-4.1 0-8.11 0-8.9-.14zm39.5 0c-3.55-.54-5.65-1.86-6.92-4.34l-.83-1.66-.15-12.71h-4.74v-6.87h4.74v-5.92h9.47v5.92h14.92v6.87h-14.88c.3 11-.06 0 .25 10.93.4.73 1.69 1.14 3.59 1.14 3 0 3.93-.87 4-3.61v-1.12h8v2.42c0 2.86-.21 3.77-1.25 5.32a8.6 8.6 0 0 1 -4.63 3.17c-1.31.42-2.29.52-5.84.59a50 50 0 0 1 -5.75-.16zm42.69.11a14.21 14.21 0 0 1 -4-1.08 8.8 8.8 0 0 1 -3.43-3.36c-.9-1.8-1.21-3.95-1.21-8.31 0-5.95.52-8.29 2.31-10.34a10.09 10.09 0 0 1 4.74-2.54c2-.42 19.94-.35 21.54.07a7.85 7.85 0 0 1 5.6 4.4c.9 2 1.08 3.39 1.08 8.26 0 4.55-.3 6.84-1.07 8.32a9.55 9.55 0 0 1 -3.52 3.48c-2.1 1.06-4 1.24-13.17 1.22-4.62 0-8.62-.07-8.88-.12zm15-7.47a5.22 5.22 0 0 0 1.42-1c.57-.62.6-.79.66-4.12.08-3.92-.15-4.75-1.53-5.55-1-.59-4.76-1-8.13-.8-5.42.27-6.62 1.38-6.63 6.1 0 3.58.9 4.94 3.72 5.65 1.48.37 9.51.16 10.49-.27zm58.2 7.38a8.42 8.42 0 0 1 -4.29-1.85 8.3 8.3 0 0 1 -1.14-1.82c-.47-1-.53-1.58-.54-4.38 0-3 0-3.26.66-4.57 1.5-3.06 4.7-3.87 14.33-3.65 5.4.12 6.89.37 8.15 1.36a2.75 2.75 0 0 0 .74.47c.29 0 .13-3.12-.2-3.9-.63-1.52-1.25-1.67-7-1.67-4.47 0-5.18.06-5.74.42a2 2 0 0 0 -.78 1l-.15.59h-9.16l.12-1.25c.31-3 1.35-4.71 3.35-5.57s3.75-1 13.44-.95c9.08.07 9.25.08 10.63.64a8.38 8.38 0 0 1 4.42 4.4c.82 20.48 0-.18.73 20.49h-9v-1.31a3.12 3.12 0 0 0 -.14-1.3 8.19 8.19 0 0 0 -1.3 1.05c-1.94 1.74-2.52 1.85-9.57 1.93-3.39.04-6.77-.03-7.52-.15zm15.21-5.93c1.8-.28 2.63-.81 2.93-1.85a2.15 2.15 0 0 0 -1.16-2.74c-.81-.4-1.57-.48-5.32-.56-6.72-.15-8.2.31-8.46 2.59a2.14 2.14 0 0 0 1.89 2.54 56.83 56.83 0 0 0 10.12 0zm38 5.92c-5-.58-7.77-2.16-8.95-5.15-.61-4.48-1.39-8.43-.44-13.63.69-3.52 2.53-5.37 6.41-6.46 5.18-.69 7.49-.44 13.36-.44l1.57.74a5.33 5.33 0 0 1 3.13 3.33c.23.75.29-.44.34-6.85l.06-7.76h9.47v36h-9v-4.62l-.49 1c-1.13 2.19-2.77 3.29-5.63 3.8a48.14 48.14 0 0 1 -9.81.09zm13.88-7.42c1.63-.8 1.94-1.53 2-4.73.1-3.41 0-4.18-.85-5.15-1-1.24-1.87-1.45-6.33-1.57s-7 .14-7.93.84c-1.13.84-1.3 1.54-1.3 5.26s.25 4.65 1.64 5.3c1.21.56 1.5.58 6.76.54 4.55-.08 5.31-.08 6.09-.5zm-110.09-18.15h9.47l.07 2 .07 2 .76-1.09a7.4 7.4 0 0 1 4.58-2.85 41.45 41.45 0 0 1 11 0c4.32.92 6.68 3.1 7.6 7 .58 6.89.36 10.41.37 18.22h-9.46l-.13-16.07-.7-.74c-1-1.08-2.53-1.43-6.15-1.43a25.53 25.53 0 0 0 -4 .26 5 5 0 0 0 -3.3 2.66l-.6 1.2v14.12h-9.47v-25.28zm74.11 0h9.48v25.34h-9.48zm-125.74 18h9.24v7.1h-9.24zm0-18h9.24v14.68h-9.24zm125.74-10.66h9.48v7.34h-9.48z" fill="#1b0a0c"/></svg>