<svg xmlns="http://www.w3.org/2000/svg" viewBox="0 0 310 310"><defs><style>.cls-1{fill:none;}.cls-2{fill:#1b0a0c;}</style></defs><g id="Layer_2" data-name="Layer 2"><g id="LOGO_CLIENTE" data-name="LOGO CLIENTE"><circle id="Bounding" class="cls-1" cx="155" cy="155" r="155"/><path class="cls-2" d="M65.36,132h-.71C48.37,132.22,37,141,37,153.33s11.37,21.1,27.64,21.37h.72C81.64,174.43,93,165.64,93,153.33S81.64,132.22,65.36,132M65,167.73h0c-11.89-.12-19.58-5.78-19.58-14.4S53.11,139,65,138.92c11.9.12,19.58,5.78,19.58,14.41S76.9,167.61,65,167.73"/><path class="cls-2" d="M245.36,132h-.72C228.36,132.22,217,141,217,153.33s11.36,21.1,27.64,21.37h.72c16.27-.27,27.64-9.06,27.64-21.37S261.63,132.22,245.36,132M245,167.73h0c-11.9-.12-19.58-5.78-19.58-14.4S233.1,139,245,138.92c11.89.12,19.58,5.78,19.58,14.41s-7.69,14.28-19.58,14.4"/><path class="cls-2" d="M185.48,132h-.72c-7.75.13-14.39,2.19-19.22,5.65V134h-8.42v54.1h8.42v-19c4.83,3.45,11.46,5.51,19.22,5.64h.72c16.27-.27,27.64-9.06,27.64-21.37S201.75,132.22,185.48,132m-.36,35.78h0c-11.9-.12-19.58-5.78-19.58-14.4s7.68-14.29,19.58-14.41c11.89.12,19.58,5.78,19.58,14.41s-7.69,14.28-19.58,14.4"/><path class="cls-2" d="M125.42,132h-.72c-7.75.13-14.39,2.19-19.22,5.65V134H97.06v54.1h8.42v-19c4.83,3.45,11.47,5.51,19.22,5.64h.72c16.28-.27,27.64-9.06,27.64-21.37S141.7,132.22,125.42,132m-.36,35.78h0c-11.89-.12-19.58-5.78-19.58-14.4s7.69-14.29,19.58-14.41c11.89.12,19.58,5.78,19.58,14.41s-7.69,14.28-19.58,14.4"/></g></g></svg>