<svg xmlns="http://www.w3.org/2000/svg" viewBox="0 0 310 310"><defs><style>.cls-1{fill:none;}</style></defs><title>_LogoCliente_QCamera</title><g id="Layer_2" data-name="Layer 2"><g id="LOGO_CLIENTE" data-name="LOGO CLIENTE"><circle id="Bounding" class="cls-1" cx="155" cy="155" r="155"/><path d="M231.85,173.69A39.36,39.36,0,1,0,218,188.43L230.75,192c4,.9,6.52-1.63,5.59-5.64Zm-61.11-18.62a26.45,26.45,0,1,1,20,25.66l-1.46-.41A26.47,26.47,0,0,1,170.74,155.07Zm20,25.66c-.48-.13-1-.26-1.43-.41Z"/><path d="M126.49,169.63a11.15,11.15,0,0,0,4.21,2.48,18.58,18.58,0,0,0,6.1.88,23.91,23.91,0,0,0,2.51-.15c.93-.09,1.87-.23,2.8-.41a25.51,25.51,0,0,0,2.71-.64,14.24,14.24,0,0,0,2.31-.85,19,19,0,0,0-.32-3.53,6.38,6.38,0,0,0-1.26-2.83,32,32,0,0,1-3.76,1.31,15,15,0,0,1-4.12.5,5.57,5.57,0,0,1-6.3-5.54l3.91-.65a32.66,32.66,0,0,0,5.4-1.25,19.69,19.69,0,0,0,4.64-2.19,11.08,11.08,0,0,0,3.27-3.27,8.28,8.28,0,0,0,1.23-4.55,7.16,7.16,0,0,0-.71-3.27,6.82,6.82,0,0,0-1.92-2.37,8.24,8.24,0,0,0-2.89-1.43,13.34,13.34,0,0,0-3.6-.47,15.65,15.65,0,0,0-7.26,1.67,17.33,17.33,0,0,0-5.49,4.38,20.16,20.16,0,0,0-3.47,6.16,20.65,20.65,0,0,0-1.23,7,15.88,15.88,0,0,0,.79,5.11A9.71,9.71,0,0,0,126.49,169.63Zm6.19-17.16a10.88,10.88,0,0,1,1.61-2.54,7.37,7.37,0,0,1,2.19-1.78,5.73,5.73,0,0,1,2.77-.67,2.7,2.7,0,0,1,2,.7,2.4,2.4,0,0,1,.72,1.81,3.55,3.55,0,0,1-.29,1.4,3.65,3.65,0,0,1-1.11,1.37,8.12,8.12,0,0,1-2.22,1.23,17.78,17.78,0,0,1-3.62.9l-3,.47A14.44,14.44,0,0,1,132.68,152.47Z"/><path d="M106.44,150.83a5.31,5.31,0,0,1,2.07-1.72,4.89,4.89,0,0,1,1.84-.41,3.07,3.07,0,0,1,2.16.7,3.21,3.21,0,0,1,.76,2.45,11.06,11.06,0,0,1-.24,2.22l-4.71,26.69a22.61,22.61,0,0,0,4,.35,26.49,26.49,0,0,0,4.26-.35l4.83-27.33c.12-.74.22-1.44.29-2.11a15.5,15.5,0,0,0,.12-1.86c0-2.77-.65-4.74-1.95-5.93a7.83,7.83,0,0,0-5.47-1.78,11,11,0,0,0-5.31,1.37,12.19,12.19,0,0,0-4,3.42l3.14-16.7a20.77,20.77,0,0,0-2.07-.23q-1-.06-2-.06h-.54l-1.48.06a20.88,20.88,0,0,0-2.19.23l-7.7,42.73q1.11.18,2.07.24c.65,0,1.3.06,2,.06s1.29,0,2-.06a20.93,20.93,0,0,0,2.19-.24l2.16-11.73a31.7,31.7,0,0,1,1.69-6.31A15.78,15.78,0,0,1,106.44,150.83Z"/><path d="M88.11,166.18a9.13,9.13,0,0,1-1.75.15,3.21,3.21,0,0,1-2.63-.88,3.7,3.7,0,0,1-.7-2.39,10.67,10.67,0,0,1,.09-1.35c0-.46.12-1,.2-1.51l2-11.5H92.6a27.08,27.08,0,0,0,.82-3.1,16.72,16.72,0,0,0,.29-3.21H86.49L88,134.16l-.84-.12c-.43,0-.84-.09-1.23-.11h-.19c-.58,0-1.17,0-1.77,0s-1.29,0-2,.06a18.5,18.5,0,0,0-2.19.23l-1.42,8.23H73.8a16.1,16.1,0,0,0-.87,3.21,19.75,19.75,0,0,0-.24,3.1h4.5L75,161.19c-.11.74-.22,1.42-.29,2a14.34,14.34,0,0,0-.12,1.81q0,4.26,2.37,6.08c1.57,1.2,4,1.8,7.27,1.8a20.78,20.78,0,0,0,6-.76,7.14,7.14,0,0,0,.06-.93v-.93a11.08,11.08,0,0,0-.76-4.44C89.08,166,88.61,166.09,88.11,166.18Z"/></g></g></svg>