<svg xmlns="http://www.w3.org/2000/svg" viewBox="0 0 310 310"><defs><style>.cls-1{fill:none;}</style></defs><title>_LogoCliente_Cielo</title><g id="Layer_2" data-name="Layer 2"><g id="LOGO_CLIENTE" data-name="LOGO CLIENTE"><circle id="Bounding" class="cls-1" cx="155" cy="155" r="155"/><path d="M185.73,152.79c-3.48,0-5.88,2.84-5.88,6.34s2.4,6.34,5.88,6.34,5.88-2.84,5.88-6.34S189.21,152.79,185.73,152.79Z"/><path d="M153.77,152.53a5.38,5.38,0,0,0-5.46,4.57h10.77A5.17,5.17,0,0,0,153.77,152.53Z"/><path d="M86,86V224H224V86Zm46.39,80.4a11.37,11.37,0,0,1-8.12,3.56,10.55,10.55,0,0,1-10.84-10.83,11,11,0,0,1,3-7.75,10.81,10.81,0,0,1,8.06-3.08h5.08c.78,0,1.14.32,1.29.77a4.87,4.87,0,0,1,.13,1.43,4.94,4.94,0,0,1-.13,1.44,1.2,1.2,0,0,1-1.29.81h-5.12a5.71,5.71,0,0,0-4.3,1.65,7,7,0,0,0-1.8,4.73c0,3.5,2.4,6.34,5.88,6.34a7.92,7.92,0,0,0,5.27-2.23,1.31,1.31,0,0,1,1.49-.32,4.23,4.23,0,0,1,1,.93,4.46,4.46,0,0,1,.75,1.14A1.27,1.27,0,0,1,132.39,166.4Zm7.81,2.14a1.18,1.18,0,0,1-.86,1.29,10.16,10.16,0,0,1-3.24,0,1.19,1.19,0,0,1-.86-1.29V149.7a1.19,1.19,0,0,1,.86-1.29,10.16,10.16,0,0,1,3.24,0,1.18,1.18,0,0,1,.86,1.29Zm0-24.83a1.17,1.17,0,0,1-.86,1.29,10.16,10.16,0,0,1-3.24,0,1.18,1.18,0,0,1-.86-1.29v-2.25a1.19,1.19,0,0,1,.86-1.29,10.16,10.16,0,0,1,3.24,0,1.18,1.18,0,0,1,.86,1.29Zm22,17.23H148.3c.24,3.15,3.18,4.66,6.21,4.66h6.57a1.2,1.2,0,0,1,1.29.8,4.62,4.62,0,0,1,.18,1.4,4.51,4.51,0,0,1-.18,1.39c-.15.45-.51.77-1.29.77h-6.52c-7.25,0-11.45-4.13-11.45-10.83a10.51,10.51,0,0,1,10.71-10.83,10.31,10.31,0,0,1,10.36,10.45A2,2,0,0,1,162.15,160.94Zm9.87,7.6a1.19,1.19,0,0,1-.86,1.29,10.16,10.16,0,0,1-3.24,0,1.18,1.18,0,0,1-.86-1.29V141.46a1.18,1.18,0,0,1,.86-1.29,10.16,10.16,0,0,1,3.24,0,1.19,1.19,0,0,1,.86,1.29ZM185.73,170a10.83,10.83,0,1,1,10.84-10.83A10.55,10.55,0,0,1,185.73,170Z"/></g></g></svg>