<svg xmlns="http://www.w3.org/2000/svg" viewBox="0 0 310 310"><defs><style>.cls-1{fill:none;}</style></defs><title>LogoClienti_OFFF</title><g id="Layer_2" data-name="Layer 2"><g id="LOGO_CLIENTE" data-name="LOGO CLIENTE"><rect x="140.91" y="240.57" width="2.67" height="2.67"/><rect x="140.91" y="244" width="2.67" height="2.67"/><rect x="140.91" y="247.43" width="2.67" height="2.67"/><rect x="144.34" y="240.57" width="2.67" height="2.67"/><rect x="144.34" y="244" width="2.67" height="2.67"/><rect x="144.34" y="247.43" width="2.67" height="2.67"/><rect x="147.76" y="240.57" width="2.67" height="2.67"/><rect x="147.76" y="244" width="2.67" height="2.67"/><rect x="148.18" y="250.54" width="2.67" height="2.67"/><rect x="151.19" y="240.57" width="2.67" height="2.67"/><rect x="151.19" y="244" width="2.67" height="2.67"/><rect x="151.19" y="247.43" width="2.67" height="2.67"/><rect x="154.62" y="240.57" width="2.67" height="2.67"/><rect x="154.62" y="244" width="2.67" height="2.67"/><rect x="154.62" y="247.43" width="2.67" height="2.67"/><rect x="158.04" y="237.15" width="2.67" height="2.67"/><rect x="158.04" y="240.57" width="2.67" height="2.67"/><rect x="158.04" y="244" width="2.67" height="2.67"/><rect x="158.04" y="247.43" width="2.67" height="2.67"/><rect x="161.47" y="233.72" width="2.67" height="2.67"/><rect x="161.47" y="237.15" width="2.67" height="2.67"/><rect x="161.47" y="240.57" width="2.67" height="2.67"/><rect x="161.47" y="244" width="2.67" height="2.67"/><rect x="164.89" y="230.29" width="2.67" height="2.67"/><rect x="164.89" y="233.72" width="2.67" height="2.67"/><rect x="164.89" y="237.15" width="2.67" height="2.67"/><rect x="164.89" y="240.57" width="2.67" height="2.67"/><rect x="164.89" y="244" width="2.67" height="2.67"/><rect x="168.32" y="226.87" width="2.67" height="2.67"/><rect x="168.32" y="230.29" width="2.67" height="2.67"/><rect x="168.32" y="233.72" width="2.67" height="2.67"/><rect x="168.32" y="237.15" width="2.67" height="2.67"/><rect x="171.75" y="242.89" width="2.67" height="2.67"/><rect x="168.32" y="218.15" width="2.67" height="2.67"/><rect x="171.75" y="220.02" width="2.67" height="2.67"/><rect x="171.75" y="223.44" width="2.67" height="2.67"/><rect x="171.75" y="226.87" width="2.67" height="2.67"/><rect x="171.75" y="230.29" width="2.67" height="2.67"/><rect x="171.75" y="233.72" width="2.67" height="2.67"/><rect x="171.75" y="237.15" width="2.67" height="2.67"/><rect x="175.17" y="216.59" width="2.67" height="2.67"/><rect x="175.17" y="220.02" width="2.67" height="2.67"/><rect x="175.17" y="223.44" width="2.67" height="2.67"/><rect x="175.17" y="226.87" width="2.67" height="2.67"/><rect x="175.17" y="230.29" width="2.67" height="2.67"/><rect x="175.17" y="233.72" width="2.67" height="2.67"/><rect x="178.6" y="216.59" width="2.67" height="2.67"/><rect x="178.6" y="220.02" width="2.67" height="2.67"/><rect x="178.6" y="223.44" width="2.67" height="2.67"/><rect x="178.6" y="226.87" width="2.67" height="2.67"/><rect x="178.6" y="230.29" width="2.67" height="2.67"/><rect x="182.02" y="216.59" width="2.67" height="2.67"/><rect x="182.02" y="220.02" width="2.67" height="2.67"/><rect x="182.02" y="223.44" width="2.67" height="2.67"/><rect x="140.91" y="189.18" width="2.67" height="2.67"/><rect x="140.91" y="185.76" width="2.67" height="2.67"/><rect x="139.58" y="176.79" width="2.67" height="2.67"/><rect x="144.34" y="189.18" width="2.67" height="2.67"/><rect x="144.34" y="185.76" width="2.67" height="2.67"/><rect x="144.34" y="182.33" width="2.67" height="2.67"/><rect x="147.76" y="189.18" width="2.67" height="2.67"/><rect x="147.76" y="185.76" width="2.67" height="2.67"/><rect x="147.76" y="182.33" width="2.67" height="2.67"/><rect x="151.19" y="189.18" width="2.67" height="2.67"/><rect x="151.19" y="185.76" width="2.67" height="2.67"/><rect x="151.19" y="182.33" width="2.67" height="2.67"/><rect x="154.62" y="189.18" width="2.67" height="2.67"/><rect x="154.62" y="185.76" width="2.67" height="2.67"/><rect x="154.62" y="182.33" width="2.67" height="2.67"/><rect x="158.04" y="192.61" width="2.67" height="2.67"/><rect x="158.04" y="189.18" width="2.67" height="2.67"/><rect x="158.04" y="185.76" width="2.67" height="2.67"/><rect x="158.04" y="182.33" width="2.67" height="2.67"/><rect x="161.47" y="196.03" width="2.67" height="2.67"/><rect x="161.47" y="192.61" width="2.67" height="2.67"/><rect x="161.47" y="189.18" width="2.67" height="2.67"/><rect x="161.47" y="185.76" width="2.67" height="2.67"/><rect x="164.89" y="199.46" width="2.67" height="2.67"/><rect x="164.89" y="196.03" width="2.67" height="2.67"/><rect x="164.89" y="192.61" width="2.67" height="2.67"/><rect x="164.89" y="189.18" width="2.67" height="2.67"/><rect x="164.89" y="185.76" width="2.67" height="2.67"/><rect x="168.32" y="202.89" width="2.67" height="2.67"/><rect x="168.32" y="199.46" width="2.67" height="2.67"/><rect x="168.32" y="196.03" width="2.67" height="2.67"/><rect x="168.32" y="192.61" width="2.67" height="2.67"/><rect x="168.32" y="189.18" width="2.67" height="2.67"/><rect x="171.75" y="213.16" width="2.67" height="2.67"/><rect x="171.75" y="209.74" width="2.67" height="2.67"/><rect x="171.75" y="206.31" width="2.67" height="2.67"/><rect x="171.75" y="202.89" width="2.67" height="2.67"/><rect x="171.75" y="199.46" width="2.67" height="2.67"/><rect x="171.75" y="196.03" width="2.67" height="2.67"/><rect x="174.42" y="189.94" width="2.67" height="2.67"/><rect x="175.17" y="213.16" width="2.67" height="2.67"/><rect x="175.17" y="209.74" width="2.67" height="2.67"/><rect x="175.17" y="206.31" width="2.67" height="2.67"/><rect x="175.17" y="202.89" width="2.67" height="2.67"/><rect x="175.17" y="199.46" width="2.67" height="2.67"/><rect x="175.17" y="196.03" width="2.67" height="2.67"/><rect x="178.6" y="213.16" width="2.67" height="2.67"/><rect x="178.6" y="209.74" width="2.67" height="2.67"/><rect x="178.6" y="206.31" width="2.67" height="2.67"/><rect x="178.6" y="202.89" width="2.67" height="2.67"/><rect x="178.6" y="199.46" width="2.67" height="2.67"/><rect x="182.02" y="213.16" width="2.67" height="2.67"/><rect x="182.02" y="209.74" width="2.67" height="2.67"/><rect x="182.02" y="206.31" width="2.67" height="2.67"/><path d="M136.19,250.1H125.31V182.33h10.88Z"/><circle id="Bounding" class="cls-1" cx="155" cy="155" r="155"/><path d="M125.37,62.53A32.37,32.37,0,1,1,93,95.21,32.41,32.41,0,0,1,125.37,62.53Zm-.06,50.8A18.46,18.46,0,1,0,106.9,94.58,18.38,18.38,0,0,0,125.31,113.33Z"/><path d="M197.11,60.49l10.16,10.18L183.06,94.8,207.27,119,196.7,129.51,162.59,95Z"/><path d="M190.26,94.86l16-16,5.69,5.63L201.6,94.76,212,105.08l-5.83,5.83Z"/><path d="M213.25,88,215.91,91,212,94.71l4.17,4-3,3-6.69-6.76Z"/><path d="M215.65,93.42l1.35,1.4-1.61,1.58L214,94.84Z"/><rect x="55" y="154.5" width="200" height="1"/></g></g></svg>