<svg xmlns="http://www.w3.org/2000/svg" viewBox="0 0 310 310"><defs><style>.cls-1{fill:none;}.cls-2{fill:#1b0a0c;}</style></defs><title>_LogoClienti_Mediolanum</title><g id="Layer_2" data-name="Layer 2"><g id="LOGO_CLIENTE" data-name="LOGO CLIENTE"><circle id="Bounding" class="cls-1" cx="155" cy="155" r="155"/><path class="cls-2" d="M94.75,163.93a19.58,19.58,0,1,1,.16-17.55,11.32,11.32,0,0,1,3-1.73,23,23,0,1,0-.19,21.06,11.31,11.31,0,0,1-2.92-1.78"/><path class="cls-2" d="M102.5,159.88a6.22,6.22,0,0,0,4.31-1.61l2.92,2.92a9.2,9.2,0,0,1-7.14,2.76c-5.77,0-9.46-3.68-9.46-8.73a8.67,8.67,0,0,1,9-8.74c5.82,0,9.12,4.61,8.73,10.39H98.18c.48,1.84,1.89,3,4.32,3m3.25-6.41a3.45,3.45,0,0,0-3.64-2.91,3.7,3.7,0,0,0-3.88,2.91Z"/><path class="cls-2" d="M141.52,155.22a9.08,9.08,0,0,1,18.15,0c0,5.05-4,8.73-9.08,8.73a8.71,8.71,0,0,1-9.07-8.73m13.15,0c0-2.67-1.55-4.61-4.08-4.61s-4.07,1.94-4.07,4.61,1.55,4.61,4.07,4.61,4.08-1.94,4.08-4.61"/><path class="cls-2" d="M169.05,155.22c0-5.05,3.39-8.74,7.71-8.74,2.52,0,4.12.88,5.05,2.33v-1.89h4.85v16.6h-4.85v-1.89c-.93,1.45-2.53,2.32-5.05,2.32-4.32,0-7.71-3.68-7.71-8.73m12.85,0c0-2.72-1.4-4.47-3.88-4.47s-4,1.75-4,4.47,1.51,4.46,4,4.46,3.88-1.74,3.88-4.46"/><path class="cls-2" d="M63.69,146.92a7.69,7.69,0,0,1,1,3.86h0v12.73h4.85v-8.93c0-2.48,1.07-3.74,3.25-3.74s2.67,1.12,2.67,3v9.66h4.85v-8.93c0-2.48,1.07-3.74,3.25-3.74s2.67,1.12,2.67,3v9.66h4.85V153.38c0-4.18-2.33-6.9-6.16-6.9a6.85,6.85,0,0,0-6,2.82,4.87,4.87,0,0,0-4.7-2.82,5.14,5.14,0,0,0-4.66,2.33v-1.89h-5.9Z"/><path class="cls-2" d="M125.36,137.7h-1a7.6,7.6,0,0,1,1,3.85v7.26c-.92-1.45-2.62-2.33-5.14-2.33-4.32,0-7.81,3.69-7.81,8.74s3.49,8.73,7.81,8.73c2.52,0,4.22-.87,5.14-2.32v1.89h4.86V137.7Zm-3.89,22c-2.47,0-4.07-1.74-4.07-4.46s1.6-4.47,4.07-4.47,4,1.75,4,4.47-1.5,4.46-4,4.46"/><path class="cls-2" d="M136.57,143.81a3.06,3.06,0,0,0,0-6.11,3.06,3.06,0,1,0,0,6.11"/><path class="cls-2" d="M134.15,146.92H133.1a7.69,7.69,0,0,1,1,3.75v12.85H139v-16.6Z"/><path class="cls-2" d="M162,137.7h-1a7.61,7.61,0,0,1,1,3.7v22.12h4.86V137.7Z"/><path class="cls-2" d="M200.35,146.48c-2.33,0-4.13.78-5.2,2.57v-2.13h-5.9a7.77,7.77,0,0,1,1.05,3.86h0v12.73h4.85v-8.93c0-2.48,1.31-3.74,3.64-3.74a2.66,2.66,0,0,1,3,3v9.71h4.86V153.47c0-4.42-2.58-7-6.26-7"/><path class="cls-2" d="M219.49,146.92a7.66,7.66,0,0,1,1,3.86h0V156c0,2.52-.93,3.78-3.16,3.78s-3.15-1.26-3.15-3.78v-9h-5.91a7.67,7.67,0,0,1,1.05,3.86h0v5.3c0,4.95,2.66,7.86,7.81,7.86s8.2-2.91,8.2-7.86v-9.17h-5.9Z"/><path class="cls-2" d="M228.22,146.92a7.69,7.69,0,0,1,1,3.86h0v12.73h4.85v-8.93c0-2.48,1.07-3.74,3.25-3.74s2.67,1.12,2.67,3v9.66h4.86v-8.93c0-2.48,1.06-3.74,3.24-3.74s2.67,1.12,2.67,3v9.66h4.86V153.38c0-4.18-2.33-6.9-6.17-6.9a6.83,6.83,0,0,0-6,2.82,4.89,4.89,0,0,0-4.71-2.82,5.14,5.14,0,0,0-4.66,2.33v-1.89h-5.9Z"/><path class="cls-2" d="M221.59,141.37c0,1.35-1.13,2.24-2.79,2.24h-3.52v-6a2.17,2.17,0,0,0-.73-1.77h4.23a2.2,2.2,0,0,1,2.39,2.14,1.66,1.66,0,0,1-.86,1.48,2.2,2.2,0,0,1,1.28,1.92m-3-2.48a.85.85,0,0,0,.91-.77.72.72,0,0,0-.77-.72h-1.85v1.49Zm.28,3.15c.66,0,1.05-.26,1.05-.82s-.44-.84-1.17-.84h-1.87V142Z"/><path class="cls-2" d="M224.64,141.65l-.81,2h-1.78l2.71-6.31a1.38,1.38,0,0,0-.35-1.47h2.43l3.31,7.78h-1.78l-.79-2Zm1.48-3.61-.87,2.1H227Z"/><path class="cls-2" d="M238.27,143.61H237.1l-4.35-4.89v4.89h-1.66v-6a2.17,2.17,0,0,0-.71-1.76h1.89l4.35,4.91v-3.15a2.19,2.19,0,0,0-.74-1.76h2.39Z"/><path class="cls-2" d="M247.05,142.19a4.21,4.21,0,0,1-3.42,1.57,4,4,0,1,1,0-8.08,4.4,4.4,0,0,1,3.36,1.55l-1.28,1.05-.48.38a1.09,1.09,0,0,0-.64-1.16l.06,0a2.66,2.66,0,0,0-1-.22,2.42,2.42,0,1,0,0,4.84,2.68,2.68,0,0,0,2.08-1Z"/><path class="cls-2" d="M250.12,141.65l-.81,2h-1.78l2.71-6.31a1.38,1.38,0,0,0-.35-1.47h2.43l3.31,7.78h-1.78l-.79-2ZM251.6,138l-.87,2.1h1.72Z"/></g></g></svg>