<svg xmlns="http://www.w3.org/2000/svg" viewBox="0 0 310 310"><defs><style>.cls-1{fill:none;}.cls-2{fill:#1b0a0c;}</style></defs><title>_LogoCliente_McDonald</title><g id="Layer_2" data-name="Layer 2"><g id="LOGO_CLIENTE" data-name="LOGO CLIENTE"><circle id="Bounding" class="cls-1" cx="155" cy="155" r="155"/><path class="cls-2" d="M227.71,199.4a3.3,3.3,0,1,1-3.32,3.28A3.27,3.27,0,0,1,227.71,199.4Zm0,6.12a2.82,2.82,0,1,0-2.72-2.84A2.72,2.72,0,0,0,227.71,205.52Zm-1.29-4.75h1.49c.91,0,1.34.36,1.34,1.1a1,1,0,0,1-1,1l1.1,1.71h-.64l-1-1.66H227v1.66h-.6Zm.6,1.71h.63c.52,0,1,0,1-.64s-.43-.59-.84-.59H227Z"/><path class="cls-2" d="M215.09,201.37h4.54V205h3v3.63H219.6v6.73c0,1,0,1.8,1.22,1.8l1.62-.06v3.66a15.26,15.26,0,0,1-2.4.23c-1.58,0-3.29-.09-4.29-1.56a6.26,6.26,0,0,1-.66-3.59v-7.25h-2.23V205h2.23Z"/><path class="cls-2" d="M206.4,199.4h4.5V203h-4.5Zm0,5.6h4.5v15.89h-4.5Z"/><path class="cls-2" d="M199.94,204v-4.57h-4.72V204h2c0,1.64-.89,3-2,3v2.17A4.94,4.94,0,0,0,199.94,204Z"/><path class="cls-2" d="M184.11,206.45a4.37,4.37,0,0,1,1.56-1.24,7.31,7.31,0,0,1,2.82-.58,5.77,5.77,0,0,1,2.75.64c1.65.87,2.07,2.3,2.07,4.76v10.86h-4.54v-8.95a6.37,6.37,0,0,0-.21-2.36,2.14,2.14,0,0,0-2.07-1.22c-2.4,0-2.4,2-2.4,3.95v8.58H179.5V205h4.61Z"/><path class="cls-2" d="M173.07,199.4h4.52V203h-4.52Zm0,5.6h4.52v15.89h-4.52Z"/><path class="cls-2" d="M163.84,216.57l2.6-11.57h4.69l-5,15.89h-4.78l-5-15.89h4.82Z"/><path class="cls-2" d="M156.3,212.93c0,4-2.25,8.41-8.31,8.41-4.37,0-8.36-2.54-8.36-8.41,0-4.87,3-8.74,9-8.39C154.9,204.91,156.3,210,156.3,212.93ZM145,209.78a6,6,0,0,0-.77,3.11c0,2.52,1.2,4.74,3.75,4.74s3.68-2,3.68-4.52a5.38,5.38,0,0,0-1.28-4,3.17,3.17,0,0,0-2.67-.89A3.14,3.14,0,0,0,145,209.78Z"/><path class="cls-2" d="M137.7,199.42v21.47h-4.57V199.42Z"/><path class="cls-2" d="M108.61,206.7a5.24,5.24,0,0,1,4.41-2.07,5,5,0,0,1,4.3,1.85,6.38,6.38,0,0,1,4.62-1.85,4.52,4.52,0,0,1,4.33,2.29,9,9,0,0,1,.41,3.63v10.34h-4.52v-8.33a13.74,13.74,0,0,0-.16-2.71,2,2,0,0,0-2-1.43,2.41,2.41,0,0,0-1.49.5c-.86.68-.86,1.6-.86,3.33v8.64h-4.51v-9.4a4.22,4.22,0,0,0-.44-2.24,2.31,2.31,0,0,0-3-.45c-1,.69-1,2-1,3v9H104.1V205h4.51Z"/><path class="cls-2" d="M102.17,204v-4.57H97.44V204h2c0,1.64-.88,3-2,3v2.17A4.94,4.94,0,0,0,102.17,204Z"/><path class="cls-2" d="M91,199.4h4.51V203H91Zm0,5.6h4.51v15.89H91Z"/><path class="cls-2" d="M178.43,95.27c9.12,0,16.52,38.45,16.52,85.88h13.21c0-51.08-13.31-92.49-29.73-92.49-9.34,0-17.67,12.45-23.12,31.91-5.45-19.46-13.78-31.91-23.12-31.91-16.42,0-29.73,41.41-29.73,92.49h13.21c0-47.43,7.4-85.88,16.52-85.88s16.52,35.49,16.52,79.27h13.21C161.92,130.76,169.31,95.27,178.43,95.27Z"/><path class="cls-2" d="M214.77,174.54a3.31,3.31,0,1,1-3.31,3.29A3.28,3.28,0,0,1,214.77,174.54Zm0,6.12a2.82,2.82,0,1,0-2.71-2.83A2.72,2.72,0,0,0,214.77,180.66Zm-1.28-4.75H215c.91,0,1.34.36,1.34,1.1a1,1,0,0,1-1,1.05l1.1,1.71h-.64l-1.05-1.66h-.63v1.66h-.6Zm.6,1.71h.62c.53,0,1,0,1-.63s-.44-.59-.84-.59h-.79Z"/></g></g></svg>