<svg xmlns="http://www.w3.org/2000/svg" viewBox="0 0 310 310"><defs><style>.cls-1{fill:none;}.cls-2{fill:#1b0a0c;}</style></defs><title>_LogoClienti_Mtv</title><g id="Layer_2" data-name="Layer 2"><g id="LOGO_CLIENTE" data-name="LOGO CLIENTE"><circle id="Bounding" class="cls-1" cx="155" cy="155" r="155"/><path class="cls-2" d="M144,193.58h6.12V182.85L144,177.79Zm15.7-10.4h5.13L166.2,182V177.8ZM159.19,121l-4.1,4.22L144,113.78l14.07,6.07ZM219,143.35V113.73l7.44,4.38v16.23A91.8,91.8,0,0,0,219,143.35Zm7.44,5.91v44.32H219V161.16A85.06,85.06,0,0,1,226.4,149.26Zm-38.8,44.32a65.72,65.72,0,0,1-.54-7.4c0-1.57.22-7.88.22-13,0-4.29-.94-11.91-.94-16.06,0-2.49.18-5.87-.1-7.06,2-1.28,3.8-2.11,9.39-5.42,1.81-1.08,5.26-2.89,5.26-5.08,0-1-.26-1.6-1.67-2.73a4.9,4.9,0,0,0-3.22-1c-2.85,0-4.14,2.8-6.53,4.23-3.64,2.19-5.57,3.26-6.31,3.67a7.57,7.57,0,0,0-3.54-.86c-2.08,0-4.5.92-4.5,3.57,0,1.22.4,2.53-1.26,3.39-.93.57-5.46,3.11-10.28,6-4.07,2.41-6,2.21-7.67,3.23a3.49,3.49,0,0,0-2,3.11,4.83,4.83,0,0,0,.78,2.29,4.45,4.45,0,0,0,3.79,2.11c2.91,0,5.34-2.5,9.84-5.63,2.8-2,5.37-4,6.88-4,1.35,0,2.28,1,2.28,5.09,0,13.69-.85,15.86-.85,25.37,0,1.71.07,4.87.13,6.18h-7.41V171.15l-14.26,11.78-14.26-11.78v22.43H94.61V113.73h45l15.49,16,15.48-16h45.24v34.14a106.76,106.76,0,0,0-8.75,17c-1,2.45-1.41,4.22-2.67,4.22s-1.51-1.35-1.64-2.56c-.29-2.62-.89-7.53-1.17-9.33-.54-3.5-1.24-7.19-5.22-7.19-3,0-6,1.58-6,5.91,0,2.44,1.27,6.69,3.43,12.29.85,2.21,5.38,13.85,6,15.53,1.2,3.1,2.86,3.94,5.45,3.94,3.31,0,4.46-1.19,5.82-5.75,1.16-3.88,3.12-10.21,4.76-14.17h0v25.82Z"/><path class="cls-2" d="M227.27,190.72h2.37v.43h-.93v2.43h-.51v-2.43h-.93Z"/><path class="cls-2" d="M230,190.72h.72l.8,2.24h0l.79-2.24H233v2.86h-.49v-2.21h0l-.82,2.21h-.42l-.81-2.21h0v2.21H230Z"/></g></g></svg>