<svg xmlns="http://www.w3.org/2000/svg" viewBox="0 0 310 310"><defs><style>.cls-1{fill:none;}</style></defs><title>_LogoClienti_SEAT</title><g id="Layer_2" data-name="Layer 2"><g id="LOGO_CLIENTE" data-name="LOGO CLIENTE"><circle id="Bounding" class="cls-1" cx="155" cy="155" r="155"/><path d="M161,100a3,3,0,0,0,.52.09c4.43.14,8.86.23,13.29.43s9,.5,13.51.78c1.17.07,2.33.24,3.5.37a2,2,0,0,1,.4.1,2.75,2.75,0,0,1,2.3,2.67c.11,1.33.26,2.65.34,4,.2,3.53.36,7.07.54,10.6,0,.12,0,.24,0,.41-.23,0-.45,0-.66,0-5.52-.26-11-.54-16.56-.77-3.61-.15-7.23-.27-10.85-.3-6.86-.07-13.72-.08-20.58-.07-2.16,0-4.33.11-6.49.2a6.24,6.24,0,0,0-3,1,3.56,3.56,0,0,0-1.11,1l59.39,11v8.69l-80.76-14c0-.18,0-.36,0-.53.1-3.46.19-6.91.29-10.37,0-1.23.1-2.47.18-3.69a18,18,0,0,1,.64-3.58,8.59,8.59,0,0,1,5.18-5.78,16.57,16.57,0,0,1,4.15-1.07,73.72,73.72,0,0,1,7.42-.61c4.69-.18,9.38-.33,14.07-.5a2.07,2.07,0,0,0,.4-.09Z"/><path d="M129.23,210.12c-.43-.08-.86-.15-1.28-.24a6.22,6.22,0,0,1-3.18-1.52,5.46,5.46,0,0,1-1.62-3.31,12.29,12.29,0,0,1-.11-1.6q0-5.88,0-11.75v-.57h29.53v3.57l0,0-.05,0-.11,0h-24.1l-.09.06v3.62h23.41c0,1.23,0,2.41,0,3.64H128.17a6.1,6.1,0,0,0,.33,3,1.71,1.71,0,0,0,1.26,1,11.64,11.64,0,0,0,2,.22h20.87l0,3.74Z"/><path d="M86.63,210.12v-3.7l.78,0h22.43a5.62,5.62,0,0,0,1-.08,1.19,1.19,0,0,0,1-1,3.36,3.36,0,0,0,0-.95,1.1,1.1,0,0,0-.84-1,7,7,0,0,0-1.28-.23c-2.06-.18-4.12-.34-6.18-.51l-8.08-.68c-1.57-.13-3.14-.24-4.7-.41a12.45,12.45,0,0,1-2.26-.48,3.77,3.77,0,0,1-2.65-3,8,8,0,0,1-.07-3.37,4.16,4.16,0,0,1,3.53-3.42,9.25,9.25,0,0,1,1.89-.19c7.76,0,15.51,0,23.27,0h.61v3.63l-.76,0H92.29a4.65,4.65,0,0,0-1.06.11,1,1,0,0,0-.84.9c-.17,1.09.22,1.69,1.18,1.83.67.1,1.35.16,2,.22l12.3,1,5.4.46a9.42,9.42,0,0,1,2.67.61,3.82,3.82,0,0,1,2.46,3,8.81,8.81,0,0,1-.07,3.79,4,4,0,0,1-3,3.1c-.55.15-1.12.24-1.68.36Z"/><path d="M160.37,210.12c0-.24,0-.48,0-.72,0-3.91,0-7.83,0-11.74a8.17,8.17,0,0,1,.22-1.77,5.56,5.56,0,0,1,4.42-4.48,10.32,10.32,0,0,1,2.47-.31c7.16,0,14.31,0,21.47,0l.57,0c0,.17,0,.32,0,.47v18a4.67,4.67,0,0,1-.08.52h-5v-5.51c-.83-.12-18.61-.09-19.09,0v5.46Zm5-9.35h19.11v-6H169.21l-1,0a2.65,2.65,0,0,0-2.74,2.53C165.4,198.47,165.4,199.59,165.34,200.77Z"/><path d="M207.5,210.12V194.84c-1.33,0-2.63,0-3.93,0h-7.84v-3.74l.76,0h27.07l.77,0v3.82l-.24,0h-11c-.13,0-.27,0-.46,0v.73q0,6.91,0,13.83a5.56,5.56,0,0,1-.08.7Z"/><path d="M114.67,151.27l1.75.12c2.18.12,4.37.26,6.55.35,4.63.18,9.26.36,13.89.5,7.57.23,15.15.25,22.72.27,2.85,0,5.69.06,8.53.08a8.37,8.37,0,0,0,2.93-.47,4.88,4.88,0,0,0,2.08-1.35c.13-.14.24-.3.42-.54l-58.95-10.06v-9.76l80.82,15.05c0,.62,0,1.19,0,1.76-.1,3.8-.21,7.59-.33,11.39a25.79,25.79,0,0,1-.57,4.79,8.87,8.87,0,0,1-6.42,6.87,24.14,24.14,0,0,1-5.33.95c-6.82.55-13.66.77-20.5.85-2.74,0-5.49.1-8.23.06q-8.28-.15-16.57-.41c-2.88-.09-5.76-.24-8.64-.4s-6-.37-9-.6a11.26,11.26,0,0,1-2.21-.45,2.41,2.41,0,0,1-1.86-2.1c-.11-.87-.23-1.73-.3-2.6-.13-1.85-.24-3.69-.33-5.54-.15-2.68-.27-5.36-.4-8C114.66,151.77,114.67,151.56,114.67,151.27Z"/></g></g></svg>