<svg xmlns="http://www.w3.org/2000/svg" viewBox="0 0 310 310"><defs><style>.cls-1{fill:none;}</style></defs><title>_LogoCliento_Tv8</title><g id="Layer_2" data-name="Layer 2"><g id="LOGO_CLIENTI" data-name="LOGO CLIENTI"><circle id="Bounding" class="cls-1" cx="155" cy="155" r="155"/><path id="Otto_Logo_-_tv_8" data-name="Otto_Logo - tv 8" d="M189.09,151.84c8.3-5.53,14.35-11.93,14.52-24.2.17-15.9-14.86-33.71-48.05-33.71-34.4,0-48.4,18.15-48.4,35.09a32.66,32.66,0,0,0,1,8h10.45a17.06,17.06,0,0,1,17.07,17.06h0a17.07,17.07,0,0,1-17.07,17.07H104.93a29.85,29.85,0,0,0-2.09,11c0,17.63,13.65,34.92,52.2,34.92,37.51,0,52.89-17.29,52.89-36C207.93,166,199.81,157.54,189.09,151.84Zm-34.57-29c8.47,0,12.27,3.8,12.45,8.64.17,3.12-1,7.09-3.12,10.72-2.24-.69-5-1.55-7.6-2.42-6.74-2.07-12.45-4.32-12.45-9.85C143.8,126.26,147.43,122.8,154.52,122.8Zm2.25,65.34c-10.55,0-14.87-5.53-15-11.24a17.44,17.44,0,0,1,3.63-10.71c4,1.38,8.12,2.59,11.93,3.8,6.39,2.25,11.58,4.49,11.58,10.2C168.87,184.51,164.72,188.14,156.77,188.14ZM105.5,148.57h1.89l1.07-3.42,3.71-.38-.53,3.8h3.27l-.64,3.44h-3.11l-.79,5.62c0,.21,0,.4,0,.57,0,.86.38,1.22,1.17,1.22a4,4,0,0,0,1.48-.36l0,3.32a7.92,7.92,0,0,1-3.3.72c-2.65,0-4-1.39-4-4a8.31,8.31,0,0,1,.1-1.27l.84-5.83h-1.68ZM129.25,151c0,8.65-6.72,12.19-8.8,12.19-1.24,0-4.61-1.55-4.61-7A13.72,13.72,0,0,1,116,154l.79-5.57,4.66-.19-.81,5.76a17.83,17.83,0,0,0-.19,2.27c0,2.15.65,2.67,1,2.67.82,0,3.23-2.6,3.23-8.43a16.43,16.43,0,0,0-.1-1.75l4.4-.95A18.13,18.13,0,0,1,129.25,151Z"/></g></g></svg>