<svg xmlns="http://www.w3.org/2000/svg" viewBox="0 0 310 310"><defs><style>.cls-1{fill:none;}</style></defs><title>_LogoClienti_Rai</title><g id="Layer_2" data-name="Layer 2"><g id="LOGO_CLIENTE" data-name="LOGO CLIENTE"><circle id="Bounding" class="cls-1" cx="155" cy="155" r="155"/><path d="M166.82,155.65H165.6a7.46,7.46,0,0,0-7.47,7.46v1.36a7.47,7.47,0,0,0,7.47,7.47h.67a8.15,8.15,0,0,0,8.15-8.15v-.55A7.59,7.59,0,0,0,166.82,155.65Z"/><path d="M120.87,139.28h-4.74v13H120c3.9,0,7-2.53,7-5.7v-.75C127.06,141.24,124.8,139.28,120.87,139.28Z"/><path d="M86.33,86.33V223.67H223.67V86.33Zm42.92,95.25-13.2-20.38V182h-14v-53.8h22.8c8.75,0,17,5.64,17,15.85v1.82a14.17,14.17,0,0,1-11.65,13.82L147,181.58ZM187,182H174v-4c-2.62,3.19-6.21,4.95-11.74,4.95-9.91,0-17.79-8.75-17.79-19.56s7.88-19.56,17.79-19.56A17.42,17.42,0,0,1,174,148.46V145.3h13Zm20.55,0h-13V145.57h13Zm-6.36-43.18a7.2,7.2,0,1,1,7.2-7.2A7.19,7.19,0,0,1,201.21,138.83Z"/></g></g></svg>