<svg xmlns="http://www.w3.org/2000/svg" viewBox="0 0 310 310"><defs><style>.cls-1,.cls-2{fill:none;}.cls-2{stroke:#000;stroke-miterlimit:10;stroke-width:0.68px;}</style></defs><title>Asset 1</title><g id="Layer_2" data-name="Layer 2"><g id="LOGO_CLIENTE" data-name="LOGO CLIENTE"><circle id="Bounding" class="cls-1" cx="155" cy="155" r="155"/><polygon points="22.95 142.67 19.21 142.67 19.21 154.3 18.82 154.3 18.82 142.67 17.04 142.67 17.04 142.29 18.82 142.29 18.82 136.56 19.21 136.56 19.21 142.29 22.95 142.29 22.95 142.67"/><polygon class="cls-2" points="22.95 142.67 19.21 142.67 19.21 154.3 18.82 154.3 18.82 142.67 17.04 142.67 17.04 142.29 18.82 142.29 18.82 136.56 19.21 136.56 19.21 142.29 22.95 142.29 22.95 142.67"/><path d="M37,154.3h-.4v-8.36a3.19,3.19,0,0,0-1-2.32,3.14,3.14,0,0,0-2.3-1H29.07V154.3h-.4V136.57h.4v5.72h4.24a3.48,3.48,0,0,1,2.58,1.07A3.52,3.52,0,0,1,37,145.94Z"/><path class="cls-2" d="M37,154.3h-.4v-8.36a3.19,3.19,0,0,0-1-2.32,3.14,3.14,0,0,0-2.3-1H29.07V154.3h-.4V136.57h.4v5.72h4.24a3.48,3.48,0,0,1,2.58,1.07A3.52,3.52,0,0,1,37,145.94Z"/><path d="M50.36,148.2v-1.77a3.63,3.63,0,0,0-1.1-2.66,3.59,3.59,0,0,0-2.65-1.1,3.63,3.63,0,0,0-2.66,1.1,3.68,3.68,0,0,0-1.08,2.66v1.77Zm.4.4H42.87v1.76a4.15,4.15,0,0,0,.89,3.08,3.79,3.79,0,0,0,2.56.68h4.23v.36H46.32a4.25,4.25,0,0,1-2.82-.76,4.4,4.4,0,0,1-1-3.36v-3.93a4.11,4.11,0,0,1,4.14-4.14,4.15,4.15,0,0,1,4.15,4.14Z"/><path class="cls-2" d="M50.36,148.2v-1.77a3.63,3.63,0,0,0-1.1-2.66,3.59,3.59,0,0,0-2.65-1.1,3.63,3.63,0,0,0-2.66,1.1,3.68,3.68,0,0,0-1.08,2.66v1.77Zm.4.4H42.87v1.76a4.15,4.15,0,0,0,.89,3.08,3.79,3.79,0,0,0,2.56.68h4.23v.36H46.32a4.25,4.25,0,0,1-2.82-.76,4.4,4.4,0,0,1-1-3.36v-3.93a4.11,4.11,0,0,1,4.14-4.14,4.15,4.15,0,0,1,4.15,4.14Z"/><path d="M60.6,151.08q1.41,2,3,2a1.7,1.7,0,0,0,1.46-.94q.85-1.38.86-5.27c0-2.65-.32-4.47-.94-5.44a1.91,1.91,0,0,0-1.68-1q-1.66,0-2.73,2.4Zm0,1.66v5.73a4.47,4.47,0,0,0,.19,1.61,1.25,1.25,0,0,0,.58.62,3.84,3.84,0,0,0,1.55.2v.61H54.15v-.61a2,2,0,0,0,1.51-.58,3.5,3.5,0,0,0,.33-1.95V142.13a3.69,3.69,0,0,0-.37-2.08,2.06,2.06,0,0,0-1.47-.52v-.61H60.6v2a6,6,0,0,1,1.65-1.71,4.77,4.77,0,0,1,2.61-.77A5,5,0,0,1,68,139.53a6.64,6.64,0,0,1,2.11,2.95,11.3,11.3,0,0,1,.72,4.06,11.71,11.71,0,0,1-.75,4.27,6.15,6.15,0,0,1-2.17,2.94,5.27,5.27,0,0,1-3.16,1,5,5,0,0,1-2.37-.56,6.07,6.07,0,0,1-1.73-1.46"/><path d="M77.08,131.47a2.43,2.43,0,0,1,1.81.75,2.45,2.45,0,0,1,.75,1.8,2.42,2.42,0,0,1-.75,1.79,2.45,2.45,0,0,1-1.81.74,2.41,2.41,0,0,1-1.79-.74,2.45,2.45,0,0,1-.74-1.79,2.48,2.48,0,0,1,.74-1.8,2.42,2.42,0,0,1,1.79-.75m2.31,7.45v12.19a3.58,3.58,0,0,0,.38,2.08,2,2,0,0,0,1.48.52v.59H72.94v-.59a2,2,0,0,0,1.51-.59,3.66,3.66,0,0,0,.33-2v-9a3.67,3.67,0,0,0-.38-2.08,2,2,0,0,0-1.46-.52v-.61Z"/><path d="M89.13,138.92v3.49a11.23,11.23,0,0,1,2.68-3.17,4,4,0,0,1,2.22-.78,2,2,0,0,1,1.47.57,2.19,2.19,0,0,1,.55,1.6,2.47,2.47,0,0,1-.53,1.71,1.66,1.66,0,0,1-1.29.61,2.22,2.22,0,0,1-1.52-.56,8.7,8.7,0,0,0-.75-.62.7.7,0,0,0-.38-.1,1.4,1.4,0,0,0-.91.36,3.41,3.41,0,0,0-1,1.6,11.17,11.17,0,0,0-.52,3.52v4.46a3.68,3.68,0,0,0,.12,1.2,1.32,1.32,0,0,0,.58.65,3.53,3.53,0,0,0,1.31.25v.59H82.84v-.59a1.82,1.82,0,0,0,1.36-.55,5.09,5.09,0,0,0,.35-2.48v-8.5a6.3,6.3,0,0,0-.13-1.68,1.28,1.28,0,0,0-.48-.67,2.31,2.31,0,0,0-1.1-.3v-.61Z"/><path d="M106.19,150.83v-5.15a9.62,9.62,0,0,0-3,2.5,3.06,3.06,0,0,0-.65,1.8,1.89,1.89,0,0,0,.55,1.33,1.47,1.47,0,0,0,1.15.44,3.14,3.14,0,0,0,1.91-.92m0,1.2q-2.82,2.49-5,2.49a3,3,0,0,1-2.19-.87,2.9,2.9,0,0,1-.87-2.16,4.25,4.25,0,0,1,1.51-3.17,29.11,29.11,0,0,1,6.6-3.74V143a7.66,7.66,0,0,0-.19-2.19,1.79,1.79,0,0,0-.72-.79,2.09,2.09,0,0,0-1.18-.34,3,3,0,0,0-1.76.48.84.84,0,0,0-.43.69,1.41,1.41,0,0,0,.46.85,2.12,2.12,0,0,1,.63,1.37,1.8,1.8,0,0,1-.6,1.37,2.2,2.2,0,0,1-1.58.57,2.51,2.51,0,0,1-1.73-.62,1.91,1.91,0,0,1-.7-1.47,3.39,3.39,0,0,1,.94-2.26,5.82,5.82,0,0,1,2.61-1.65,10.52,10.52,0,0,1,3.49-.58,5.75,5.75,0,0,1,3.46.93,4.34,4.34,0,0,1,1.66,2,13.18,13.18,0,0,1,.23,3.17v6a6.7,6.7,0,0,0,.08,1.33.77.77,0,0,0,.25.4.57.57,0,0,0,.38.13c.28,0,.57-.2.87-.61l.49.4a6.16,6.16,0,0,1-1.7,1.77,3.75,3.75,0,0,1-2,.55,3.15,3.15,0,0,1-2.06-.62,2.8,2.8,0,0,1-.9-1.87"/><path d="M120.83,138.92v2A9.27,9.27,0,0,1,123.1,139a5,5,0,0,1,2.34-.58,3.73,3.73,0,0,1,2.48.83,4,4,0,0,1,1.32,2.07,16.24,16.24,0,0,1,.26,3.6v6a4.63,4.63,0,0,0,.32,2.21,1.91,1.91,0,0,0,1.34.55v.59h-7.78v-.59a1.65,1.65,0,0,0,1.25-.72,4.7,4.7,0,0,0,.26-2V144.1a11.27,11.27,0,0,0-.14-2.38,1.46,1.46,0,0,0-.51-.77,1.23,1.23,0,0,0-.78-.27c-.94,0-1.82.68-2.63,2V151a4.67,4.67,0,0,0,.32,2.19,1.66,1.66,0,0,0,1.19.57v.59h-7.78v-.59a1.87,1.87,0,0,0,1.38-.62,4.61,4.61,0,0,0,.28-2.14v-8.69a4.33,4.33,0,0,0-.32-2.17,1.93,1.93,0,0,0-1.34-.56v-.61Z"/><path d="M142.27,145a15.27,15.27,0,0,0-.29-3.64,3,3,0,0,0-.9-1.49,1.34,1.34,0,0,0-.92-.3,1.62,1.62,0,0,0-1.4.84,7.23,7.23,0,0,0-1,4V145Zm4,1.1h-8.43a8,8,0,0,0,1.62,4.84,3.44,3.44,0,0,0,2.73,1.36,3.11,3.11,0,0,0,1.8-.55,7,7,0,0,0,1.73-2l.55.36a9.2,9.2,0,0,1-2.76,3.61,5.94,5.94,0,0,1-3.5,1.06,5.84,5.84,0,0,1-5.19-2.63,9.29,9.29,0,0,1-1.41-5.26,8.72,8.72,0,0,1,2.08-6.13,6.41,6.41,0,0,1,4.88-2.28,5.26,5.26,0,0,1,4.05,1.92,8.68,8.68,0,0,1,1.85,5.68"/><path d="M158,138.49l.25,5.25h-.56a8.21,8.21,0,0,0-2.08-3.19,3.48,3.48,0,0,0-2.15-.86,1.63,1.63,0,0,0-1.15.46,1.39,1.39,0,0,0-.48,1,1.37,1.37,0,0,0,.33.86,15.88,15.88,0,0,0,2.95,2.31,12.17,12.17,0,0,1,3.18,2.78,4.49,4.49,0,0,1,.77,2.56,5.36,5.36,0,0,1-.65,2.51,4.43,4.43,0,0,1-1.81,1.9,5.23,5.23,0,0,1-2.58.65,9,9,0,0,1-2.94-.69,2.5,2.5,0,0,0-.68-.18c-.36,0-.66.28-.9.83h-.55l-.26-5.53h.56a7.22,7.22,0,0,0,2,3.26,3.92,3.92,0,0,0,2.45,1.08,1.81,1.81,0,0,0,1.29-.48,1.61,1.61,0,0,0,.5-1.18,2.09,2.09,0,0,0-.49-1.37,13.37,13.37,0,0,0-2.21-1.74,17.11,17.11,0,0,1-3.26-2.67,4.65,4.65,0,0,1-1.08-3,4.87,4.87,0,0,1,1.22-3.22,4.41,4.41,0,0,1,3.55-1.44,5.14,5.14,0,0,1,2.42.61,1.63,1.63,0,0,0,.72.25.85.85,0,0,0,.48-.13,2.9,2.9,0,0,0,.57-.7Z"/><path d="M165.05,131.47a2.55,2.55,0,1,1-2.53,2.55,2.48,2.48,0,0,1,.74-1.8,2.42,2.42,0,0,1,1.79-.75m2.31,7.45v12.19a3.69,3.69,0,0,0,.37,2.08,2.07,2.07,0,0,0,1.49.52v.59h-8.31v-.59a2,2,0,0,0,1.51-.59,3.66,3.66,0,0,0,.33-2v-9a3.67,3.67,0,0,0-.38-2.08,2,2,0,0,0-1.46-.52v-.61Z"/><path d="M180.22,148.2v-1.77a3.63,3.63,0,0,0-1.1-2.66,3.57,3.57,0,0,0-2.64-1.1,3.62,3.62,0,0,0-2.66,1.1,3.65,3.65,0,0,0-1.09,2.66v1.77Zm.4.4h-7.89v1.76a4.1,4.1,0,0,0,.9,3.08,3.76,3.76,0,0,0,2.55.68h4.24v.36h-4.24a4.25,4.25,0,0,1-2.82-.76,4.4,4.4,0,0,1-1-3.36v-3.93a4.15,4.15,0,0,1,8.29,0Z"/><path class="cls-2" d="M180.22,148.2v-1.77a3.63,3.63,0,0,0-1.1-2.66,3.57,3.57,0,0,0-2.64-1.1,3.62,3.62,0,0,0-2.66,1.1,3.65,3.65,0,0,0-1.09,2.66v1.77Zm.4.4h-7.89v1.76a4.1,4.1,0,0,0,.9,3.08,3.76,3.76,0,0,0,2.55.68h4.24v.36h-4.24a4.25,4.25,0,0,1-2.82-.76,4.4,4.4,0,0,1-1-3.36v-3.93a4.15,4.15,0,0,1,8.29,0Z"/><polygon points="194.37 154.2 194.04 154.4 190.27 148.74 186.49 154.4 186.17 154.2 190.04 148.38 186.17 142.58 186.49 142.37 190.27 148.03 194.04 142.37 194.37 142.58 190.51 148.38 194.37 154.2"/><polygon class="cls-2" points="194.37 154.2 194.04 154.4 190.27 148.74 186.49 154.4 186.17 154.2 190.04 148.38 186.17 142.58 186.49 142.37 190.27 148.03 194.04 142.37 194.37 142.58 190.51 148.38 194.37 154.2"/><path d="M207.81,150.85v-4.91a3.19,3.19,0,0,0-.95-2.32,3.14,3.14,0,0,0-2.3-1h-4.24v11.45h4.24a3.24,3.24,0,0,0,3.25-3.27m.4,0a3.6,3.6,0,0,1-3.65,3.63h-4.24v5.73h-.4V142.29h4.64a3.48,3.48,0,0,1,2.58,1.07,3.52,3.52,0,0,1,1.07,2.58Z"/><path class="cls-2" d="M207.81,150.85v-4.91a3.19,3.19,0,0,0-.95-2.32,3.14,3.14,0,0,0-2.3-1h-4.24v11.45h4.24a3.24,3.24,0,0,0,3.25-3.27Zm.4,0a3.6,3.6,0,0,1-3.65,3.63h-4.24v5.73h-.4V142.29h4.64a3.48,3.48,0,0,1,2.58,1.07,3.52,3.52,0,0,1,1.07,2.58Z"/><path d="M221.6,148.2v-1.77a3.75,3.75,0,0,0-6.4-2.66,3.68,3.68,0,0,0-1.08,2.66v1.77Zm.4.4h-7.88v1.76a4.15,4.15,0,0,0,.89,3.08,3.78,3.78,0,0,0,2.56.68h4.23v.36h-4.23a4.25,4.25,0,0,1-2.82-.76,4.4,4.4,0,0,1-1-3.36v-3.93a4.11,4.11,0,0,1,4.14-4.14,4.13,4.13,0,0,1,4.14,4.14Z"/><path class="cls-2" d="M221.6,148.2v-1.77a3.75,3.75,0,0,0-6.4-2.66,3.68,3.68,0,0,0-1.08,2.66v1.77Zm.4.4h-7.88v1.76a4.15,4.15,0,0,0,.89,3.08,3.78,3.78,0,0,0,2.56.68h4.23v.36h-4.23a4.25,4.25,0,0,1-2.82-.76,4.4,4.4,0,0,1-1-3.36v-3.93a4.11,4.11,0,0,1,4.14-4.14,4.13,4.13,0,0,1,4.14,4.14Z"/><polygon points="233.83 144.45 233.43 144.45 233.43 142.68 227.91 142.68 227.91 154.3 227.51 154.3 227.51 142.29 233.83 142.29 233.83 144.45"/><polygon class="cls-2" points="233.83 144.45 233.43 144.45 233.43 142.68 227.91 142.68 227.91 154.3 227.51 154.3 227.51 142.29 233.83 142.29 233.83 144.45"/><path d="M239.34,154.3h.4V142.47h-.4Zm0-16.76h.4v-1h-.4Z"/><path class="cls-2" d="M239.74,154.3h-.4V142.47h.4Zm0-16.76h-.4v-1h.4Z"/><path d="M253.14,148.2v-1.77a3.63,3.63,0,0,0-1.1-2.66,3.58,3.58,0,0,0-2.65-1.1,3.63,3.63,0,0,0-2.66,1.1,3.68,3.68,0,0,0-1.08,2.66v1.77Zm.4.4h-7.89v1.76a4.1,4.1,0,0,0,.9,3.08,3.76,3.76,0,0,0,2.55.68h4.24v.36H249.1a4.25,4.25,0,0,1-2.82-.76,4.4,4.4,0,0,1-1-3.36v-3.93a4.11,4.11,0,0,1,4.14-4.14,4.15,4.15,0,0,1,4.15,4.14Z"/><path class="cls-2" d="M253.14,148.2v-1.77a3.63,3.63,0,0,0-1.1-2.66,3.58,3.58,0,0,0-2.65-1.1,3.63,3.63,0,0,0-2.66,1.1,3.68,3.68,0,0,0-1.08,2.66v1.77Zm.4.4h-7.89v1.76a4.1,4.1,0,0,0,.9,3.08,3.76,3.76,0,0,0,2.55.68h4.24v.36H249.1a4.25,4.25,0,0,1-2.82-.76,4.4,4.4,0,0,1-1-3.36v-3.93a4.11,4.11,0,0,1,4.14-4.14,4.15,4.15,0,0,1,4.15,4.14Z"/><path d="M267.33,154.3h-.4v-8.36a3.19,3.19,0,0,0-.95-2.32,3.14,3.14,0,0,0-2.3-1h-4.23V154.3h-.4v-12h4.63a3.65,3.65,0,0,1,3.65,3.65Z"/><path class="cls-2" d="M267.33,154.3h-.4v-8.36a3.19,3.19,0,0,0-.95-2.32,3.14,3.14,0,0,0-2.3-1h-4.23V154.3h-.4v-12h4.63a3.65,3.65,0,0,1,3.65,3.65Z"/><path d="M279,154.48h-2.46a3.51,3.51,0,0,1-2.59-1,3.47,3.47,0,0,1-1.06-2.57v-4.92a3.64,3.64,0,0,1,3.65-3.65H279v.38h-2.46a3.23,3.23,0,0,0-3.25,3.27v4.92a3.23,3.23,0,0,0,3.25,3.26H279Z"/><path class="cls-2" d="M279,154.48h-2.46a3.51,3.51,0,0,1-2.59-1,3.47,3.47,0,0,1-1.06-2.57v-4.92a3.64,3.64,0,0,1,3.65-3.65H279v.38h-2.46a3.23,3.23,0,0,0-3.25,3.27v4.92a3.23,3.23,0,0,0,3.25,3.26H279Z"/><path d="M292.56,148.2v-1.77a3.63,3.63,0,0,0-1.1-2.66,3.58,3.58,0,0,0-2.65-1.1,3.63,3.63,0,0,0-2.66,1.1,3.68,3.68,0,0,0-1.08,2.66v1.77Zm.4.4h-7.89v1.76a4.1,4.1,0,0,0,.9,3.08,3.76,3.76,0,0,0,2.55.68h4.24v.36h-4.24a4.25,4.25,0,0,1-2.82-.76,4.4,4.4,0,0,1-1-3.36v-3.93a4.11,4.11,0,0,1,4.14-4.14,4.15,4.15,0,0,1,4.15,4.14Z"/><path class="cls-2" d="M292.56,148.2v-1.77a3.63,3.63,0,0,0-1.1-2.66,3.58,3.58,0,0,0-2.65-1.1,3.63,3.63,0,0,0-2.66,1.1,3.68,3.68,0,0,0-1.08,2.66v1.77Zm.4.4h-7.89v1.76a4.1,4.1,0,0,0,.9,3.08,3.76,3.76,0,0,0,2.55.68h4.24v.36h-4.24a4.25,4.25,0,0,1-2.82-.76,4.4,4.4,0,0,1-1-3.36v-3.93a4.11,4.11,0,0,1,4.14-4.14,4.15,4.15,0,0,1,4.15,4.14Z"/><path d="M56,170.93a.51.51,0,0,1,.5-.49.5.5,0,1,1,0,1,.51.51,0,0,1-.5-.5m-1.59,13.28a.32.32,0,0,1,.32-.32,1.44,1.44,0,0,0,1.45-1.45v-8.85a.32.32,0,0,1,.64,0v8.85a2.1,2.1,0,0,1-2.09,2.09.32.32,0,0,1-.32-.32"/><path d="M63.07,178.83v-5.24a.32.32,0,1,1,.64,0v5.24a1.45,1.45,0,0,0,1.45,1.45h1.45v-6.69a.32.32,0,1,1,.64,0v7a.32.32,0,0,1-.32.32H65.16a2.1,2.1,0,0,1-2.09-2.09"/><path d="M76.38,178.92a1.28,1.28,0,0,0-.56-1l-1.65-1.17a1.83,1.83,0,0,1-.81-1.43,1.94,1.94,0,0,1,.62-1.55,1.91,1.91,0,0,1,2.94.47.32.32,0,0,1-.11.44.32.32,0,0,1-.44-.13,1.29,1.29,0,0,0-.91-.62,1.33,1.33,0,0,0-1.06.32,1.36,1.36,0,0,0-.41,1,1.33,1.33,0,0,0,.55,1l1.65,1.15a1.94,1.94,0,0,1,.83,1.5,2,2,0,0,1-.64,1.6,2,2,0,0,1-3.06-.48.33.33,0,0,1,.57-.32A1.35,1.35,0,0,0,76,180a1.31,1.31,0,0,0,.42-1.08"/><path d="M82.28,173.66a.32.32,0,0,1,.32-.32h1.09v-3.29a.32.32,0,0,1,.32-.32.32.32,0,0,1,.32.32v3.29h1.45a.32.32,0,0,1,0,.64H84.33v4.92a1.46,1.46,0,0,0,1.45,1.45.32.32,0,0,1,0,.64,2.1,2.1,0,0,1-2.09-2.09V174H82.6a.32.32,0,0,1-.32-.32"/><path d="M98,173.66a.32.32,0,0,1,.32-.32h1.09v-1.52a2.1,2.1,0,0,1,2.09-2.09.32.32,0,0,1,.32.32.32.32,0,0,1-.32.32,1.46,1.46,0,0,0-1.45,1.45v1.52h1.45a.32.32,0,0,1,0,.64h-1.45v6.69a.32.32,0,0,1-.32.32.32.32,0,0,1-.32-.32V174H98.32a.32.32,0,0,1-.32-.32"/><path d="M108,175.36v3.54a1.46,1.46,0,0,0,2.91,0v-3.54a1.46,1.46,0,0,0-2.91,0m-.64,3.54v-3.54a2.09,2.09,0,1,1,4.18,0v3.54a2.09,2.09,0,1,1-4.18,0"/><path d="M117.75,180.67v-7a.32.32,0,0,1,.32-.32h1.77a2.22,2.22,0,0,1,1,.28.31.31,0,0,1,.12.43.32.32,0,0,1-.44.12,1.53,1.53,0,0,0-.73-.19h-1.45v6.69a.32.32,0,0,1-.32.32.32.32,0,0,1-.32-.32"/><path d="M133.31,178.9v-3.54a2.08,2.08,0,0,1,3.56-1.47.31.31,0,1,1-.44.44,1.5,1.5,0,0,0-1.59-.32,1.48,1.48,0,0,0-.89,1.35v3.54a1.49,1.49,0,0,0,.89,1.35,1.45,1.45,0,0,0,1.59-.32.31.31,0,0,1,.44.44,2.08,2.08,0,0,1-3.56-1.47"/><path d="M143.19,181a.32.32,0,0,1-.32-.32v-7.08a.32.32,0,0,1,.32-.32.32.32,0,0,1,.32.32v7.08a.32.32,0,0,1-.32.32m-.49-10.06a.5.5,0,0,1,.49-.49.5.5,0,1,1,0,1,.51.51,0,0,1-.49-.5"/><path d="M149.18,173.66a.31.31,0,0,1,.31-.32h1.1v-3.29a.32.32,0,0,1,.64,0v3.29h1.45a.32.32,0,0,1,0,.64h-1.45v4.92a1.46,1.46,0,0,0,1.45,1.45.32.32,0,1,1,0,.64,2.1,2.1,0,0,1-2.09-2.09V174h-1.1a.31.31,0,0,1-.31-.32"/><path d="M157.85,184.21a.32.32,0,0,1,.32-.32,1.48,1.48,0,0,0,.87-.28,1.66,1.66,0,0,0,.53-.74l.65-2.2-2.1-7a.32.32,0,0,1,.62-.18l1.8,6.06,1.83-6.06a.3.3,0,0,1,.4-.21.33.33,0,0,1,.22.39l-2.13,7.08-.69,2.28a2.05,2.05,0,0,1-.76,1.08,2,2,0,0,1-1.24.41.32.32,0,0,1-.32-.32"/><path d="M176.17,175.43v3.4a1.46,1.46,0,0,0,1.45,1.45h1.46V174h-1.46a1.46,1.46,0,0,0-1.45,1.45m-.64,3.4v-3.4a2.1,2.1,0,0,1,2.09-2.09h1.46v-3.29a.32.32,0,1,1,.63,0V180.6a.31.31,0,0,1-.31.32h-1.78a2.1,2.1,0,0,1-2.09-2.09"/><path d="M186.16,180.67v-7a.32.32,0,0,1,.32-.32h1.77a2.22,2.22,0,0,1,1,.28.31.31,0,0,1,.12.43.31.31,0,0,1-.44.12,1.52,1.52,0,0,0-.72-.19h-1.46v6.69a.32.32,0,1,1-.63,0"/><path d="M195.42,175.36v1.45h2.9v-1.45a1.45,1.45,0,1,0-2.9,0m-.64,3.54v-3.54a2.09,2.09,0,0,1,4.18,0v1.77a.32.32,0,0,1-.32.32h-3.22v1.45a1.47,1.47,0,0,0,.9,1.35,1.42,1.42,0,0,0,1.57-.32.31.31,0,0,1,.45,0,.31.31,0,0,1,0,.44,2.08,2.08,0,0,1-3.56-1.47"/><path d="M206.43,180.28h1.45v-2.9h-1.45a1.45,1.45,0,1,0,0,2.9m1.45-3.54v-1.42a1.43,1.43,0,0,0-2.43-1,.27.27,0,0,1-.44,0,.31.31,0,0,1,0-.44,2.06,2.06,0,0,1,3.51,1.45v5.28a.32.32,0,0,1-.32.32h-1.77a2.09,2.09,0,0,1,0-4.18Z"/><path d="M215.45,174v6.69a.32.32,0,0,1-.31.32.32.32,0,0,1-.32-.32v-7a.32.32,0,0,1,.32-.32h5.31a2.1,2.1,0,0,1,2.09,2.09v5.24a.33.33,0,0,1-.32.32.32.32,0,0,1-.32-.32v-5.24a1.46,1.46,0,0,0-1.45-1.45H219v6.69a.33.33,0,0,1-.32.32.32.32,0,0,1-.32-.32V174Z"/><path d="M229.26,175.36v1.45h2.91v-1.45a1.46,1.46,0,0,0-2.91,0m-.64,3.54v-3.54a2.09,2.09,0,1,1,4.18,0v1.77a.31.31,0,0,1-.31.32h-3.23v1.45a1.48,1.48,0,0,0,.91,1.35,1.42,1.42,0,0,0,1.57-.32.31.31,0,0,1,.44.44,2.06,2.06,0,0,1-2.26.46,2.09,2.09,0,0,1-1.3-1.93"/><path d="M238.89,180.67v-7a.32.32,0,0,1,.32-.32H241a2.26,2.26,0,0,1,1.05.28.31.31,0,0,1,.12.43.32.32,0,0,1-.44.12A1.53,1.53,0,0,0,241,174h-1.45v6.69a.32.32,0,1,1-.64,0"/><path d="M250.42,178.92a1.29,1.29,0,0,0-.57-1l-1.64-1.17a1.87,1.87,0,0,1-.82-1.43,2,2,0,0,1,.62-1.55,1.93,1.93,0,0,1,1.58-.47,1.89,1.89,0,0,1,1.36.94.31.31,0,0,1-.11.44.32.32,0,0,1-.44-.13,1.25,1.25,0,0,0-.9-.62,1.36,1.36,0,0,0-1.07.32,1.32,1.32,0,0,0-.4,1,1.29,1.29,0,0,0,.55,1l1.64,1.15a2,2,0,0,1,.84,1.5,2,2,0,0,1-.64,1.6,2,2,0,0,1-1.65.49,2,2,0,0,1-1.42-1,.32.32,0,0,1,.13-.44.32.32,0,0,1,.44.12,1.29,1.29,0,0,0,1,.65A1.26,1.26,0,0,0,250,180a1.35,1.35,0,0,0,.43-1.08"/></g></g></svg>