<svg xmlns="http://www.w3.org/2000/svg" viewBox="0 0 311 311"><defs><style>.cls-1{fill:#1b0a0c;}.cls-2{fill:#fff;}.cls-3{fill:none;stroke:#102ef1;stroke-miterlimit:10;opacity:0;}</style></defs><title>LogoCliente_CN</title><g id="Layer_2" data-name="Layer 2"><g id="LOGO_CLIENTE" data-name="LOGO CLIENTE"><polygon class="cls-1" points="192.83 199.2 193.96 201.76 196.59 201.76 198.4 192.25 195.21 192.25 194.42 196.42 192.83 192.58 191.25 196.42 190.46 192.25 187.26 192.25 189.07 201.76 191.71 201.76 192.83 199.2"/><polygon class="cls-1" points="186.49 192.25 176.98 192.25 176.98 195.02 179.95 195.02 179.95 201.76 183.52 201.76 183.52 195.02 186.49 195.02 186.49 192.25"/><path class="cls-1" d="M203.58,192.05a4.95,4.95,0,1,0,4.95,4.95,5,5,0,0,0-4.95-4.95m0,6.73a1.78,1.78,0,1,1,1.78-1.78,1.78,1.78,0,0,1-1.78,1.78"/><polygon class="cls-1" points="166.28 201.76 166.28 192.25 163.12 192.25 163.12 196.21 159.94 192.25 156.78 192.25 156.78 201.76 159.94 201.76 159.94 197.79 163.12 201.76 166.28 201.76"/><polygon class="cls-1" points="175.94 195.02 175.94 192.25 167.62 192.25 167.62 201.76 175.94 201.76 175.94 199.18 170.79 199.18 170.79 198.23 175.15 198.23 175.15 195.85 170.79 195.85 170.79 195.02 175.94 195.02"/><path class="cls-1" d="M218.59,195.61a3.41,3.41,0,0,0-3.57-3.36h-5.55v9.51h3.17V199h1l1.4,2.78h3.54l-1.89-3.17a3.38,3.38,0,0,0,1.89-3m-6-.59h2a.8.8,0,0,1,0,1.59h-2Z"/><polygon class="cls-1" points="229.19 192.25 225.11 192.25 222.75 195.36 222.75 192.25 219.58 192.25 219.58 201.76 222.75 201.76 222.75 198.21 225.11 201.76 229.19 201.76 225.49 196.82 229.19 192.25"/><path class="cls-1" d="M95.2,201.76h3.37l-3-9.51H90.84l-3,9.51h3.39l.45-1.58h3Zm-2.81-4,.83-2.92.84,2.92Z"/><polygon class="cls-1" points="118.96 192.25 109.45 192.25 109.45 195.03 112.42 195.03 112.42 201.76 115.99 201.76 115.99 195.03 118.96 195.03 118.96 192.25"/><path class="cls-1" d="M85.11,198a2,2,0,1,1,0-1.95l2.59-1.48a5,5,0,1,0,0,4.91Z"/><path class="cls-1" d="M124.31,192.06a4.95,4.95,0,1,0,4.95,4.95,4.94,4.94,0,0,0-4.95-4.95m0,6.73a1.78,1.78,0,1,1,1.78-1.78,1.78,1.78,0,0,1-1.78,1.78"/><path class="cls-1" d="M135,192.06a4.95,4.95,0,1,0,5,4.95,5,5,0,0,0-5-4.95m0,6.73a1.78,1.78,0,1,1,1.78-1.78,1.79,1.79,0,0,1-1.78,1.78"/><polygon class="cls-1" points="150.41 201.76 150.41 192.25 147.24 192.25 147.24 196.22 144.07 192.25 140.9 192.25 140.9 201.76 144.07 201.76 144.07 197.8 147.24 201.76 150.41 201.76"/><path class="cls-1" d="M108.61,195.62a3.42,3.42,0,0,0-3.57-3.37H99.49v9.51h3.17V199h1l1.4,2.77h3.54l-1.89-3.16a3.38,3.38,0,0,0,1.89-3m-6-.59h2a.79.79,0,1,1,0,1.58h-2Z"/><polygon class="cls-1" points="232.29 199.16 232.29 199.62 231.52 199.62 231.52 201.76 230.97 201.76 230.97 199.62 230.19 199.62 230.19 199.16 232.29 199.16"/><path class="cls-1" d="M234.33,199.17h.78v2.59h-.51v-2a1.79,1.79,0,0,0,0-.21l-.5,2.18h-.52l-.49-2.18v2.18h-.5v-2.59h.79l.47,2Z"/><g id="CN"><rect class="cls-2" x="153.56" y="109.04" width="77.66" height="77.66"/><rect class="cls-2" x="153.56" y="109.04" width="77.66" height="77.66"/><polygon class="cls-1" points="225.67 181.15 225.67 114.58 203.48 114.58 203.48 142.32 181.29 114.58 159.1 114.58 159.1 181.15 181.29 181.15 181.29 153.41 203.48 181.15 225.67 181.15"/></g><path class="cls-1" d="M75.89,109V186.7h77.67V109Zm41,51.31a12.48,12.48,0,0,0,10.83-6.29l19.27,11a34.67,34.67,0,1,1,0-34.4l-19.27,11a12.48,12.48,0,1,0-10.83,18.67Z"/><circle id="Bounding" class="cls-3" cx="155.5" cy="155.5" r="155"/></g></g></svg>