<svg xmlns="http://www.w3.org/2000/svg" viewBox="0 0 310 310"><defs><style>.cls-1{fill:none;}.cls-2{fill-rule:evenodd;}</style></defs><title>_LogoCliente_LaF2016</title><g id="Layer_2" data-name="Layer 2"><g id="LOGO_CLIENTE" data-name="LOGO CLIENTE"><circle id="Bounding" class="cls-1" cx="155" cy="155" r="155"/><path class="cls-2" d="M151,198.4c0,2.75-4.93,9.6-6.61,11.7-2.1,2.64-7.44,9.07-11.11,9.07-1.92,0-2.76-2-2.76-3.67,0-3.78,3.18-9.84,5.47-12.72,2.52-3.3,6.78-7.51,11.17-7.51,2,0,3.84.9,3.84,3.13m-35,16.32,8.29-27.08a12,12,0,0,0,.61-2.45c0-1.38-1.33-1.51-2.35-1.51l-1,.07a.65.65,0,0,1-.72-.66c0-.84,1.2-.78,1.8-.78a12.56,12.56,0,0,0,6.9-2.28,1.47,1.47,0,0,1,.54-.24.48.48,0,0,1,.48.53,11.24,11.24,0,0,1-.35,1.44l-10.28,33.5a8.27,8.27,0,0,0-.59,2.41c0,.48.24,1,.84,1,1.44,0,4.5-4.21,5.22-5.47.18-.3.42-.78.9-.78a28.63,28.63,0,0,1,6.44-11.05c3.65-3.84,9.06-7.26,14.52-7.26a5.12,5.12,0,0,1,4.63,2.1l.18-.54c.54-1.86.48-2.16,2.46-2.16.36,0,2-.3,2,.54a7,7,0,0,1-.3,1.2l-6.18,20.3a7,7,0,0,0-.49,2c0,.49.13.91.61.91,1.5,0,4.32-3.78,5-4.93.18-.3.6-1.08,1-1.08a.46.46,0,0,1,.42.48c0,1.08-2.46,4.21-3.18,5-1.5,1.62-4.74,4.44-7.15,4.44a1.55,1.55,0,0,1-1.62-1.74,11.94,11.94,0,0,1,.67-3.36l3.65-11.89c-3.36,5.52-11.4,17-18.49,17-3.36,0-4.74-3.24-4.74-6.18a13.16,13.16,0,0,1,.11-1.64,21.38,21.38,0,0,1-1.86,2.6c-1.38,1.74-4.8,5.22-7.32,5.22-1.57,0-1.86-1-1.86-2.34a20.13,20.13,0,0,1,1.07-5.29"/><polygon points="114.89 145.72 191.49 222.35 191.49 193.62 167.55 169.66 191.49 145.72 191.49 117 153.18 155.3 143.62 145.72 191.49 97.86 191.49 69.13 114.89 145.72"/></g></g></svg>