<?xml version="1.0" encoding="utf-8"?>
<!-- Generator: Adobe Illustrator 23.0.6, SVG Export Plug-In . SVG Version: 6.00 Build 0)  -->
<svg version="1.1" id="Livello_1" xmlns="http://www.w3.org/2000/svg" xmlns:xlink="http://www.w3.org/1999/xlink" x="0px" y="0px"
	 viewBox="0 0 155 40" style="enable-background:new 0 0 155 40;" xml:space="preserve">
<style type="text/css">
	.st0{enable-background:new    ;}
	.st1{fill:#FFFFFF;}
</style>
<g>
	<g>
		<g class="st0">
			<path class="st1" d="M53.9,14.4v3.2H53v-3.2L50,10H51l2.4,3.6l2.4-3.6h1L53.9,14.4z"/>
			<path class="st1" d="M59.4,12.3c0.4,0,0.8,0.1,1.1,0.2c0.3,0.1,0.6,0.3,0.9,0.6c0.2,0.2,0.4,0.5,0.6,0.9c0.1,0.3,0.2,0.7,0.2,1.1
				s-0.1,0.7-0.2,1.1c-0.1,0.3-0.3,0.6-0.6,0.9c-0.2,0.2-0.5,0.4-0.9,0.6c-0.3,0.1-0.7,0.2-1.1,0.2c-0.4,0-0.8-0.1-1.1-0.2
				s-0.6-0.3-0.9-0.6c-0.2-0.2-0.4-0.5-0.6-0.9c-0.1-0.3-0.2-0.7-0.2-1.1s0.1-0.7,0.2-1.1c0.1-0.3,0.3-0.6,0.6-0.9
				c0.2-0.2,0.5-0.4,0.9-0.6S59,12.3,59.4,12.3z M59.4,13.1c-0.3,0-0.5,0-0.8,0.1s-0.4,0.2-0.6,0.4c-0.2,0.2-0.3,0.4-0.4,0.6
				s-0.1,0.5-0.1,0.8s0,0.5,0.1,0.8s0.2,0.4,0.4,0.6c0.2,0.2,0.4,0.3,0.6,0.4s0.5,0.1,0.8,0.1s0.5,0,0.8-0.1
				c0.2-0.1,0.4-0.2,0.6-0.4c0.2-0.2,0.3-0.4,0.4-0.6c0.1-0.2,0.1-0.5,0.1-0.8s0-0.5-0.1-0.8s-0.2-0.4-0.4-0.6
				c-0.2-0.2-0.4-0.3-0.6-0.4C59.9,13.1,59.7,13.1,59.4,13.1z"/>
			<path class="st1" d="M68.3,15.5c0,0.4-0.1,0.7-0.2,1c-0.1,0.3-0.3,0.5-0.5,0.7c-0.2,0.2-0.5,0.3-0.7,0.4
				c-0.3,0.1-0.6,0.1-0.9,0.1c-0.3,0-0.6,0-0.9-0.1c-0.3-0.1-0.5-0.2-0.7-0.4c-0.2-0.2-0.4-0.4-0.5-0.7c-0.1-0.3-0.2-0.6-0.2-1v-3
				h0.8v2.9c0,0.3,0,0.5,0.1,0.7c0.1,0.2,0.2,0.4,0.3,0.5s0.3,0.2,0.5,0.3S65.7,17,66,17s0.4,0,0.6-0.1c0.2-0.1,0.3-0.2,0.5-0.3
				s0.2-0.3,0.3-0.5c0.1-0.2,0.1-0.4,0.1-0.7v-2.9h0.8L68.3,15.5L68.3,15.5z"/>
			<path class="st1" d="M72.5,12.3c0.2,0,0.4,0,0.5,0s0.3,0.1,0.4,0.1l-0.2,0.8c-0.1-0.1-0.3-0.1-0.4-0.2c-0.2,0-0.3-0.1-0.5-0.1
				c-0.2,0-0.4,0-0.6,0.1c-0.2,0.1-0.3,0.2-0.4,0.3c-0.1,0.1-0.2,0.3-0.3,0.5C71,14.2,71,14.5,71,14.7v2.9h-0.8v-5.2H71v0.7
				c0.2-0.3,0.4-0.5,0.7-0.6C71.9,12.4,72.2,12.3,72.5,12.3z"/>
			<path class="st1" d="M81,13.5c-0.1-0.1-0.2-0.1-0.3-0.2c-0.1-0.1-0.3-0.1-0.4-0.2s-0.3-0.1-0.5-0.1s-0.3,0-0.5,0
				c-0.2,0-0.4,0-0.5,0.1c-0.2,0-0.3,0.1-0.4,0.2s-0.2,0.2-0.2,0.3c-0.1,0.1-0.1,0.2-0.1,0.3c0,0.2,0.1,0.4,0.3,0.5
				c0.2,0.1,0.4,0.2,0.8,0.2l0.6,0.1c0.6,0.1,1,0.2,1.3,0.5s0.5,0.6,0.5,1c0,0.2-0.1,0.5-0.2,0.7c-0.1,0.2-0.3,0.4-0.5,0.5
				s-0.4,0.2-0.7,0.3c-0.3,0.1-0.6,0.1-0.9,0.1c-0.2,0-0.3,0-0.5,0c-0.2,0-0.4-0.1-0.6-0.1c-0.2-0.1-0.4-0.1-0.6-0.2
				S77.2,17.2,77,17l0.4-0.6c0.1,0.1,0.2,0.1,0.3,0.2c0.1,0.1,0.2,0.1,0.4,0.2c0.1,0.1,0.3,0.1,0.5,0.1c0.2,0,0.4,0,0.6,0
				c0.4,0,0.8-0.1,1-0.2c0.3-0.1,0.4-0.4,0.4-0.6c0-0.2-0.1-0.4-0.3-0.5c-0.2-0.1-0.4-0.2-0.8-0.3l-0.6-0.1c-0.6-0.1-1-0.2-1.3-0.5
				c-0.3-0.2-0.4-0.6-0.4-1c0-0.2,0-0.5,0.1-0.7s0.2-0.4,0.4-0.5c0.2-0.1,0.4-0.2,0.7-0.3c0.3-0.1,0.5-0.1,0.8-0.1
				c0.4,0,0.8,0.1,1.1,0.2c0.4,0.1,0.7,0.2,0.9,0.4L81,13.5z"/>
			<path class="st1" d="M86.4,13.2h-2.2v2.6c0,0.2,0,0.4,0.1,0.5s0.1,0.3,0.2,0.4s0.2,0.2,0.3,0.2c0.1,0,0.3,0.1,0.4,0.1
				c0.2,0,0.4,0,0.6-0.1c0.2-0.1,0.4-0.2,0.5-0.3l0.4,0.6c-0.2,0.1-0.4,0.3-0.7,0.4s-0.5,0.1-0.9,0.1c-0.6,0-1-0.2-1.3-0.5
				s-0.5-0.8-0.5-1.4v-2.6h-1.1v-0.7h1.1v-1.6h0.8v1.6h2.2L86.4,13.2L86.4,13.2z"/>
			<path class="st1" d="M90.2,12.3c0.4,0,0.8,0.1,1.1,0.2s0.6,0.3,0.9,0.6c0.2,0.2,0.4,0.5,0.6,0.9c0.1,0.3,0.2,0.7,0.2,1.1
				s-0.1,0.7-0.2,1.1c-0.1,0.3-0.3,0.6-0.6,0.9c-0.2,0.2-0.5,0.4-0.9,0.6s-0.7,0.2-1.1,0.2c-0.4,0-0.8-0.1-1.1-0.2s-0.6-0.3-0.9-0.6
				c-0.2-0.2-0.4-0.5-0.6-0.9c-0.1-0.3-0.2-0.7-0.2-1.1s0.1-0.7,0.2-1.1c0.1-0.3,0.3-0.6,0.6-0.9c0.2-0.2,0.5-0.4,0.9-0.6
				S89.8,12.3,90.2,12.3z M90.2,13.1c-0.3,0-0.5,0-0.8,0.1c-0.2,0.1-0.4,0.2-0.6,0.4s-0.3,0.4-0.4,0.6c-0.1,0.2-0.1,0.5-0.1,0.8
				s0,0.5,0.1,0.8c0.1,0.2,0.2,0.4,0.4,0.6c0.2,0.2,0.4,0.3,0.6,0.4c0.2,0.1,0.5,0.1,0.8,0.1c0.3,0,0.5,0,0.7-0.1
				c0.2-0.1,0.4-0.2,0.6-0.4c0.2-0.2,0.3-0.4,0.4-0.6c0.1-0.2,0.1-0.5,0.1-0.8s0-0.5-0.1-0.8c-0.1-0.2-0.2-0.4-0.4-0.6
				s-0.4-0.3-0.6-0.4C90.7,13.1,90.5,13.1,90.2,13.1z"/>
			<path class="st1" d="M96.8,12.3c0.2,0,0.4,0,0.5,0c0.2,0,0.3,0.1,0.4,0.1l-0.2,0.8c-0.1-0.1-0.3-0.1-0.4-0.2
				c-0.2,0-0.3-0.1-0.5-0.1c-0.2,0-0.4,0-0.6,0.1c-0.2,0.1-0.3,0.2-0.4,0.3c-0.1,0.1-0.2,0.3-0.3,0.5c-0.1,0.2-0.1,0.4-0.1,0.7v2.9
				h-0.8v-5.2h0.8v0.7c0.2-0.3,0.4-0.5,0.7-0.6C96.2,12.4,96.5,12.3,96.8,12.3z"/>
			<path class="st1" d="M99.8,19.8h-0.9l1.9-3.3l-2.4-4.1h0.9l1.9,3.2l1.8-3.2h0.9L99.8,19.8z"/>
			<path class="st1" d="M105.3,16.3l-0.6,2.8H104l0.3-2.8H105.3z"/>
		</g>
		<g class="st0">
			<path class="st1" d="M56.6,29.2l1.6-4.3H59l-1.9,5.2h-1l-1.5-4.3L53,30.1h-1l-1.9-5.2H51l1.5,4.3l1.5-4.3h0.9L56.6,29.2z"/>
			<path class="st1" d="M62.5,24.8c0.4,0,0.8,0.1,1.1,0.2c0.3,0.1,0.6,0.3,0.9,0.6c0.2,0.2,0.4,0.5,0.6,0.9c0.1,0.3,0.2,0.7,0.2,1.1
				s-0.1,0.7-0.2,1.1c-0.1,0.3-0.3,0.6-0.6,0.9c-0.2,0.2-0.5,0.4-0.9,0.6c-0.3,0.1-0.7,0.2-1.1,0.2s-0.8-0.1-1.1-0.2
				s-0.6-0.3-0.9-0.6c-0.2-0.2-0.4-0.5-0.6-0.9c-0.1-0.3-0.2-0.7-0.2-1.1s0.1-0.7,0.2-1.1c0.1-0.3,0.3-0.6,0.6-0.9
				c0.2-0.2,0.5-0.4,0.9-0.6S62.1,24.8,62.5,24.8z M62.5,25.5c-0.3,0-0.5,0-0.8,0.1c-0.2,0.1-0.4,0.2-0.6,0.4s-0.3,0.4-0.4,0.6
				s-0.1,0.5-0.1,0.8s0,0.5,0.1,0.8s0.2,0.4,0.4,0.6c0.2,0.2,0.4,0.3,0.6,0.4c0.2,0.1,0.5,0.1,0.8,0.1c0.3,0,0.5,0,0.8-0.1
				c0.2-0.1,0.4-0.2,0.6-0.4c0.2-0.2,0.3-0.4,0.4-0.6s0.1-0.5,0.1-0.8s0-0.5-0.1-0.8s-0.2-0.4-0.4-0.6c-0.2-0.2-0.4-0.3-0.6-0.4
				C63.1,25.6,62.8,25.5,62.5,25.5z"/>
			<path class="st1" d="M69.3,24.8c0.3,0,0.6,0,0.9,0.1c0.3,0.1,0.5,0.2,0.7,0.4s0.3,0.4,0.4,0.7c0.1,0.3,0.2,0.5,0.2,0.9v3.2h-0.8
				v-2.9c0-0.5-0.1-0.9-0.4-1.2s-0.6-0.4-1.1-0.4c-0.2,0-0.4,0-0.6,0.1c-0.2,0.1-0.4,0.2-0.5,0.3c-0.1,0.1-0.3,0.3-0.3,0.5
				c-0.1,0.2-0.1,0.4-0.1,0.7v2.9h-0.8v-5.2h0.8v0.7c0.1-0.2,0.2-0.3,0.4-0.4c0.1-0.1,0.3-0.2,0.4-0.3c0.2-0.1,0.3-0.1,0.5-0.1
				C69,24.8,69.2,24.8,69.3,24.8z"/>
			<path class="st1" d="M75.6,24.8c0.4,0,0.8,0.1,1.1,0.2c0.3,0.2,0.6,0.4,0.8,0.6v-3.5h0.8v7.9h-0.8v-0.8c-0.2,0.3-0.5,0.5-0.8,0.6
				c-0.3,0.2-0.7,0.2-1.1,0.2c-0.4,0-0.7-0.1-1-0.2c-0.3-0.1-0.6-0.3-0.8-0.6s-0.4-0.5-0.6-0.9C73,28.2,73,27.8,73,27.5
				s0.1-0.8,0.2-1.1c0.1-0.3,0.3-0.6,0.6-0.9s0.5-0.4,0.8-0.6C74.9,24.8,75.2,24.8,75.6,24.8z M75.7,25.5c-0.3,0-0.5,0-0.8,0.1
				c-0.2,0.1-0.4,0.2-0.6,0.4c-0.2,0.2-0.3,0.4-0.4,0.6c-0.1,0.2-0.1,0.5-0.1,0.8s0,0.5,0.1,0.8c0.1,0.2,0.2,0.4,0.4,0.6
				c0.2,0.2,0.4,0.3,0.6,0.4c0.2,0.1,0.5,0.1,0.8,0.1c0.3,0,0.5,0,0.7-0.1c0.2-0.1,0.4-0.2,0.6-0.4c0.2-0.2,0.3-0.4,0.4-0.6
				c0.1-0.2,0.1-0.5,0.1-0.8s0-0.5-0.1-0.8c-0.1-0.2-0.2-0.4-0.4-0.6c-0.2-0.2-0.4-0.3-0.6-0.4C76.2,25.6,75.9,25.5,75.7,25.5z"/>
			<path class="st1" d="M82.4,24.8c0.3,0,0.7,0.1,1,0.2c0.3,0.1,0.6,0.3,0.8,0.5s0.4,0.5,0.5,0.8c0.1,0.3,0.2,0.7,0.2,1.1
				c0,0.1,0,0.2,0,0.3h-4.2c0,0.3,0.1,0.5,0.2,0.7c0.1,0.2,0.2,0.4,0.4,0.5c0.2,0.1,0.4,0.2,0.6,0.3c0.2,0.1,0.4,0.1,0.7,0.1
				c0.3,0,0.6-0.1,0.9-0.2s0.5-0.3,0.7-0.5l0.4,0.6c-0.3,0.3-0.7,0.5-1,0.6s-0.7,0.2-1.1,0.2c-0.4,0-0.7-0.1-1.1-0.2
				c-0.3-0.1-0.6-0.3-0.8-0.6c-0.2-0.2-0.4-0.5-0.5-0.9c-0.1-0.3-0.2-0.7-0.2-1.1c0-0.4,0.1-0.8,0.2-1.1c0.1-0.3,0.3-0.6,0.5-0.9
				c0.2-0.2,0.5-0.4,0.8-0.6C81.6,24.8,82,24.8,82.4,24.8z M82.3,25.5c-0.2,0-0.5,0-0.7,0.1s-0.4,0.2-0.5,0.3
				c-0.1,0.1-0.3,0.3-0.4,0.5c-0.1,0.2-0.2,0.4-0.2,0.6H84c0-0.2-0.1-0.5-0.2-0.7c-0.1-0.2-0.2-0.4-0.3-0.5s-0.3-0.2-0.5-0.3
				S82.6,25.5,82.3,25.5z"/>
			<path class="st1" d="M88.7,24.8c0.2,0,0.4,0,0.5,0c0.2,0,0.3,0.1,0.4,0.1l-0.2,0.8c-0.1-0.1-0.3-0.1-0.4-0.2
				c-0.2,0-0.3-0.1-0.5-0.1c-0.2,0-0.4,0-0.6,0.1c-0.2,0.1-0.3,0.2-0.4,0.3c-0.1,0.1-0.2,0.3-0.3,0.5c-0.1,0.2-0.1,0.4-0.1,0.7v2.9
				h-0.8v-5.2h0.8v0.7c0.2-0.3,0.4-0.5,0.7-0.6C88,24.8,88.3,24.8,88.7,24.8z"/>
			<path class="st1" d="M94.4,25.6h-2.1v4.4h-0.8v-4.4h-1.2v-0.7h1.2V24c0-0.3,0-0.5,0.1-0.8c0.1-0.2,0.2-0.4,0.3-0.6
				c0.1-0.2,0.3-0.3,0.5-0.4c0.2-0.1,0.5-0.1,0.8-0.1c0.3,0,0.6,0,0.8,0.1s0.4,0.2,0.6,0.3l-0.3,0.7c-0.1-0.1-0.3-0.2-0.5-0.2
				c-0.2-0.1-0.4-0.1-0.6-0.1c-0.3,0-0.6,0.1-0.7,0.3c-0.2,0.2-0.2,0.5-0.2,0.8v0.9h2.1L94.4,25.6L94.4,25.6z"/>
			<path class="st1" d="M100.2,27.9c0,0.4-0.1,0.7-0.2,1s-0.3,0.5-0.5,0.7c-0.2,0.2-0.5,0.3-0.7,0.4c-0.3,0.1-0.6,0.1-0.9,0.1
				c-0.3,0-0.6,0-0.9-0.1c-0.3-0.1-0.5-0.2-0.8-0.4s-0.4-0.4-0.5-0.7s-0.2-0.6-0.2-1v-3h0.8v2.9c0,0.3,0,0.5,0.1,0.7
				c0.1,0.2,0.2,0.4,0.3,0.5s0.3,0.2,0.5,0.3s0.4,0.1,0.6,0.1s0.4,0,0.6-0.1c0.2-0.1,0.3-0.2,0.5-0.3s0.2-0.3,0.3-0.5
				c0.1-0.2,0.1-0.4,0.1-0.7v-2.9h0.8L100.2,27.9L100.2,27.9z"/>
			<path class="st1" d="M102.9,30.1h-0.8v-7.9h0.8V30.1z"/>
			<path class="st1" d="M105.7,30.1h-0.8v-7.9h0.8V30.1z"/>
			<path class="st1" d="M108.1,32.3h-0.9l1.9-3.3l-2.4-4.1h0.9l1.9,3.2l1.8-3.2h0.9L108.1,32.3z"/>
			<path class="st1" d="M118.3,24.8c0.4,0,0.7,0.1,1.1,0.2s0.6,0.3,0.8,0.6l-0.5,0.6c-0.2-0.2-0.4-0.3-0.6-0.4
				c-0.2-0.1-0.5-0.2-0.8-0.2c-0.3,0-0.5,0-0.7,0.1s-0.4,0.2-0.6,0.4s-0.3,0.4-0.4,0.6c-0.1,0.2-0.1,0.5-0.1,0.8s0,0.5,0.1,0.8
				c0.1,0.2,0.2,0.4,0.4,0.6c0.2,0.2,0.4,0.3,0.6,0.4s0.5,0.1,0.7,0.1c0.3,0,0.5-0.1,0.8-0.2c0.2-0.1,0.5-0.3,0.6-0.4l0.5,0.6
				c-0.2,0.3-0.5,0.5-0.8,0.6c-0.3,0.1-0.7,0.2-1.1,0.2c-0.4,0-0.8-0.1-1.1-0.2s-0.6-0.3-0.8-0.6c-0.2-0.2-0.4-0.5-0.5-0.9
				c-0.1-0.3-0.2-0.7-0.2-1.1s0.1-0.7,0.2-1.1c0.1-0.3,0.3-0.6,0.5-0.9c0.2-0.2,0.5-0.4,0.8-0.6S117.9,24.8,118.3,24.8z"/>
			<path class="st1" d="M124,24.8c0.2,0,0.4,0,0.5,0s0.3,0.1,0.4,0.1l-0.2,0.8c-0.1-0.1-0.3-0.1-0.4-0.2c-0.2,0-0.3-0.1-0.5-0.1
				c-0.2,0-0.4,0-0.6,0.1c-0.2,0.1-0.3,0.2-0.4,0.3c-0.1,0.1-0.2,0.3-0.3,0.5c-0.1,0.2-0.1,0.4-0.1,0.7v2.9h-0.8v-5.2h0.8v0.7
				c0.2-0.3,0.4-0.5,0.7-0.6C123.3,24.8,123.6,24.8,124,24.8z"/>
			<path class="st1" d="M130.8,30.1H130v-0.8c-0.2,0.3-0.5,0.5-0.8,0.6c-0.3,0.2-0.7,0.2-1.1,0.2c-0.4,0-0.7-0.1-1-0.2
				s-0.6-0.3-0.8-0.6c-0.2-0.2-0.4-0.5-0.6-0.9s-0.2-0.7-0.2-1.1s0.1-0.8,0.2-1.1s0.3-0.6,0.6-0.9c0.2-0.2,0.5-0.4,0.8-0.6
				c0.3-0.1,0.7-0.2,1-0.2c0.4,0,0.8,0.1,1.1,0.2c0.3,0.2,0.6,0.4,0.8,0.6v-0.8h0.8V30.1z M128.2,25.5c-0.3,0-0.5,0-0.8,0.1
				c-0.2,0.1-0.4,0.2-0.6,0.4c-0.2,0.2-0.3,0.4-0.4,0.6c-0.1,0.2-0.1,0.5-0.1,0.8s0,0.5,0.1,0.8c0.1,0.2,0.2,0.4,0.4,0.6
				s0.4,0.3,0.6,0.4s0.5,0.1,0.8,0.1c0.3,0,0.5,0,0.7-0.1c0.2-0.1,0.4-0.2,0.6-0.4c0.2-0.2,0.3-0.4,0.4-0.6c0.1-0.2,0.1-0.5,0.1-0.8
				s0-0.5-0.1-0.8c-0.1-0.2-0.2-0.4-0.4-0.6c-0.2-0.2-0.4-0.3-0.6-0.4C128.7,25.6,128.5,25.5,128.2,25.5z"/>
			<path class="st1" d="M136.1,25.6h-2.1v4.4h-0.8v-4.4h-1.2v-0.7h1.2V24c0-0.3,0-0.5,0.1-0.8c0.1-0.2,0.2-0.4,0.3-0.6
				c0.1-0.2,0.3-0.3,0.5-0.4c0.2-0.1,0.5-0.1,0.8-0.1c0.3,0,0.6,0,0.8,0.1s0.4,0.2,0.6,0.3l-0.3,0.7c-0.1-0.1-0.3-0.2-0.5-0.2
				c-0.2-0.1-0.4-0.1-0.6-0.1c-0.3,0-0.6,0.1-0.7,0.3c-0.1,0.2-0.2,0.5-0.2,0.8v0.9h2.1L136.1,25.6L136.1,25.6z"/>
			<path class="st1" d="M140.9,25.6h-2.2v2.6c0,0.2,0,0.4,0.1,0.5s0.1,0.3,0.2,0.4s0.2,0.2,0.3,0.2c0.1,0,0.3,0.1,0.4,0.1
				c0.2,0,0.4,0,0.6-0.1c0.2-0.1,0.4-0.2,0.5-0.3l0.4,0.6c-0.2,0.1-0.4,0.3-0.7,0.4s-0.5,0.1-0.9,0.1c-0.6,0-1-0.2-1.3-0.5
				s-0.5-0.8-0.5-1.4v-2.6h-1.1v-0.7h1.1v-1.6h0.8v1.6h2.2L140.9,25.6L140.9,25.6z"/>
			<path class="st1" d="M144.5,24.8c0.4,0,0.7,0.1,1,0.2c0.3,0.1,0.6,0.3,0.8,0.5s0.4,0.5,0.5,0.8c0.1,0.3,0.2,0.7,0.2,1.1
				c0,0.1,0,0.2,0,0.3h-4.2c0,0.3,0.1,0.5,0.2,0.7c0.1,0.2,0.2,0.4,0.4,0.5c0.2,0.1,0.4,0.2,0.6,0.3c0.2,0.1,0.4,0.1,0.7,0.1
				c0.3,0,0.6-0.1,0.9-0.2s0.5-0.3,0.7-0.5l0.4,0.6c-0.3,0.3-0.7,0.5-1,0.6s-0.7,0.2-1.1,0.2c-0.4,0-0.7-0.1-1.1-0.2
				c-0.3-0.1-0.6-0.3-0.8-0.6c-0.2-0.2-0.4-0.5-0.5-0.9c-0.1-0.3-0.2-0.7-0.2-1.1c0-0.4,0.1-0.8,0.2-1.1c0.1-0.3,0.3-0.6,0.5-0.9
				c0.2-0.2,0.5-0.4,0.8-0.6C143.7,24.8,144.1,24.8,144.5,24.8z M144.4,25.5c-0.2,0-0.5,0-0.7,0.1s-0.4,0.2-0.5,0.3
				c-0.1,0.1-0.3,0.3-0.4,0.5c-0.1,0.2-0.2,0.4-0.2,0.6h3.3c0-0.2-0.1-0.5-0.2-0.7c-0.1-0.2-0.2-0.4-0.3-0.5s-0.3-0.2-0.5-0.3
				C144.9,25.5,144.7,25.5,144.4,25.5z"/>
			<path class="st1" d="M150.6,24.8c0.4,0,0.8,0.1,1.1,0.2c0.3,0.2,0.6,0.4,0.8,0.6v-3.5h0.8v7.9h-0.8v-0.8
				c-0.2,0.3-0.5,0.5-0.8,0.6c-0.3,0.2-0.7,0.2-1.1,0.2c-0.4,0-0.7-0.1-1-0.2s-0.6-0.3-0.8-0.6c-0.2-0.2-0.4-0.5-0.6-0.9
				s-0.2-0.7-0.2-1.1s0.1-0.8,0.2-1.1s0.3-0.6,0.6-0.9c0.2-0.2,0.5-0.4,0.8-0.6C149.9,24.8,150.2,24.8,150.6,24.8z M150.7,25.5
				c-0.3,0-0.5,0-0.8,0.1c-0.2,0.1-0.4,0.2-0.6,0.4c-0.2,0.2-0.3,0.4-0.4,0.6c-0.1,0.2-0.1,0.5-0.1,0.8s0,0.5,0.1,0.8
				c0.1,0.2,0.2,0.4,0.4,0.6s0.4,0.3,0.6,0.4s0.5,0.1,0.8,0.1c0.3,0,0.5,0,0.7-0.1c0.2-0.1,0.4-0.2,0.6-0.4c0.2-0.2,0.3-0.4,0.4-0.6
				c0.1-0.2,0.1-0.5,0.1-0.8s0-0.5-0.1-0.8c-0.1-0.2-0.2-0.4-0.4-0.6c-0.2-0.2-0.4-0.3-0.6-0.4C151.2,25.6,151,25.5,150.7,25.5z"/>
		</g>
	</g>
	<path class="st1" d="M20,0.1C9,0.1,0.1,9,0.1,20S9,39.9,20,39.9S40,31,40,20S31.1,0.1,20,0.1z M26.2,23v1.4h-3.6L17.5,20L17.4,20
		l0.1,0.6v3.8h-3.6v-8.7h3.6l5.2,4.3l0.1,0.1l-0.1-0.6v-3.8h3.6V23z"/>
</g>
</svg>
