<svg xmlns="http://www.w3.org/2000/svg" viewBox="0 0 310 310"><defs><style>.cls-1{fill:none;}.cls-2{fill:#15141e;}</style></defs><title>_LogoClienti_Conio</title><g id="Layer_2" data-name="Layer 2"><g id="LOGO_CLIENTE" data-name="LOGO CLIENTE"><circle id="Bounding" class="cls-1" cx="155" cy="155" r="155"/><path class="cls-2" d="M209.15,142.18c-1.12-20.31-9.26-41.36-23.54-60.87-5.54-7.57-11.69-13.29-18.27-17a38.7,38.7,0,0,0-19.15-5.16h0c-14.79,0-28.13,8.88-34.79,17.68a50.43,50.43,0,0,0,.56,60.31c1.83,2.49.07,8.32-4.38,14.51-6,8.4-8.26,19.71-6.11,31A48,48,0,0,0,121.72,212a46.4,46.4,0,0,0,34.38,9c10.59-1.45,20.75-7.28,30.2-17.34a84.76,84.76,0,0,0,18.36-29.56A81.32,81.32,0,0,0,209.15,142.18Zm-28.21,56.46c-7.39,7.87-15.92,13.73-25.84,15.09a39.4,39.4,0,0,1-5.32.36,38.92,38.92,0,0,1-23.62-8c-17.19-13.06-20.53-36.38-10.61-50.2a41.8,41.8,0,0,0,4.7-8.28,30,30,0,0,1,1.18,7.38,3.68,3.68,0,0,0,3.67,3.49h.18a3.67,3.67,0,0,0,3.49-3.85c-.5-10.42-4.16-16.11-8-20.7l-.25-.27c-.18-.31-.38-.61-.59-.91-15.06-20.5-8-41.83-.64-51.52C124,75,135.08,66.5,148.18,66.5c9.93,0,21,4.85,31.5,19.15C205.26,120.62,212.69,164.84,180.94,198.64Z"/><path class="cls-2" d="M213.38,118.19a3.67,3.67,0,0,1-.84-7.25l8.45-2a3.67,3.67,0,1,1,1.69,7.15l-8.45,2A3.53,3.53,0,0,1,213.38,118.19Z"/><path class="cls-2" d="M220.56,130.11h-.26l-5.86-.41a3.67,3.67,0,0,1,.51-7.33l5.86.41a3.67,3.67,0,0,1-.25,7.34Z"/><path class="cls-2" d="M209.56,108a3.68,3.68,0,0,1-2-6.78L212.52,98a3.68,3.68,0,1,1,4,6.2l-4.94,3.16A3.7,3.7,0,0,1,209.56,108Z"/><path class="cls-2" d="M171.26,126a3.56,3.56,0,0,1-3.11-5.31,12.89,12.89,0,0,1,9.18-6.43,13.81,13.81,0,0,1,11.52,3.42,3.57,3.57,0,0,1-4.74,5.34,6.64,6.64,0,0,0-5.58-1.72,5.81,5.81,0,0,0-4.15,2.87A3.57,3.57,0,0,1,171.26,126Z"/><path class="cls-2" d="M163.9,169a25.16,25.16,0,0,1-13.93-4.2A27.43,27.43,0,0,1,139.62,152a3.82,3.82,0,0,1,7.09-2.83c2.66,6.66,9.57,13,19,12,10.11-1,16.91-8.41,16.92-14.69a3.81,3.81,0,0,1,3.82-3.81h0a3.82,3.82,0,0,1,3.82,3.82c0,5.64-2.73,11.09-7.65,15.35a29.7,29.7,0,0,1-16.14,6.93A25.24,25.24,0,0,1,163.9,169Z"/><path class="cls-2" d="M142.4,131.63a6.06,6.06,0,1,1,6.06-6.06A6.07,6.07,0,0,1,142.4,131.63Z"/><circle class="cls-2" cx="185.3" cy="219.98" r="4.6"/><path class="cls-2" d="M205.88,226.18c-6.25-.05-12.55,4-12.55,12.31a13.44,13.44,0,0,0,.73,4.5l0,0a2.19,2.19,0,0,1-2.09,2.13,2.71,2.71,0,0,1-2.23-2.12c-1.11-3.67-1.05-7.73-.68-13.87a2.08,2.08,0,0,0-1.6-2.36,16.09,16.09,0,0,0-5.28.39,2.28,2.28,0,0,0-1.62,1.55c-.59,1.36-.73,5.62-.72,7.41a45.67,45.67,0,0,0,.56,6.13h0c0,.19.07.39.1.58a2,2,0,0,1-2.08,2.25,2.75,2.75,0,0,1-2.1-2.32,73.65,73.65,0,0,1-.41-8.15,8.15,8.15,0,0,0-8.08-8.22,8.33,8.33,0,0,0-6.73,3.09,7.52,7.52,0,0,0-5.81-2.6c-2.57,0-4.87,1.86-6.07,5.16a12.3,12.3,0,0,0-10.68-5.84c-6.13-.05-12.31,3.87-12.54,11.84a7.16,7.16,0,0,1-7.16,6.94,7.28,7.28,0,0,1-7.2-7,7,7,0,0,1,1.84-5c1-1.2,3.31-2.33,4.94-1.39s1,2.18,1.25,2.92a1.75,1.75,0,0,0,2.23.95,2.83,2.83,0,0,0,1.71-3.43c-.53-2.46-3.41-5.75-9-5.75a11.8,11.8,0,0,0-12.14,11.7c0,6.55,3.85,12.92,12.58,12.92a13.79,13.79,0,0,0,11.79-7.41c1.94,4.92,6.77,7.36,11.61,7.36,6.25,0,12.35-4.12,12.35-12.31a14.14,14.14,0,0,0-.37-3.28l0,0a4,4,0,0,1,2-.62c1.07,0,1.7.94,1.93,2s.26,9.11.26,12.31a1.52,1.52,0,0,0,1.48,1.57,18.22,18.22,0,0,0,5.09-.64c1.6-.43,2-1.07,2-2.61,0-2.67,0-7.8-.09-11.09h0a1.9,1.9,0,0,1,2.17-1.79c1.06.13,1.57,1.14,1.67,2.27.12,1.49.16,3.3.41,6,.37,4,2.43,7.62,6.18,8.09s6.43-2.42,7.79-4.7c1.17,2.6,3.25,4.53,6.13,4.66,3.9.18,6-2.2,7.28-4.46l.43-.76a12.49,12.49,0,0,0,10.56,5.32c6.26,0,12.36-4.12,12.36-12.31S212,226.23,205.88,226.18Zm-67.41,17.4c-2.13,0-4.27-1.65-4.27-5.09s2.23-5.14,4.36-5.09,4.07,1.75,4.07,5.09S140.65,243.53,138.47,243.58Zm67.36,0c-2.13,0-4.26-1.65-4.26-5.09s2.23-5.14,4.36-5.09,4.07,1.75,4.07,5.09S208,243.53,205.83,243.58Z"/></g></g></svg>